M48
; DRILL file {KiCad 8.0.6} date 2025-02-05T16:40:18-0700
; FORMAT={-:-/ absolute / metric / decimal}
; #@! TF.CreationDate,2025-02-05T16:40:18-07:00
; #@! TF.GenerationSoftware,Kicad,Pcbnew,8.0.6
; #@! TF.FileFunction,Plated,1,2,PTH
FMAT,2
METRIC
; #@! TA.AperFunction,Plated,PTH,ViaDrill
T1C0.400
; #@! TA.AperFunction,Plated,PTH,ComponentDrill
T2C0.750
; #@! TA.AperFunction,Plated,PTH,ComponentDrill
T3C0.762
; #@! TA.AperFunction,Plated,PTH,ComponentDrill
T4C0.800
; #@! TA.AperFunction,Plated,PTH,ComponentDrill
T5C1.000
%
G90
G05
T1
X145.225Y-91.45
X145.237Y-89.987
X145.25Y-79.1
X145.262Y-77.638
X145.275Y-85.35
X145.287Y-83.888
X145.3Y-88.375
X145.312Y-86.912
X145.325Y-76.025
X145.338Y-74.562
X145.35Y-82.275
X145.362Y-80.812
X145.875Y-105.025
X145.9Y-103.675
X146.725Y-79.1
X146.737Y-77.638
X146.75Y-80.75
X146.75Y-83.75
X146.8Y-76.025
X146.812Y-74.562
X147.475Y-105.0
X147.5Y-103.65
X149.025Y-105.0
X149.025Y-106.55
X149.025Y-108.175
X149.025Y-109.875
X149.05Y-103.65
X150.625Y-104.975
X150.625Y-106.525
X150.625Y-108.15
X150.625Y-109.85
X150.65Y-103.625
X152.1Y-104.975
X152.1Y-106.525
X152.1Y-108.15
X152.1Y-109.85
X152.125Y-103.625
X153.25Y-87.5
X153.25Y-90.0
X153.7Y-104.95
X153.7Y-106.5
X153.7Y-108.125
X153.7Y-109.825
X153.725Y-103.6
X154.0Y-80.0
X155.1Y-104.975
X155.1Y-106.525
X155.1Y-108.15
X155.1Y-109.85
X155.125Y-103.625
X156.5Y-91.75
X156.7Y-104.95
X156.7Y-106.5
X156.7Y-108.125
X156.7Y-109.825
X156.725Y-103.6
X157.5Y-95.25
X157.9Y-82.825
X157.912Y-81.362
X157.925Y-80.075
X157.938Y-78.612
X158.175Y-104.95
X158.175Y-106.5
X158.175Y-108.125
X158.175Y-109.825
X158.2Y-103.6
X158.25Y-72.425
X158.262Y-70.962
X159.375Y-82.825
X159.387Y-81.362
X159.4Y-80.075
X159.412Y-78.612
X159.725Y-72.425
X159.737Y-70.962
X159.775Y-104.925
X159.775Y-106.475
X159.775Y-108.1
X159.775Y-109.8
X159.8Y-103.575
X160.725Y-82.8
X160.737Y-81.337
X160.75Y-80.075
X160.762Y-78.612
X161.275Y-72.425
X161.287Y-70.962
X161.35Y-104.925
X161.35Y-106.475
X161.375Y-103.575
X162.2Y-82.8
X162.213Y-81.337
X162.225Y-80.075
X162.237Y-78.612
X162.75Y-72.425
X162.762Y-70.962
X162.95Y-104.9
X162.95Y-106.45
X162.975Y-100.6
X162.975Y-102.15
X162.975Y-103.55
X163.0Y-99.25
X164.45Y-104.9
X164.45Y-106.45
X164.475Y-100.6
X164.475Y-102.15
X164.475Y-103.55
X164.5Y-99.25
X165.5Y-79.0
X165.5Y-86.25
X166.0Y-93.0
X166.05Y-104.875
X166.05Y-106.425
X166.075Y-100.575
X166.075Y-102.125
X166.075Y-103.525
X166.1Y-99.225
X167.25Y-86.5
X168.25Y-100.0
X168.5Y-79.0
X169.25Y-105.5
X169.438Y-71.513
X171.037Y-71.487
X171.5Y-106.75
X172.512Y-71.487
X173.25Y-106.75
X174.1Y-93.225
X174.1Y-94.775
X174.112Y-71.462
X174.125Y-85.6
X174.125Y-87.15
X174.125Y-88.775
X174.125Y-90.475
X174.125Y-91.875
X174.15Y-84.25
X175.5Y-70.65
X175.575Y-93.225
X175.575Y-94.775
X175.575Y-96.4
X175.6Y-85.6
X175.6Y-87.15
X175.6Y-88.775
X175.6Y-90.475
X175.6Y-91.875
X175.625Y-84.25
X177.025Y-93.225
X177.025Y-94.775
X177.025Y-96.4
X177.025Y-98.1
X177.05Y-85.6
X177.05Y-87.15
X177.05Y-88.775
X177.05Y-90.475
X177.05Y-91.875
X177.075Y-84.25
X177.112Y-71.462
X178.588Y-71.462
X179.875Y-71.475
X181.225Y-72.95
X181.237Y-71.487
X181.25Y-92.25
X181.5Y-89.25
X181.713Y-96.762
X181.725Y-99.85
X181.737Y-98.237
X181.75Y-101.325
X182.825Y-72.925
X182.838Y-71.462
X183.213Y-98.237
X183.225Y-96.775
X183.225Y-101.325
X183.237Y-99.862
X184.3Y-72.925
X184.312Y-71.462
X184.575Y-102.725
X184.6Y-104.2
X184.6Y-105.5
X184.6Y-109.825
X184.612Y-96.737
X184.612Y-98.188
X184.625Y-99.825
X184.625Y-101.275
X184.625Y-106.975
X185.9Y-72.9
X185.912Y-71.438
X186.0Y-99.875
X186.075Y-104.2
X186.075Y-109.825
X186.088Y-102.737
X186.088Y-108.362
X186.1Y-106.975
X186.112Y-105.512
X186.125Y-101.337
X186.25Y-93.5
X187.025Y-83.775
X187.025Y-85.55
X187.3Y-72.925
X187.312Y-71.462
X187.362Y-109.837
X187.375Y-108.375
X187.5Y-101.375
X187.512Y-99.912
X187.55Y-104.2
X187.562Y-102.737
X187.575Y-106.975
X187.588Y-105.512
X188.7Y-109.85
X188.712Y-108.387
X188.837Y-101.312
X188.837Y-104.212
X188.85Y-99.85
X188.85Y-102.75
X188.862Y-106.987
X188.875Y-105.525
X188.9Y-72.9
X188.9Y-74.15
X188.912Y-71.438
X189.662Y-96.612
X189.688Y-98.087
X190.05Y-84.025
X190.075Y-85.5
X190.125Y-101.325
X190.137Y-99.862
X190.175Y-104.225
X190.188Y-102.762
X190.2Y-107.0
X190.212Y-105.537
X190.225Y-109.825
X190.237Y-108.362
X190.3Y-78.6
X190.35Y-79.85
X190.375Y-72.9
X190.375Y-74.15
X190.387Y-71.438
X191.162Y-98.087
X191.175Y-96.625
X191.462Y-84.037
X191.462Y-101.337
X191.475Y-99.875
X191.487Y-85.513
X191.575Y-78.6
X191.662Y-72.912
X191.662Y-74.162
X191.675Y-71.45
X191.688Y-79.862
X191.688Y-104.188
X191.7Y-102.725
X191.7Y-109.825
X191.712Y-106.962
X191.712Y-108.362
X191.725Y-105.5
X192.562Y-96.587
X192.562Y-98.037
X192.95Y-82.625
X192.962Y-79.862
X192.962Y-81.162
X192.962Y-85.513
X192.975Y-84.05
X192.975Y-104.2
X192.987Y-102.737
X192.987Y-109.837
X193.0Y-72.925
X193.0Y-74.175
X193.0Y-106.975
X193.0Y-108.375
X193.012Y-71.462
X193.012Y-105.512
X193.938Y-96.637
X194.062Y-98.1
X194.275Y-74.175
X194.287Y-72.938
X194.3Y-71.475
X194.312Y-104.212
X194.325Y-102.75
X194.325Y-109.85
X194.337Y-106.987
X194.337Y-108.387
X194.35Y-81.125
X194.35Y-82.575
X194.35Y-105.525
X194.362Y-84.013
X194.362Y-85.462
T2
X161.0Y-93.73
X161.0Y-95.0
X161.0Y-96.27
T3
X194.75Y-78.25
X194.75Y-100.094
X196.75Y-78.25
X196.75Y-100.094
X198.75Y-78.25
X198.75Y-100.094
X200.75Y-78.25
X200.75Y-100.094
X202.75Y-78.25
X202.75Y-100.094
X204.75Y-78.25
X204.75Y-100.094
X206.75Y-78.25
X206.75Y-100.094
X208.75Y-78.25
X208.75Y-100.094
X210.75Y-78.25
X210.75Y-100.094
X212.75Y-78.25
X212.75Y-100.094
T4
X171.7Y-74.325
X171.7Y-76.865
X171.7Y-79.405
X171.7Y-81.945
X171.7Y-84.485
X171.7Y-87.025
X171.7Y-89.565
X171.7Y-92.105
X171.7Y-94.645
X171.7Y-97.185
X179.32Y-74.325
X179.32Y-76.865
X179.32Y-79.405
X179.32Y-81.945
X179.32Y-84.485
X179.32Y-87.025
X179.32Y-89.565
X179.32Y-92.105
X179.32Y-94.645
X179.32Y-97.185
T5
X146.05Y-97.0
X146.05Y-99.5
X164.7Y-109.225
X167.24Y-109.225
X169.78Y-109.225
X172.32Y-109.225
X177.5Y-108.45
X180.0Y-108.45
M30
