G04 #@! TF.GenerationSoftware,KiCad,Pcbnew,8.0.6*
G04 #@! TF.CreationDate,2025-02-16T16:22:00-07:00*
G04 #@! TF.ProjectId,PACS_1.0,50414353-5f31-42e3-902e-6b696361645f,rev?*
G04 #@! TF.SameCoordinates,Original*
G04 #@! TF.FileFunction,Legend,Top*
G04 #@! TF.FilePolarity,Positive*
%FSLAX46Y46*%
G04 Gerber Fmt 4.6, Leading zero omitted, Abs format (unit mm)*
G04 Created by KiCad (PCBNEW 8.0.6) date 2025-02-16 16:22:00*
%MOMM*%
%LPD*%
G01*
G04 APERTURE LIST*
G04 Aperture macros list*
%AMRoundRect*
0 Rectangle with rounded corners*
0 $1 Rounding radius*
0 $2 $3 $4 $5 $6 $7 $8 $9 X,Y pos of 4 corners*
0 Add a 4 corners polygon primitive as box body*
4,1,4,$2,$3,$4,$5,$6,$7,$8,$9,$2,$3,0*
0 Add four circle primitives for the rounded corners*
1,1,$1+$1,$2,$3*
1,1,$1+$1,$4,$5*
1,1,$1+$1,$6,$7*
1,1,$1+$1,$8,$9*
0 Add four rect primitives between the rounded corners*
20,1,$1+$1,$2,$3,$4,$5,0*
20,1,$1+$1,$4,$5,$6,$7,0*
20,1,$1+$1,$6,$7,$8,$9,0*
20,1,$1+$1,$8,$9,$2,$3,0*%
G04 Aperture macros list end*
%ADD10C,0.200000*%
%ADD11C,0.153000*%
%ADD12C,0.120000*%
%ADD13C,0.127000*%
%ADD14R,1.500000X1.050000*%
%ADD15O,1.500000X1.050000*%
%ADD16RoundRect,0.140000X-0.140000X-0.170000X0.140000X-0.170000X0.140000X0.170000X-0.140000X0.170000X0*%
%ADD17RoundRect,0.135000X-0.135000X-0.185000X0.135000X-0.185000X0.135000X0.185000X-0.135000X0.185000X0*%
%ADD18R,1.600000X1.600000*%
%ADD19O,1.600000X1.600000*%
%ADD20RoundRect,0.200000X0.200000X0.275000X-0.200000X0.275000X-0.200000X-0.275000X0.200000X-0.275000X0*%
%ADD21RoundRect,0.150000X0.150000X-0.587500X0.150000X0.587500X-0.150000X0.587500X-0.150000X-0.587500X0*%
%ADD22RoundRect,0.135000X-0.185000X0.135000X-0.185000X-0.135000X0.185000X-0.135000X0.185000X0.135000X0*%
%ADD23RoundRect,0.225000X0.250000X-0.225000X0.250000X0.225000X-0.250000X0.225000X-0.250000X-0.225000X0*%
%ADD24RoundRect,0.075000X-0.250000X-0.075000X0.250000X-0.075000X0.250000X0.075000X-0.250000X0.075000X0*%
%ADD25RoundRect,0.135000X0.135000X0.185000X-0.135000X0.185000X-0.135000X-0.185000X0.135000X-0.185000X0*%
%ADD26RoundRect,0.250000X-0.250000X-0.475000X0.250000X-0.475000X0.250000X0.475000X-0.250000X0.475000X0*%
%ADD27R,1.700000X1.700000*%
%ADD28O,1.700000X1.700000*%
%ADD29RoundRect,0.225000X-0.225000X-0.250000X0.225000X-0.250000X0.225000X0.250000X-0.225000X0.250000X0*%
%ADD30RoundRect,0.250000X-0.750000X0.600000X-0.750000X-0.600000X0.750000X-0.600000X0.750000X0.600000X0*%
%ADD31O,2.000000X1.700000*%
%ADD32RoundRect,0.162500X-0.447500X-0.162500X0.447500X-0.162500X0.447500X0.162500X-0.447500X0.162500X0*%
%ADD33RoundRect,0.140000X0.140000X0.170000X-0.140000X0.170000X-0.140000X-0.170000X0.140000X-0.170000X0*%
%ADD34RoundRect,0.225000X-0.250000X0.225000X-0.250000X-0.225000X0.250000X-0.225000X0.250000X0.225000X0*%
%ADD35RoundRect,0.250000X1.000000X0.650000X-1.000000X0.650000X-1.000000X-0.650000X1.000000X-0.650000X0*%
%ADD36RoundRect,0.099250X-0.627750X-0.297750X0.627750X-0.297750X0.627750X0.297750X-0.627750X0.297750X0*%
%ADD37RoundRect,0.250000X-1.450000X0.312500X-1.450000X-0.312500X1.450000X-0.312500X1.450000X0.312500X0*%
%ADD38RoundRect,0.200000X0.275000X-0.200000X0.275000X0.200000X-0.275000X0.200000X-0.275000X-0.200000X0*%
%ADD39RoundRect,0.135000X0.185000X-0.135000X0.185000X0.135000X-0.185000X0.135000X-0.185000X-0.135000X0*%
%ADD40RoundRect,0.140000X-0.170000X0.140000X-0.170000X-0.140000X0.170000X-0.140000X0.170000X0.140000X0*%
%ADD41RoundRect,0.140000X0.170000X-0.140000X0.170000X0.140000X-0.170000X0.140000X-0.170000X-0.140000X0*%
%ADD42RoundRect,0.250000X-0.600000X-0.750000X0.600000X-0.750000X0.600000X0.750000X-0.600000X0.750000X0*%
%ADD43O,1.700000X2.000000*%
%ADD44RoundRect,0.250000X0.475000X-0.250000X0.475000X0.250000X-0.475000X0.250000X-0.475000X-0.250000X0*%
%ADD45RoundRect,0.235000X-0.940000X-1.465000X0.940000X-1.465000X0.940000X1.465000X-0.940000X1.465000X0*%
%ADD46C,1.524000*%
%ADD47RoundRect,0.150000X-0.512500X-0.150000X0.512500X-0.150000X0.512500X0.150000X-0.512500X0.150000X0*%
G04 APERTURE END LIST*
D10*
X200023810Y-106507275D02*
X200023810Y-105507275D01*
X200023810Y-105507275D02*
X200404762Y-105507275D01*
X200404762Y-105507275D02*
X200500000Y-105554894D01*
X200500000Y-105554894D02*
X200547619Y-105602513D01*
X200547619Y-105602513D02*
X200595238Y-105697751D01*
X200595238Y-105697751D02*
X200595238Y-105840608D01*
X200595238Y-105840608D02*
X200547619Y-105935846D01*
X200547619Y-105935846D02*
X200500000Y-105983465D01*
X200500000Y-105983465D02*
X200404762Y-106031084D01*
X200404762Y-106031084D02*
X200023810Y-106031084D01*
X200976191Y-106221560D02*
X201452381Y-106221560D01*
X200880953Y-106507275D02*
X201214286Y-105507275D01*
X201214286Y-105507275D02*
X201547619Y-106507275D01*
X202452381Y-106412036D02*
X202404762Y-106459656D01*
X202404762Y-106459656D02*
X202261905Y-106507275D01*
X202261905Y-106507275D02*
X202166667Y-106507275D01*
X202166667Y-106507275D02*
X202023810Y-106459656D01*
X202023810Y-106459656D02*
X201928572Y-106364417D01*
X201928572Y-106364417D02*
X201880953Y-106269179D01*
X201880953Y-106269179D02*
X201833334Y-106078703D01*
X201833334Y-106078703D02*
X201833334Y-105935846D01*
X201833334Y-105935846D02*
X201880953Y-105745370D01*
X201880953Y-105745370D02*
X201928572Y-105650132D01*
X201928572Y-105650132D02*
X202023810Y-105554894D01*
X202023810Y-105554894D02*
X202166667Y-105507275D01*
X202166667Y-105507275D02*
X202261905Y-105507275D01*
X202261905Y-105507275D02*
X202404762Y-105554894D01*
X202404762Y-105554894D02*
X202452381Y-105602513D01*
X202833334Y-106459656D02*
X202976191Y-106507275D01*
X202976191Y-106507275D02*
X203214286Y-106507275D01*
X203214286Y-106507275D02*
X203309524Y-106459656D01*
X203309524Y-106459656D02*
X203357143Y-106412036D01*
X203357143Y-106412036D02*
X203404762Y-106316798D01*
X203404762Y-106316798D02*
X203404762Y-106221560D01*
X203404762Y-106221560D02*
X203357143Y-106126322D01*
X203357143Y-106126322D02*
X203309524Y-106078703D01*
X203309524Y-106078703D02*
X203214286Y-106031084D01*
X203214286Y-106031084D02*
X203023810Y-105983465D01*
X203023810Y-105983465D02*
X202928572Y-105935846D01*
X202928572Y-105935846D02*
X202880953Y-105888227D01*
X202880953Y-105888227D02*
X202833334Y-105792989D01*
X202833334Y-105792989D02*
X202833334Y-105697751D01*
X202833334Y-105697751D02*
X202880953Y-105602513D01*
X202880953Y-105602513D02*
X202928572Y-105554894D01*
X202928572Y-105554894D02*
X203023810Y-105507275D01*
X203023810Y-105507275D02*
X203261905Y-105507275D01*
X203261905Y-105507275D02*
X203404762Y-105554894D01*
X203833334Y-106126322D02*
X204595239Y-106126322D01*
X205595238Y-105554894D02*
X205500000Y-105507275D01*
X205500000Y-105507275D02*
X205357143Y-105507275D01*
X205357143Y-105507275D02*
X205214286Y-105554894D01*
X205214286Y-105554894D02*
X205119048Y-105650132D01*
X205119048Y-105650132D02*
X205071429Y-105745370D01*
X205071429Y-105745370D02*
X205023810Y-105935846D01*
X205023810Y-105935846D02*
X205023810Y-106078703D01*
X205023810Y-106078703D02*
X205071429Y-106269179D01*
X205071429Y-106269179D02*
X205119048Y-106364417D01*
X205119048Y-106364417D02*
X205214286Y-106459656D01*
X205214286Y-106459656D02*
X205357143Y-106507275D01*
X205357143Y-106507275D02*
X205452381Y-106507275D01*
X205452381Y-106507275D02*
X205595238Y-106459656D01*
X205595238Y-106459656D02*
X205642857Y-106412036D01*
X205642857Y-106412036D02*
X205642857Y-106078703D01*
X205642857Y-106078703D02*
X205452381Y-106078703D01*
X206071429Y-106412036D02*
X206119048Y-106459656D01*
X206119048Y-106459656D02*
X206071429Y-106507275D01*
X206071429Y-106507275D02*
X206023810Y-106459656D01*
X206023810Y-106459656D02*
X206071429Y-106412036D01*
X206071429Y-106412036D02*
X206071429Y-106507275D01*
X206500000Y-105602513D02*
X206547619Y-105554894D01*
X206547619Y-105554894D02*
X206642857Y-105507275D01*
X206642857Y-105507275D02*
X206880952Y-105507275D01*
X206880952Y-105507275D02*
X206976190Y-105554894D01*
X206976190Y-105554894D02*
X207023809Y-105602513D01*
X207023809Y-105602513D02*
X207071428Y-105697751D01*
X207071428Y-105697751D02*
X207071428Y-105792989D01*
X207071428Y-105792989D02*
X207023809Y-105935846D01*
X207023809Y-105935846D02*
X206452381Y-106507275D01*
X206452381Y-106507275D02*
X207071428Y-106507275D01*
X208023809Y-106507275D02*
X207452381Y-106507275D01*
X207738095Y-106507275D02*
X207738095Y-105507275D01*
X207738095Y-105507275D02*
X207642857Y-105650132D01*
X207642857Y-105650132D02*
X207547619Y-105745370D01*
X207547619Y-105745370D02*
X207452381Y-105792989D01*
X202285714Y-107212457D02*
X202333333Y-107164838D01*
X202333333Y-107164838D02*
X202428571Y-107117219D01*
X202428571Y-107117219D02*
X202666666Y-107117219D01*
X202666666Y-107117219D02*
X202761904Y-107164838D01*
X202761904Y-107164838D02*
X202809523Y-107212457D01*
X202809523Y-107212457D02*
X202857142Y-107307695D01*
X202857142Y-107307695D02*
X202857142Y-107402933D01*
X202857142Y-107402933D02*
X202809523Y-107545790D01*
X202809523Y-107545790D02*
X202238095Y-108117219D01*
X202238095Y-108117219D02*
X202857142Y-108117219D01*
X203476190Y-107117219D02*
X203571428Y-107117219D01*
X203571428Y-107117219D02*
X203666666Y-107164838D01*
X203666666Y-107164838D02*
X203714285Y-107212457D01*
X203714285Y-107212457D02*
X203761904Y-107307695D01*
X203761904Y-107307695D02*
X203809523Y-107498171D01*
X203809523Y-107498171D02*
X203809523Y-107736266D01*
X203809523Y-107736266D02*
X203761904Y-107926742D01*
X203761904Y-107926742D02*
X203714285Y-108021980D01*
X203714285Y-108021980D02*
X203666666Y-108069600D01*
X203666666Y-108069600D02*
X203571428Y-108117219D01*
X203571428Y-108117219D02*
X203476190Y-108117219D01*
X203476190Y-108117219D02*
X203380952Y-108069600D01*
X203380952Y-108069600D02*
X203333333Y-108021980D01*
X203333333Y-108021980D02*
X203285714Y-107926742D01*
X203285714Y-107926742D02*
X203238095Y-107736266D01*
X203238095Y-107736266D02*
X203238095Y-107498171D01*
X203238095Y-107498171D02*
X203285714Y-107307695D01*
X203285714Y-107307695D02*
X203333333Y-107212457D01*
X203333333Y-107212457D02*
X203380952Y-107164838D01*
X203380952Y-107164838D02*
X203476190Y-107117219D01*
X204190476Y-107212457D02*
X204238095Y-107164838D01*
X204238095Y-107164838D02*
X204333333Y-107117219D01*
X204333333Y-107117219D02*
X204571428Y-107117219D01*
X204571428Y-107117219D02*
X204666666Y-107164838D01*
X204666666Y-107164838D02*
X204714285Y-107212457D01*
X204714285Y-107212457D02*
X204761904Y-107307695D01*
X204761904Y-107307695D02*
X204761904Y-107402933D01*
X204761904Y-107402933D02*
X204714285Y-107545790D01*
X204714285Y-107545790D02*
X204142857Y-108117219D01*
X204142857Y-108117219D02*
X204761904Y-108117219D01*
X205666666Y-107117219D02*
X205190476Y-107117219D01*
X205190476Y-107117219D02*
X205142857Y-107593409D01*
X205142857Y-107593409D02*
X205190476Y-107545790D01*
X205190476Y-107545790D02*
X205285714Y-107498171D01*
X205285714Y-107498171D02*
X205523809Y-107498171D01*
X205523809Y-107498171D02*
X205619047Y-107545790D01*
X205619047Y-107545790D02*
X205666666Y-107593409D01*
X205666666Y-107593409D02*
X205714285Y-107688647D01*
X205714285Y-107688647D02*
X205714285Y-107926742D01*
X205714285Y-107926742D02*
X205666666Y-108021980D01*
X205666666Y-108021980D02*
X205619047Y-108069600D01*
X205619047Y-108069600D02*
X205523809Y-108117219D01*
X205523809Y-108117219D02*
X205285714Y-108117219D01*
X205285714Y-108117219D02*
X205190476Y-108069600D01*
X205190476Y-108069600D02*
X205142857Y-108021980D01*
D11*
X160829761Y-98839901D02*
X160734523Y-98792282D01*
X160734523Y-98792282D02*
X160639285Y-98697044D01*
X160639285Y-98697044D02*
X160496428Y-98554186D01*
X160496428Y-98554186D02*
X160401190Y-98506567D01*
X160401190Y-98506567D02*
X160305952Y-98506567D01*
X160353571Y-98744663D02*
X160258333Y-98697044D01*
X160258333Y-98697044D02*
X160163095Y-98601805D01*
X160163095Y-98601805D02*
X160115476Y-98411329D01*
X160115476Y-98411329D02*
X160115476Y-98077996D01*
X160115476Y-98077996D02*
X160163095Y-97887520D01*
X160163095Y-97887520D02*
X160258333Y-97792282D01*
X160258333Y-97792282D02*
X160353571Y-97744663D01*
X160353571Y-97744663D02*
X160544047Y-97744663D01*
X160544047Y-97744663D02*
X160639285Y-97792282D01*
X160639285Y-97792282D02*
X160734523Y-97887520D01*
X160734523Y-97887520D02*
X160782142Y-98077996D01*
X160782142Y-98077996D02*
X160782142Y-98411329D01*
X160782142Y-98411329D02*
X160734523Y-98601805D01*
X160734523Y-98601805D02*
X160639285Y-98697044D01*
X160639285Y-98697044D02*
X160544047Y-98744663D01*
X160544047Y-98744663D02*
X160353571Y-98744663D01*
X161734523Y-98744663D02*
X161163095Y-98744663D01*
X161448809Y-98744663D02*
X161448809Y-97744663D01*
X161448809Y-97744663D02*
X161353571Y-97887520D01*
X161353571Y-97887520D02*
X161258333Y-97982758D01*
X161258333Y-97982758D02*
X161163095Y-98030377D01*
X147583333Y-85859424D02*
X147535714Y-85907044D01*
X147535714Y-85907044D02*
X147392857Y-85954663D01*
X147392857Y-85954663D02*
X147297619Y-85954663D01*
X147297619Y-85954663D02*
X147154762Y-85907044D01*
X147154762Y-85907044D02*
X147059524Y-85811805D01*
X147059524Y-85811805D02*
X147011905Y-85716567D01*
X147011905Y-85716567D02*
X146964286Y-85526091D01*
X146964286Y-85526091D02*
X146964286Y-85383234D01*
X146964286Y-85383234D02*
X147011905Y-85192758D01*
X147011905Y-85192758D02*
X147059524Y-85097520D01*
X147059524Y-85097520D02*
X147154762Y-85002282D01*
X147154762Y-85002282D02*
X147297619Y-84954663D01*
X147297619Y-84954663D02*
X147392857Y-84954663D01*
X147392857Y-84954663D02*
X147535714Y-85002282D01*
X147535714Y-85002282D02*
X147583333Y-85049901D01*
X147916667Y-84954663D02*
X148583333Y-84954663D01*
X148583333Y-84954663D02*
X148154762Y-85954663D01*
X168107142Y-99204663D02*
X167773809Y-98728472D01*
X167535714Y-99204663D02*
X167535714Y-98204663D01*
X167535714Y-98204663D02*
X167916666Y-98204663D01*
X167916666Y-98204663D02*
X168011904Y-98252282D01*
X168011904Y-98252282D02*
X168059523Y-98299901D01*
X168059523Y-98299901D02*
X168107142Y-98395139D01*
X168107142Y-98395139D02*
X168107142Y-98537996D01*
X168107142Y-98537996D02*
X168059523Y-98633234D01*
X168059523Y-98633234D02*
X168011904Y-98680853D01*
X168011904Y-98680853D02*
X167916666Y-98728472D01*
X167916666Y-98728472D02*
X167535714Y-98728472D01*
X169059523Y-99204663D02*
X168488095Y-99204663D01*
X168773809Y-99204663D02*
X168773809Y-98204663D01*
X168773809Y-98204663D02*
X168678571Y-98347520D01*
X168678571Y-98347520D02*
X168583333Y-98442758D01*
X168583333Y-98442758D02*
X168488095Y-98490377D01*
X169392857Y-98204663D02*
X170011904Y-98204663D01*
X170011904Y-98204663D02*
X169678571Y-98585615D01*
X169678571Y-98585615D02*
X169821428Y-98585615D01*
X169821428Y-98585615D02*
X169916666Y-98633234D01*
X169916666Y-98633234D02*
X169964285Y-98680853D01*
X169964285Y-98680853D02*
X170011904Y-98776091D01*
X170011904Y-98776091D02*
X170011904Y-99014186D01*
X170011904Y-99014186D02*
X169964285Y-99109424D01*
X169964285Y-99109424D02*
X169916666Y-99157044D01*
X169916666Y-99157044D02*
X169821428Y-99204663D01*
X169821428Y-99204663D02*
X169535714Y-99204663D01*
X169535714Y-99204663D02*
X169440476Y-99157044D01*
X169440476Y-99157044D02*
X169392857Y-99109424D01*
X192857142Y-91954663D02*
X192523809Y-91478472D01*
X192285714Y-91954663D02*
X192285714Y-90954663D01*
X192285714Y-90954663D02*
X192666666Y-90954663D01*
X192666666Y-90954663D02*
X192761904Y-91002282D01*
X192761904Y-91002282D02*
X192809523Y-91049901D01*
X192809523Y-91049901D02*
X192857142Y-91145139D01*
X192857142Y-91145139D02*
X192857142Y-91287996D01*
X192857142Y-91287996D02*
X192809523Y-91383234D01*
X192809523Y-91383234D02*
X192761904Y-91430853D01*
X192761904Y-91430853D02*
X192666666Y-91478472D01*
X192666666Y-91478472D02*
X192285714Y-91478472D01*
X193809523Y-91954663D02*
X193238095Y-91954663D01*
X193523809Y-91954663D02*
X193523809Y-90954663D01*
X193523809Y-90954663D02*
X193428571Y-91097520D01*
X193428571Y-91097520D02*
X193333333Y-91192758D01*
X193333333Y-91192758D02*
X193238095Y-91240377D01*
X194714285Y-90954663D02*
X194238095Y-90954663D01*
X194238095Y-90954663D02*
X194190476Y-91430853D01*
X194190476Y-91430853D02*
X194238095Y-91383234D01*
X194238095Y-91383234D02*
X194333333Y-91335615D01*
X194333333Y-91335615D02*
X194571428Y-91335615D01*
X194571428Y-91335615D02*
X194666666Y-91383234D01*
X194666666Y-91383234D02*
X194714285Y-91430853D01*
X194714285Y-91430853D02*
X194761904Y-91526091D01*
X194761904Y-91526091D02*
X194761904Y-91764186D01*
X194761904Y-91764186D02*
X194714285Y-91859424D01*
X194714285Y-91859424D02*
X194666666Y-91907044D01*
X194666666Y-91907044D02*
X194571428Y-91954663D01*
X194571428Y-91954663D02*
X194333333Y-91954663D01*
X194333333Y-91954663D02*
X194238095Y-91907044D01*
X194238095Y-91907044D02*
X194190476Y-91859424D01*
X174938095Y-71479663D02*
X174938095Y-72289186D01*
X174938095Y-72289186D02*
X174985714Y-72384424D01*
X174985714Y-72384424D02*
X175033333Y-72432044D01*
X175033333Y-72432044D02*
X175128571Y-72479663D01*
X175128571Y-72479663D02*
X175319047Y-72479663D01*
X175319047Y-72479663D02*
X175414285Y-72432044D01*
X175414285Y-72432044D02*
X175461904Y-72384424D01*
X175461904Y-72384424D02*
X175509523Y-72289186D01*
X175509523Y-72289186D02*
X175509523Y-71479663D01*
X176509523Y-72479663D02*
X175938095Y-72479663D01*
X176223809Y-72479663D02*
X176223809Y-71479663D01*
X176223809Y-71479663D02*
X176128571Y-71622520D01*
X176128571Y-71622520D02*
X176033333Y-71717758D01*
X176033333Y-71717758D02*
X175938095Y-71765377D01*
X190833333Y-82204663D02*
X190500000Y-81728472D01*
X190261905Y-82204663D02*
X190261905Y-81204663D01*
X190261905Y-81204663D02*
X190642857Y-81204663D01*
X190642857Y-81204663D02*
X190738095Y-81252282D01*
X190738095Y-81252282D02*
X190785714Y-81299901D01*
X190785714Y-81299901D02*
X190833333Y-81395139D01*
X190833333Y-81395139D02*
X190833333Y-81537996D01*
X190833333Y-81537996D02*
X190785714Y-81633234D01*
X190785714Y-81633234D02*
X190738095Y-81680853D01*
X190738095Y-81680853D02*
X190642857Y-81728472D01*
X190642857Y-81728472D02*
X190261905Y-81728472D01*
X191785714Y-82204663D02*
X191214286Y-82204663D01*
X191500000Y-82204663D02*
X191500000Y-81204663D01*
X191500000Y-81204663D02*
X191404762Y-81347520D01*
X191404762Y-81347520D02*
X191309524Y-81442758D01*
X191309524Y-81442758D02*
X191214286Y-81490377D01*
X167988095Y-82004663D02*
X167988095Y-82814186D01*
X167988095Y-82814186D02*
X168035714Y-82909424D01*
X168035714Y-82909424D02*
X168083333Y-82957044D01*
X168083333Y-82957044D02*
X168178571Y-83004663D01*
X168178571Y-83004663D02*
X168369047Y-83004663D01*
X168369047Y-83004663D02*
X168464285Y-82957044D01*
X168464285Y-82957044D02*
X168511904Y-82909424D01*
X168511904Y-82909424D02*
X168559523Y-82814186D01*
X168559523Y-82814186D02*
X168559523Y-82004663D01*
X169511904Y-82004663D02*
X169035714Y-82004663D01*
X169035714Y-82004663D02*
X168988095Y-82480853D01*
X168988095Y-82480853D02*
X169035714Y-82433234D01*
X169035714Y-82433234D02*
X169130952Y-82385615D01*
X169130952Y-82385615D02*
X169369047Y-82385615D01*
X169369047Y-82385615D02*
X169464285Y-82433234D01*
X169464285Y-82433234D02*
X169511904Y-82480853D01*
X169511904Y-82480853D02*
X169559523Y-82576091D01*
X169559523Y-82576091D02*
X169559523Y-82814186D01*
X169559523Y-82814186D02*
X169511904Y-82909424D01*
X169511904Y-82909424D02*
X169464285Y-82957044D01*
X169464285Y-82957044D02*
X169369047Y-83004663D01*
X169369047Y-83004663D02*
X169130952Y-83004663D01*
X169130952Y-83004663D02*
X169035714Y-82957044D01*
X169035714Y-82957044D02*
X168988095Y-82909424D01*
X173357142Y-100954663D02*
X173023809Y-100478472D01*
X172785714Y-100954663D02*
X172785714Y-99954663D01*
X172785714Y-99954663D02*
X173166666Y-99954663D01*
X173166666Y-99954663D02*
X173261904Y-100002282D01*
X173261904Y-100002282D02*
X173309523Y-100049901D01*
X173309523Y-100049901D02*
X173357142Y-100145139D01*
X173357142Y-100145139D02*
X173357142Y-100287996D01*
X173357142Y-100287996D02*
X173309523Y-100383234D01*
X173309523Y-100383234D02*
X173261904Y-100430853D01*
X173261904Y-100430853D02*
X173166666Y-100478472D01*
X173166666Y-100478472D02*
X172785714Y-100478472D01*
X174309523Y-100954663D02*
X173738095Y-100954663D01*
X174023809Y-100954663D02*
X174023809Y-99954663D01*
X174023809Y-99954663D02*
X173928571Y-100097520D01*
X173928571Y-100097520D02*
X173833333Y-100192758D01*
X173833333Y-100192758D02*
X173738095Y-100240377D01*
X175166666Y-100287996D02*
X175166666Y-100954663D01*
X174928571Y-99907044D02*
X174690476Y-100621329D01*
X174690476Y-100621329D02*
X175309523Y-100621329D01*
X167583333Y-71359424D02*
X167535714Y-71407044D01*
X167535714Y-71407044D02*
X167392857Y-71454663D01*
X167392857Y-71454663D02*
X167297619Y-71454663D01*
X167297619Y-71454663D02*
X167154762Y-71407044D01*
X167154762Y-71407044D02*
X167059524Y-71311805D01*
X167059524Y-71311805D02*
X167011905Y-71216567D01*
X167011905Y-71216567D02*
X166964286Y-71026091D01*
X166964286Y-71026091D02*
X166964286Y-70883234D01*
X166964286Y-70883234D02*
X167011905Y-70692758D01*
X167011905Y-70692758D02*
X167059524Y-70597520D01*
X167059524Y-70597520D02*
X167154762Y-70502282D01*
X167154762Y-70502282D02*
X167297619Y-70454663D01*
X167297619Y-70454663D02*
X167392857Y-70454663D01*
X167392857Y-70454663D02*
X167535714Y-70502282D01*
X167535714Y-70502282D02*
X167583333Y-70549901D01*
X167916667Y-70454663D02*
X168535714Y-70454663D01*
X168535714Y-70454663D02*
X168202381Y-70835615D01*
X168202381Y-70835615D02*
X168345238Y-70835615D01*
X168345238Y-70835615D02*
X168440476Y-70883234D01*
X168440476Y-70883234D02*
X168488095Y-70930853D01*
X168488095Y-70930853D02*
X168535714Y-71026091D01*
X168535714Y-71026091D02*
X168535714Y-71264186D01*
X168535714Y-71264186D02*
X168488095Y-71359424D01*
X168488095Y-71359424D02*
X168440476Y-71407044D01*
X168440476Y-71407044D02*
X168345238Y-71454663D01*
X168345238Y-71454663D02*
X168059524Y-71454663D01*
X168059524Y-71454663D02*
X167964286Y-71407044D01*
X167964286Y-71407044D02*
X167916667Y-71359424D01*
X184988095Y-90204663D02*
X184988095Y-91014186D01*
X184988095Y-91014186D02*
X185035714Y-91109424D01*
X185035714Y-91109424D02*
X185083333Y-91157044D01*
X185083333Y-91157044D02*
X185178571Y-91204663D01*
X185178571Y-91204663D02*
X185369047Y-91204663D01*
X185369047Y-91204663D02*
X185464285Y-91157044D01*
X185464285Y-91157044D02*
X185511904Y-91109424D01*
X185511904Y-91109424D02*
X185559523Y-91014186D01*
X185559523Y-91014186D02*
X185559523Y-90204663D01*
X186464285Y-90204663D02*
X186273809Y-90204663D01*
X186273809Y-90204663D02*
X186178571Y-90252282D01*
X186178571Y-90252282D02*
X186130952Y-90299901D01*
X186130952Y-90299901D02*
X186035714Y-90442758D01*
X186035714Y-90442758D02*
X185988095Y-90633234D01*
X185988095Y-90633234D02*
X185988095Y-91014186D01*
X185988095Y-91014186D02*
X186035714Y-91109424D01*
X186035714Y-91109424D02*
X186083333Y-91157044D01*
X186083333Y-91157044D02*
X186178571Y-91204663D01*
X186178571Y-91204663D02*
X186369047Y-91204663D01*
X186369047Y-91204663D02*
X186464285Y-91157044D01*
X186464285Y-91157044D02*
X186511904Y-91109424D01*
X186511904Y-91109424D02*
X186559523Y-91014186D01*
X186559523Y-91014186D02*
X186559523Y-90776091D01*
X186559523Y-90776091D02*
X186511904Y-90680853D01*
X186511904Y-90680853D02*
X186464285Y-90633234D01*
X186464285Y-90633234D02*
X186369047Y-90585615D01*
X186369047Y-90585615D02*
X186178571Y-90585615D01*
X186178571Y-90585615D02*
X186083333Y-90633234D01*
X186083333Y-90633234D02*
X186035714Y-90680853D01*
X186035714Y-90680853D02*
X185988095Y-90776091D01*
X155833333Y-85929663D02*
X155500000Y-85453472D01*
X155261905Y-85929663D02*
X155261905Y-84929663D01*
X155261905Y-84929663D02*
X155642857Y-84929663D01*
X155642857Y-84929663D02*
X155738095Y-84977282D01*
X155738095Y-84977282D02*
X155785714Y-85024901D01*
X155785714Y-85024901D02*
X155833333Y-85120139D01*
X155833333Y-85120139D02*
X155833333Y-85262996D01*
X155833333Y-85262996D02*
X155785714Y-85358234D01*
X155785714Y-85358234D02*
X155738095Y-85405853D01*
X155738095Y-85405853D02*
X155642857Y-85453472D01*
X155642857Y-85453472D02*
X155261905Y-85453472D01*
X156690476Y-84929663D02*
X156500000Y-84929663D01*
X156500000Y-84929663D02*
X156404762Y-84977282D01*
X156404762Y-84977282D02*
X156357143Y-85024901D01*
X156357143Y-85024901D02*
X156261905Y-85167758D01*
X156261905Y-85167758D02*
X156214286Y-85358234D01*
X156214286Y-85358234D02*
X156214286Y-85739186D01*
X156214286Y-85739186D02*
X156261905Y-85834424D01*
X156261905Y-85834424D02*
X156309524Y-85882044D01*
X156309524Y-85882044D02*
X156404762Y-85929663D01*
X156404762Y-85929663D02*
X156595238Y-85929663D01*
X156595238Y-85929663D02*
X156690476Y-85882044D01*
X156690476Y-85882044D02*
X156738095Y-85834424D01*
X156738095Y-85834424D02*
X156785714Y-85739186D01*
X156785714Y-85739186D02*
X156785714Y-85501091D01*
X156785714Y-85501091D02*
X156738095Y-85405853D01*
X156738095Y-85405853D02*
X156690476Y-85358234D01*
X156690476Y-85358234D02*
X156595238Y-85310615D01*
X156595238Y-85310615D02*
X156404762Y-85310615D01*
X156404762Y-85310615D02*
X156309524Y-85358234D01*
X156309524Y-85358234D02*
X156261905Y-85405853D01*
X156261905Y-85405853D02*
X156214286Y-85501091D01*
X147583333Y-87609424D02*
X147535714Y-87657044D01*
X147535714Y-87657044D02*
X147392857Y-87704663D01*
X147392857Y-87704663D02*
X147297619Y-87704663D01*
X147297619Y-87704663D02*
X147154762Y-87657044D01*
X147154762Y-87657044D02*
X147059524Y-87561805D01*
X147059524Y-87561805D02*
X147011905Y-87466567D01*
X147011905Y-87466567D02*
X146964286Y-87276091D01*
X146964286Y-87276091D02*
X146964286Y-87133234D01*
X146964286Y-87133234D02*
X147011905Y-86942758D01*
X147011905Y-86942758D02*
X147059524Y-86847520D01*
X147059524Y-86847520D02*
X147154762Y-86752282D01*
X147154762Y-86752282D02*
X147297619Y-86704663D01*
X147297619Y-86704663D02*
X147392857Y-86704663D01*
X147392857Y-86704663D02*
X147535714Y-86752282D01*
X147535714Y-86752282D02*
X147583333Y-86799901D01*
X148440476Y-86704663D02*
X148250000Y-86704663D01*
X148250000Y-86704663D02*
X148154762Y-86752282D01*
X148154762Y-86752282D02*
X148107143Y-86799901D01*
X148107143Y-86799901D02*
X148011905Y-86942758D01*
X148011905Y-86942758D02*
X147964286Y-87133234D01*
X147964286Y-87133234D02*
X147964286Y-87514186D01*
X147964286Y-87514186D02*
X148011905Y-87609424D01*
X148011905Y-87609424D02*
X148059524Y-87657044D01*
X148059524Y-87657044D02*
X148154762Y-87704663D01*
X148154762Y-87704663D02*
X148345238Y-87704663D01*
X148345238Y-87704663D02*
X148440476Y-87657044D01*
X148440476Y-87657044D02*
X148488095Y-87609424D01*
X148488095Y-87609424D02*
X148535714Y-87514186D01*
X148535714Y-87514186D02*
X148535714Y-87276091D01*
X148535714Y-87276091D02*
X148488095Y-87180853D01*
X148488095Y-87180853D02*
X148440476Y-87133234D01*
X148440476Y-87133234D02*
X148345238Y-87085615D01*
X148345238Y-87085615D02*
X148154762Y-87085615D01*
X148154762Y-87085615D02*
X148059524Y-87133234D01*
X148059524Y-87133234D02*
X148011905Y-87180853D01*
X148011905Y-87180853D02*
X147964286Y-87276091D01*
X161466666Y-107954663D02*
X161466666Y-108668948D01*
X161466666Y-108668948D02*
X161419047Y-108811805D01*
X161419047Y-108811805D02*
X161323809Y-108907044D01*
X161323809Y-108907044D02*
X161180952Y-108954663D01*
X161180952Y-108954663D02*
X161085714Y-108954663D01*
X162466666Y-108954663D02*
X161895238Y-108954663D01*
X162180952Y-108954663D02*
X162180952Y-107954663D01*
X162180952Y-107954663D02*
X162085714Y-108097520D01*
X162085714Y-108097520D02*
X161990476Y-108192758D01*
X161990476Y-108192758D02*
X161895238Y-108240377D01*
X185407142Y-73879663D02*
X185073809Y-73403472D01*
X184835714Y-73879663D02*
X184835714Y-72879663D01*
X184835714Y-72879663D02*
X185216666Y-72879663D01*
X185216666Y-72879663D02*
X185311904Y-72927282D01*
X185311904Y-72927282D02*
X185359523Y-72974901D01*
X185359523Y-72974901D02*
X185407142Y-73070139D01*
X185407142Y-73070139D02*
X185407142Y-73212996D01*
X185407142Y-73212996D02*
X185359523Y-73308234D01*
X185359523Y-73308234D02*
X185311904Y-73355853D01*
X185311904Y-73355853D02*
X185216666Y-73403472D01*
X185216666Y-73403472D02*
X184835714Y-73403472D01*
X186359523Y-73879663D02*
X185788095Y-73879663D01*
X186073809Y-73879663D02*
X186073809Y-72879663D01*
X186073809Y-72879663D02*
X185978571Y-73022520D01*
X185978571Y-73022520D02*
X185883333Y-73117758D01*
X185883333Y-73117758D02*
X185788095Y-73165377D01*
X186692857Y-72879663D02*
X187359523Y-72879663D01*
X187359523Y-72879663D02*
X186930952Y-73879663D01*
X183833333Y-86359424D02*
X183785714Y-86407044D01*
X183785714Y-86407044D02*
X183642857Y-86454663D01*
X183642857Y-86454663D02*
X183547619Y-86454663D01*
X183547619Y-86454663D02*
X183404762Y-86407044D01*
X183404762Y-86407044D02*
X183309524Y-86311805D01*
X183309524Y-86311805D02*
X183261905Y-86216567D01*
X183261905Y-86216567D02*
X183214286Y-86026091D01*
X183214286Y-86026091D02*
X183214286Y-85883234D01*
X183214286Y-85883234D02*
X183261905Y-85692758D01*
X183261905Y-85692758D02*
X183309524Y-85597520D01*
X183309524Y-85597520D02*
X183404762Y-85502282D01*
X183404762Y-85502282D02*
X183547619Y-85454663D01*
X183547619Y-85454663D02*
X183642857Y-85454663D01*
X183642857Y-85454663D02*
X183785714Y-85502282D01*
X183785714Y-85502282D02*
X183833333Y-85549901D01*
X184785714Y-86454663D02*
X184214286Y-86454663D01*
X184500000Y-86454663D02*
X184500000Y-85454663D01*
X184500000Y-85454663D02*
X184404762Y-85597520D01*
X184404762Y-85597520D02*
X184309524Y-85692758D01*
X184309524Y-85692758D02*
X184214286Y-85740377D01*
X161357142Y-83709424D02*
X161309523Y-83757044D01*
X161309523Y-83757044D02*
X161166666Y-83804663D01*
X161166666Y-83804663D02*
X161071428Y-83804663D01*
X161071428Y-83804663D02*
X160928571Y-83757044D01*
X160928571Y-83757044D02*
X160833333Y-83661805D01*
X160833333Y-83661805D02*
X160785714Y-83566567D01*
X160785714Y-83566567D02*
X160738095Y-83376091D01*
X160738095Y-83376091D02*
X160738095Y-83233234D01*
X160738095Y-83233234D02*
X160785714Y-83042758D01*
X160785714Y-83042758D02*
X160833333Y-82947520D01*
X160833333Y-82947520D02*
X160928571Y-82852282D01*
X160928571Y-82852282D02*
X161071428Y-82804663D01*
X161071428Y-82804663D02*
X161166666Y-82804663D01*
X161166666Y-82804663D02*
X161309523Y-82852282D01*
X161309523Y-82852282D02*
X161357142Y-82899901D01*
X162309523Y-83804663D02*
X161738095Y-83804663D01*
X162023809Y-83804663D02*
X162023809Y-82804663D01*
X162023809Y-82804663D02*
X161928571Y-82947520D01*
X161928571Y-82947520D02*
X161833333Y-83042758D01*
X161833333Y-83042758D02*
X161738095Y-83090377D01*
X163261904Y-83804663D02*
X162690476Y-83804663D01*
X162976190Y-83804663D02*
X162976190Y-82804663D01*
X162976190Y-82804663D02*
X162880952Y-82947520D01*
X162880952Y-82947520D02*
X162785714Y-83042758D01*
X162785714Y-83042758D02*
X162690476Y-83090377D01*
X154204663Y-94416666D02*
X153728472Y-94749999D01*
X154204663Y-94988094D02*
X153204663Y-94988094D01*
X153204663Y-94988094D02*
X153204663Y-94607142D01*
X153204663Y-94607142D02*
X153252282Y-94511904D01*
X153252282Y-94511904D02*
X153299901Y-94464285D01*
X153299901Y-94464285D02*
X153395139Y-94416666D01*
X153395139Y-94416666D02*
X153537996Y-94416666D01*
X153537996Y-94416666D02*
X153633234Y-94464285D01*
X153633234Y-94464285D02*
X153680853Y-94511904D01*
X153680853Y-94511904D02*
X153728472Y-94607142D01*
X153728472Y-94607142D02*
X153728472Y-94988094D01*
X153537996Y-93559523D02*
X154204663Y-93559523D01*
X153157044Y-93797618D02*
X153871329Y-94035713D01*
X153871329Y-94035713D02*
X153871329Y-93416666D01*
X144964285Y-92930853D02*
X145107142Y-92978472D01*
X145107142Y-92978472D02*
X145154761Y-93026091D01*
X145154761Y-93026091D02*
X145202380Y-93121329D01*
X145202380Y-93121329D02*
X145202380Y-93264186D01*
X145202380Y-93264186D02*
X145154761Y-93359424D01*
X145154761Y-93359424D02*
X145107142Y-93407044D01*
X145107142Y-93407044D02*
X145011904Y-93454663D01*
X145011904Y-93454663D02*
X144630952Y-93454663D01*
X144630952Y-93454663D02*
X144630952Y-92454663D01*
X144630952Y-92454663D02*
X144964285Y-92454663D01*
X144964285Y-92454663D02*
X145059523Y-92502282D01*
X145059523Y-92502282D02*
X145107142Y-92549901D01*
X145107142Y-92549901D02*
X145154761Y-92645139D01*
X145154761Y-92645139D02*
X145154761Y-92740377D01*
X145154761Y-92740377D02*
X145107142Y-92835615D01*
X145107142Y-92835615D02*
X145059523Y-92883234D01*
X145059523Y-92883234D02*
X144964285Y-92930853D01*
X144964285Y-92930853D02*
X144630952Y-92930853D01*
X145488095Y-92454663D02*
X146059523Y-92454663D01*
X145773809Y-93454663D02*
X145773809Y-92454663D01*
X146916666Y-93454663D02*
X146345238Y-93454663D01*
X146630952Y-93454663D02*
X146630952Y-92454663D01*
X146630952Y-92454663D02*
X146535714Y-92597520D01*
X146535714Y-92597520D02*
X146440476Y-92692758D01*
X146440476Y-92692758D02*
X146345238Y-92740377D01*
X159628095Y-86854663D02*
X159628095Y-87664186D01*
X159628095Y-87664186D02*
X159675714Y-87759424D01*
X159675714Y-87759424D02*
X159723333Y-87807044D01*
X159723333Y-87807044D02*
X159818571Y-87854663D01*
X159818571Y-87854663D02*
X160009047Y-87854663D01*
X160009047Y-87854663D02*
X160104285Y-87807044D01*
X160104285Y-87807044D02*
X160151904Y-87759424D01*
X160151904Y-87759424D02*
X160199523Y-87664186D01*
X160199523Y-87664186D02*
X160199523Y-86854663D01*
X160580476Y-86854663D02*
X161199523Y-86854663D01*
X161199523Y-86854663D02*
X160866190Y-87235615D01*
X160866190Y-87235615D02*
X161009047Y-87235615D01*
X161009047Y-87235615D02*
X161104285Y-87283234D01*
X161104285Y-87283234D02*
X161151904Y-87330853D01*
X161151904Y-87330853D02*
X161199523Y-87426091D01*
X161199523Y-87426091D02*
X161199523Y-87664186D01*
X161199523Y-87664186D02*
X161151904Y-87759424D01*
X161151904Y-87759424D02*
X161104285Y-87807044D01*
X161104285Y-87807044D02*
X161009047Y-87854663D01*
X161009047Y-87854663D02*
X160723333Y-87854663D01*
X160723333Y-87854663D02*
X160628095Y-87807044D01*
X160628095Y-87807044D02*
X160580476Y-87759424D01*
X145383333Y-78409424D02*
X145335714Y-78457044D01*
X145335714Y-78457044D02*
X145192857Y-78504663D01*
X145192857Y-78504663D02*
X145097619Y-78504663D01*
X145097619Y-78504663D02*
X144954762Y-78457044D01*
X144954762Y-78457044D02*
X144859524Y-78361805D01*
X144859524Y-78361805D02*
X144811905Y-78266567D01*
X144811905Y-78266567D02*
X144764286Y-78076091D01*
X144764286Y-78076091D02*
X144764286Y-77933234D01*
X144764286Y-77933234D02*
X144811905Y-77742758D01*
X144811905Y-77742758D02*
X144859524Y-77647520D01*
X144859524Y-77647520D02*
X144954762Y-77552282D01*
X144954762Y-77552282D02*
X145097619Y-77504663D01*
X145097619Y-77504663D02*
X145192857Y-77504663D01*
X145192857Y-77504663D02*
X145335714Y-77552282D01*
X145335714Y-77552282D02*
X145383333Y-77599901D01*
X145954762Y-77933234D02*
X145859524Y-77885615D01*
X145859524Y-77885615D02*
X145811905Y-77837996D01*
X145811905Y-77837996D02*
X145764286Y-77742758D01*
X145764286Y-77742758D02*
X145764286Y-77695139D01*
X145764286Y-77695139D02*
X145811905Y-77599901D01*
X145811905Y-77599901D02*
X145859524Y-77552282D01*
X145859524Y-77552282D02*
X145954762Y-77504663D01*
X145954762Y-77504663D02*
X146145238Y-77504663D01*
X146145238Y-77504663D02*
X146240476Y-77552282D01*
X146240476Y-77552282D02*
X146288095Y-77599901D01*
X146288095Y-77599901D02*
X146335714Y-77695139D01*
X146335714Y-77695139D02*
X146335714Y-77742758D01*
X146335714Y-77742758D02*
X146288095Y-77837996D01*
X146288095Y-77837996D02*
X146240476Y-77885615D01*
X146240476Y-77885615D02*
X146145238Y-77933234D01*
X146145238Y-77933234D02*
X145954762Y-77933234D01*
X145954762Y-77933234D02*
X145859524Y-77980853D01*
X145859524Y-77980853D02*
X145811905Y-78028472D01*
X145811905Y-78028472D02*
X145764286Y-78123710D01*
X145764286Y-78123710D02*
X145764286Y-78314186D01*
X145764286Y-78314186D02*
X145811905Y-78409424D01*
X145811905Y-78409424D02*
X145859524Y-78457044D01*
X145859524Y-78457044D02*
X145954762Y-78504663D01*
X145954762Y-78504663D02*
X146145238Y-78504663D01*
X146145238Y-78504663D02*
X146240476Y-78457044D01*
X146240476Y-78457044D02*
X146288095Y-78409424D01*
X146288095Y-78409424D02*
X146335714Y-78314186D01*
X146335714Y-78314186D02*
X146335714Y-78123710D01*
X146335714Y-78123710D02*
X146288095Y-78028472D01*
X146288095Y-78028472D02*
X146240476Y-77980853D01*
X146240476Y-77980853D02*
X146145238Y-77933234D01*
X182999424Y-93392857D02*
X183047044Y-93440476D01*
X183047044Y-93440476D02*
X183094663Y-93583333D01*
X183094663Y-93583333D02*
X183094663Y-93678571D01*
X183094663Y-93678571D02*
X183047044Y-93821428D01*
X183047044Y-93821428D02*
X182951805Y-93916666D01*
X182951805Y-93916666D02*
X182856567Y-93964285D01*
X182856567Y-93964285D02*
X182666091Y-94011904D01*
X182666091Y-94011904D02*
X182523234Y-94011904D01*
X182523234Y-94011904D02*
X182332758Y-93964285D01*
X182332758Y-93964285D02*
X182237520Y-93916666D01*
X182237520Y-93916666D02*
X182142282Y-93821428D01*
X182142282Y-93821428D02*
X182094663Y-93678571D01*
X182094663Y-93678571D02*
X182094663Y-93583333D01*
X182094663Y-93583333D02*
X182142282Y-93440476D01*
X182142282Y-93440476D02*
X182189901Y-93392857D01*
X183094663Y-92440476D02*
X183094663Y-93011904D01*
X183094663Y-92726190D02*
X182094663Y-92726190D01*
X182094663Y-92726190D02*
X182237520Y-92821428D01*
X182237520Y-92821428D02*
X182332758Y-92916666D01*
X182332758Y-92916666D02*
X182380377Y-93011904D01*
X182189901Y-92059523D02*
X182142282Y-92011904D01*
X182142282Y-92011904D02*
X182094663Y-91916666D01*
X182094663Y-91916666D02*
X182094663Y-91678571D01*
X182094663Y-91678571D02*
X182142282Y-91583333D01*
X182142282Y-91583333D02*
X182189901Y-91535714D01*
X182189901Y-91535714D02*
X182285139Y-91488095D01*
X182285139Y-91488095D02*
X182380377Y-91488095D01*
X182380377Y-91488095D02*
X182523234Y-91535714D01*
X182523234Y-91535714D02*
X183094663Y-92107142D01*
X183094663Y-92107142D02*
X183094663Y-91488095D01*
X187157142Y-101704663D02*
X186823809Y-101228472D01*
X186585714Y-101704663D02*
X186585714Y-100704663D01*
X186585714Y-100704663D02*
X186966666Y-100704663D01*
X186966666Y-100704663D02*
X187061904Y-100752282D01*
X187061904Y-100752282D02*
X187109523Y-100799901D01*
X187109523Y-100799901D02*
X187157142Y-100895139D01*
X187157142Y-100895139D02*
X187157142Y-101037996D01*
X187157142Y-101037996D02*
X187109523Y-101133234D01*
X187109523Y-101133234D02*
X187061904Y-101180853D01*
X187061904Y-101180853D02*
X186966666Y-101228472D01*
X186966666Y-101228472D02*
X186585714Y-101228472D01*
X188109523Y-101704663D02*
X187538095Y-101704663D01*
X187823809Y-101704663D02*
X187823809Y-100704663D01*
X187823809Y-100704663D02*
X187728571Y-100847520D01*
X187728571Y-100847520D02*
X187633333Y-100942758D01*
X187633333Y-100942758D02*
X187538095Y-100990377D01*
X188680952Y-101133234D02*
X188585714Y-101085615D01*
X188585714Y-101085615D02*
X188538095Y-101037996D01*
X188538095Y-101037996D02*
X188490476Y-100942758D01*
X188490476Y-100942758D02*
X188490476Y-100895139D01*
X188490476Y-100895139D02*
X188538095Y-100799901D01*
X188538095Y-100799901D02*
X188585714Y-100752282D01*
X188585714Y-100752282D02*
X188680952Y-100704663D01*
X188680952Y-100704663D02*
X188871428Y-100704663D01*
X188871428Y-100704663D02*
X188966666Y-100752282D01*
X188966666Y-100752282D02*
X189014285Y-100799901D01*
X189014285Y-100799901D02*
X189061904Y-100895139D01*
X189061904Y-100895139D02*
X189061904Y-100942758D01*
X189061904Y-100942758D02*
X189014285Y-101037996D01*
X189014285Y-101037996D02*
X188966666Y-101085615D01*
X188966666Y-101085615D02*
X188871428Y-101133234D01*
X188871428Y-101133234D02*
X188680952Y-101133234D01*
X188680952Y-101133234D02*
X188585714Y-101180853D01*
X188585714Y-101180853D02*
X188538095Y-101228472D01*
X188538095Y-101228472D02*
X188490476Y-101323710D01*
X188490476Y-101323710D02*
X188490476Y-101514186D01*
X188490476Y-101514186D02*
X188538095Y-101609424D01*
X188538095Y-101609424D02*
X188585714Y-101657044D01*
X188585714Y-101657044D02*
X188680952Y-101704663D01*
X188680952Y-101704663D02*
X188871428Y-101704663D01*
X188871428Y-101704663D02*
X188966666Y-101657044D01*
X188966666Y-101657044D02*
X189014285Y-101609424D01*
X189014285Y-101609424D02*
X189061904Y-101514186D01*
X189061904Y-101514186D02*
X189061904Y-101323710D01*
X189061904Y-101323710D02*
X189014285Y-101228472D01*
X189014285Y-101228472D02*
X188966666Y-101180853D01*
X188966666Y-101180853D02*
X188871428Y-101133234D01*
X161157142Y-77709424D02*
X161109523Y-77757044D01*
X161109523Y-77757044D02*
X160966666Y-77804663D01*
X160966666Y-77804663D02*
X160871428Y-77804663D01*
X160871428Y-77804663D02*
X160728571Y-77757044D01*
X160728571Y-77757044D02*
X160633333Y-77661805D01*
X160633333Y-77661805D02*
X160585714Y-77566567D01*
X160585714Y-77566567D02*
X160538095Y-77376091D01*
X160538095Y-77376091D02*
X160538095Y-77233234D01*
X160538095Y-77233234D02*
X160585714Y-77042758D01*
X160585714Y-77042758D02*
X160633333Y-76947520D01*
X160633333Y-76947520D02*
X160728571Y-76852282D01*
X160728571Y-76852282D02*
X160871428Y-76804663D01*
X160871428Y-76804663D02*
X160966666Y-76804663D01*
X160966666Y-76804663D02*
X161109523Y-76852282D01*
X161109523Y-76852282D02*
X161157142Y-76899901D01*
X162109523Y-77804663D02*
X161538095Y-77804663D01*
X161823809Y-77804663D02*
X161823809Y-76804663D01*
X161823809Y-76804663D02*
X161728571Y-76947520D01*
X161728571Y-76947520D02*
X161633333Y-77042758D01*
X161633333Y-77042758D02*
X161538095Y-77090377D01*
X162728571Y-76804663D02*
X162823809Y-76804663D01*
X162823809Y-76804663D02*
X162919047Y-76852282D01*
X162919047Y-76852282D02*
X162966666Y-76899901D01*
X162966666Y-76899901D02*
X163014285Y-76995139D01*
X163014285Y-76995139D02*
X163061904Y-77185615D01*
X163061904Y-77185615D02*
X163061904Y-77423710D01*
X163061904Y-77423710D02*
X163014285Y-77614186D01*
X163014285Y-77614186D02*
X162966666Y-77709424D01*
X162966666Y-77709424D02*
X162919047Y-77757044D01*
X162919047Y-77757044D02*
X162823809Y-77804663D01*
X162823809Y-77804663D02*
X162728571Y-77804663D01*
X162728571Y-77804663D02*
X162633333Y-77757044D01*
X162633333Y-77757044D02*
X162585714Y-77709424D01*
X162585714Y-77709424D02*
X162538095Y-77614186D01*
X162538095Y-77614186D02*
X162490476Y-77423710D01*
X162490476Y-77423710D02*
X162490476Y-77185615D01*
X162490476Y-77185615D02*
X162538095Y-76995139D01*
X162538095Y-76995139D02*
X162585714Y-76899901D01*
X162585714Y-76899901D02*
X162633333Y-76852282D01*
X162633333Y-76852282D02*
X162728571Y-76804663D01*
X178833333Y-101859424D02*
X178785714Y-101907044D01*
X178785714Y-101907044D02*
X178642857Y-101954663D01*
X178642857Y-101954663D02*
X178547619Y-101954663D01*
X178547619Y-101954663D02*
X178404762Y-101907044D01*
X178404762Y-101907044D02*
X178309524Y-101811805D01*
X178309524Y-101811805D02*
X178261905Y-101716567D01*
X178261905Y-101716567D02*
X178214286Y-101526091D01*
X178214286Y-101526091D02*
X178214286Y-101383234D01*
X178214286Y-101383234D02*
X178261905Y-101192758D01*
X178261905Y-101192758D02*
X178309524Y-101097520D01*
X178309524Y-101097520D02*
X178404762Y-101002282D01*
X178404762Y-101002282D02*
X178547619Y-100954663D01*
X178547619Y-100954663D02*
X178642857Y-100954663D01*
X178642857Y-100954663D02*
X178785714Y-101002282D01*
X178785714Y-101002282D02*
X178833333Y-101049901D01*
X179833333Y-101954663D02*
X179500000Y-101478472D01*
X179261905Y-101954663D02*
X179261905Y-100954663D01*
X179261905Y-100954663D02*
X179642857Y-100954663D01*
X179642857Y-100954663D02*
X179738095Y-101002282D01*
X179738095Y-101002282D02*
X179785714Y-101049901D01*
X179785714Y-101049901D02*
X179833333Y-101145139D01*
X179833333Y-101145139D02*
X179833333Y-101287996D01*
X179833333Y-101287996D02*
X179785714Y-101383234D01*
X179785714Y-101383234D02*
X179738095Y-101430853D01*
X179738095Y-101430853D02*
X179642857Y-101478472D01*
X179642857Y-101478472D02*
X179261905Y-101478472D01*
X180785714Y-101954663D02*
X180214286Y-101954663D01*
X180500000Y-101954663D02*
X180500000Y-100954663D01*
X180500000Y-100954663D02*
X180404762Y-101097520D01*
X180404762Y-101097520D02*
X180309524Y-101192758D01*
X180309524Y-101192758D02*
X180214286Y-101240377D01*
X145888095Y-82354663D02*
X145888095Y-83164186D01*
X145888095Y-83164186D02*
X145935714Y-83259424D01*
X145935714Y-83259424D02*
X145983333Y-83307044D01*
X145983333Y-83307044D02*
X146078571Y-83354663D01*
X146078571Y-83354663D02*
X146269047Y-83354663D01*
X146269047Y-83354663D02*
X146364285Y-83307044D01*
X146364285Y-83307044D02*
X146411904Y-83259424D01*
X146411904Y-83259424D02*
X146459523Y-83164186D01*
X146459523Y-83164186D02*
X146459523Y-82354663D01*
X147364285Y-82687996D02*
X147364285Y-83354663D01*
X147126190Y-82307044D02*
X146888095Y-83021329D01*
X146888095Y-83021329D02*
X147507142Y-83021329D01*
X208007142Y-71534424D02*
X207959523Y-71582044D01*
X207959523Y-71582044D02*
X207816666Y-71629663D01*
X207816666Y-71629663D02*
X207721428Y-71629663D01*
X207721428Y-71629663D02*
X207578571Y-71582044D01*
X207578571Y-71582044D02*
X207483333Y-71486805D01*
X207483333Y-71486805D02*
X207435714Y-71391567D01*
X207435714Y-71391567D02*
X207388095Y-71201091D01*
X207388095Y-71201091D02*
X207388095Y-71058234D01*
X207388095Y-71058234D02*
X207435714Y-70867758D01*
X207435714Y-70867758D02*
X207483333Y-70772520D01*
X207483333Y-70772520D02*
X207578571Y-70677282D01*
X207578571Y-70677282D02*
X207721428Y-70629663D01*
X207721428Y-70629663D02*
X207816666Y-70629663D01*
X207816666Y-70629663D02*
X207959523Y-70677282D01*
X207959523Y-70677282D02*
X208007142Y-70724901D01*
X208959523Y-71629663D02*
X208388095Y-71629663D01*
X208673809Y-71629663D02*
X208673809Y-70629663D01*
X208673809Y-70629663D02*
X208578571Y-70772520D01*
X208578571Y-70772520D02*
X208483333Y-70867758D01*
X208483333Y-70867758D02*
X208388095Y-70915377D01*
X209816666Y-70962996D02*
X209816666Y-71629663D01*
X209578571Y-70582044D02*
X209340476Y-71296329D01*
X209340476Y-71296329D02*
X209959523Y-71296329D01*
X149916666Y-95180853D02*
X149583333Y-95180853D01*
X149583333Y-95704663D02*
X149583333Y-94704663D01*
X149583333Y-94704663D02*
X150059523Y-94704663D01*
X150964285Y-95704663D02*
X150392857Y-95704663D01*
X150678571Y-95704663D02*
X150678571Y-94704663D01*
X150678571Y-94704663D02*
X150583333Y-94847520D01*
X150583333Y-94847520D02*
X150488095Y-94942758D01*
X150488095Y-94942758D02*
X150392857Y-94990377D01*
X158533333Y-77709424D02*
X158485714Y-77757044D01*
X158485714Y-77757044D02*
X158342857Y-77804663D01*
X158342857Y-77804663D02*
X158247619Y-77804663D01*
X158247619Y-77804663D02*
X158104762Y-77757044D01*
X158104762Y-77757044D02*
X158009524Y-77661805D01*
X158009524Y-77661805D02*
X157961905Y-77566567D01*
X157961905Y-77566567D02*
X157914286Y-77376091D01*
X157914286Y-77376091D02*
X157914286Y-77233234D01*
X157914286Y-77233234D02*
X157961905Y-77042758D01*
X157961905Y-77042758D02*
X158009524Y-76947520D01*
X158009524Y-76947520D02*
X158104762Y-76852282D01*
X158104762Y-76852282D02*
X158247619Y-76804663D01*
X158247619Y-76804663D02*
X158342857Y-76804663D01*
X158342857Y-76804663D02*
X158485714Y-76852282D01*
X158485714Y-76852282D02*
X158533333Y-76899901D01*
X159009524Y-77804663D02*
X159200000Y-77804663D01*
X159200000Y-77804663D02*
X159295238Y-77757044D01*
X159295238Y-77757044D02*
X159342857Y-77709424D01*
X159342857Y-77709424D02*
X159438095Y-77566567D01*
X159438095Y-77566567D02*
X159485714Y-77376091D01*
X159485714Y-77376091D02*
X159485714Y-76995139D01*
X159485714Y-76995139D02*
X159438095Y-76899901D01*
X159438095Y-76899901D02*
X159390476Y-76852282D01*
X159390476Y-76852282D02*
X159295238Y-76804663D01*
X159295238Y-76804663D02*
X159104762Y-76804663D01*
X159104762Y-76804663D02*
X159009524Y-76852282D01*
X159009524Y-76852282D02*
X158961905Y-76899901D01*
X158961905Y-76899901D02*
X158914286Y-76995139D01*
X158914286Y-76995139D02*
X158914286Y-77233234D01*
X158914286Y-77233234D02*
X158961905Y-77328472D01*
X158961905Y-77328472D02*
X159009524Y-77376091D01*
X159009524Y-77376091D02*
X159104762Y-77423710D01*
X159104762Y-77423710D02*
X159295238Y-77423710D01*
X159295238Y-77423710D02*
X159390476Y-77376091D01*
X159390476Y-77376091D02*
X159438095Y-77328472D01*
X159438095Y-77328472D02*
X159485714Y-77233234D01*
X190333333Y-90454663D02*
X190000000Y-89978472D01*
X189761905Y-90454663D02*
X189761905Y-89454663D01*
X189761905Y-89454663D02*
X190142857Y-89454663D01*
X190142857Y-89454663D02*
X190238095Y-89502282D01*
X190238095Y-89502282D02*
X190285714Y-89549901D01*
X190285714Y-89549901D02*
X190333333Y-89645139D01*
X190333333Y-89645139D02*
X190333333Y-89787996D01*
X190333333Y-89787996D02*
X190285714Y-89883234D01*
X190285714Y-89883234D02*
X190238095Y-89930853D01*
X190238095Y-89930853D02*
X190142857Y-89978472D01*
X190142857Y-89978472D02*
X189761905Y-89978472D01*
X190714286Y-89549901D02*
X190761905Y-89502282D01*
X190761905Y-89502282D02*
X190857143Y-89454663D01*
X190857143Y-89454663D02*
X191095238Y-89454663D01*
X191095238Y-89454663D02*
X191190476Y-89502282D01*
X191190476Y-89502282D02*
X191238095Y-89549901D01*
X191238095Y-89549901D02*
X191285714Y-89645139D01*
X191285714Y-89645139D02*
X191285714Y-89740377D01*
X191285714Y-89740377D02*
X191238095Y-89883234D01*
X191238095Y-89883234D02*
X190666667Y-90454663D01*
X190666667Y-90454663D02*
X191285714Y-90454663D01*
X166807142Y-88254663D02*
X166473809Y-87778472D01*
X166235714Y-88254663D02*
X166235714Y-87254663D01*
X166235714Y-87254663D02*
X166616666Y-87254663D01*
X166616666Y-87254663D02*
X166711904Y-87302282D01*
X166711904Y-87302282D02*
X166759523Y-87349901D01*
X166759523Y-87349901D02*
X166807142Y-87445139D01*
X166807142Y-87445139D02*
X166807142Y-87587996D01*
X166807142Y-87587996D02*
X166759523Y-87683234D01*
X166759523Y-87683234D02*
X166711904Y-87730853D01*
X166711904Y-87730853D02*
X166616666Y-87778472D01*
X166616666Y-87778472D02*
X166235714Y-87778472D01*
X167759523Y-88254663D02*
X167188095Y-88254663D01*
X167473809Y-88254663D02*
X167473809Y-87254663D01*
X167473809Y-87254663D02*
X167378571Y-87397520D01*
X167378571Y-87397520D02*
X167283333Y-87492758D01*
X167283333Y-87492758D02*
X167188095Y-87540377D01*
X168140476Y-87349901D02*
X168188095Y-87302282D01*
X168188095Y-87302282D02*
X168283333Y-87254663D01*
X168283333Y-87254663D02*
X168521428Y-87254663D01*
X168521428Y-87254663D02*
X168616666Y-87302282D01*
X168616666Y-87302282D02*
X168664285Y-87349901D01*
X168664285Y-87349901D02*
X168711904Y-87445139D01*
X168711904Y-87445139D02*
X168711904Y-87540377D01*
X168711904Y-87540377D02*
X168664285Y-87683234D01*
X168664285Y-87683234D02*
X168092857Y-88254663D01*
X168092857Y-88254663D02*
X168711904Y-88254663D01*
X156833333Y-88204663D02*
X156500000Y-87728472D01*
X156261905Y-88204663D02*
X156261905Y-87204663D01*
X156261905Y-87204663D02*
X156642857Y-87204663D01*
X156642857Y-87204663D02*
X156738095Y-87252282D01*
X156738095Y-87252282D02*
X156785714Y-87299901D01*
X156785714Y-87299901D02*
X156833333Y-87395139D01*
X156833333Y-87395139D02*
X156833333Y-87537996D01*
X156833333Y-87537996D02*
X156785714Y-87633234D01*
X156785714Y-87633234D02*
X156738095Y-87680853D01*
X156738095Y-87680853D02*
X156642857Y-87728472D01*
X156642857Y-87728472D02*
X156261905Y-87728472D01*
X157309524Y-88204663D02*
X157500000Y-88204663D01*
X157500000Y-88204663D02*
X157595238Y-88157044D01*
X157595238Y-88157044D02*
X157642857Y-88109424D01*
X157642857Y-88109424D02*
X157738095Y-87966567D01*
X157738095Y-87966567D02*
X157785714Y-87776091D01*
X157785714Y-87776091D02*
X157785714Y-87395139D01*
X157785714Y-87395139D02*
X157738095Y-87299901D01*
X157738095Y-87299901D02*
X157690476Y-87252282D01*
X157690476Y-87252282D02*
X157595238Y-87204663D01*
X157595238Y-87204663D02*
X157404762Y-87204663D01*
X157404762Y-87204663D02*
X157309524Y-87252282D01*
X157309524Y-87252282D02*
X157261905Y-87299901D01*
X157261905Y-87299901D02*
X157214286Y-87395139D01*
X157214286Y-87395139D02*
X157214286Y-87633234D01*
X157214286Y-87633234D02*
X157261905Y-87728472D01*
X157261905Y-87728472D02*
X157309524Y-87776091D01*
X157309524Y-87776091D02*
X157404762Y-87823710D01*
X157404762Y-87823710D02*
X157595238Y-87823710D01*
X157595238Y-87823710D02*
X157690476Y-87776091D01*
X157690476Y-87776091D02*
X157738095Y-87728472D01*
X157738095Y-87728472D02*
X157785714Y-87633234D01*
X147583333Y-89609424D02*
X147535714Y-89657044D01*
X147535714Y-89657044D02*
X147392857Y-89704663D01*
X147392857Y-89704663D02*
X147297619Y-89704663D01*
X147297619Y-89704663D02*
X147154762Y-89657044D01*
X147154762Y-89657044D02*
X147059524Y-89561805D01*
X147059524Y-89561805D02*
X147011905Y-89466567D01*
X147011905Y-89466567D02*
X146964286Y-89276091D01*
X146964286Y-89276091D02*
X146964286Y-89133234D01*
X146964286Y-89133234D02*
X147011905Y-88942758D01*
X147011905Y-88942758D02*
X147059524Y-88847520D01*
X147059524Y-88847520D02*
X147154762Y-88752282D01*
X147154762Y-88752282D02*
X147297619Y-88704663D01*
X147297619Y-88704663D02*
X147392857Y-88704663D01*
X147392857Y-88704663D02*
X147535714Y-88752282D01*
X147535714Y-88752282D02*
X147583333Y-88799901D01*
X148488095Y-88704663D02*
X148011905Y-88704663D01*
X148011905Y-88704663D02*
X147964286Y-89180853D01*
X147964286Y-89180853D02*
X148011905Y-89133234D01*
X148011905Y-89133234D02*
X148107143Y-89085615D01*
X148107143Y-89085615D02*
X148345238Y-89085615D01*
X148345238Y-89085615D02*
X148440476Y-89133234D01*
X148440476Y-89133234D02*
X148488095Y-89180853D01*
X148488095Y-89180853D02*
X148535714Y-89276091D01*
X148535714Y-89276091D02*
X148535714Y-89514186D01*
X148535714Y-89514186D02*
X148488095Y-89609424D01*
X148488095Y-89609424D02*
X148440476Y-89657044D01*
X148440476Y-89657044D02*
X148345238Y-89704663D01*
X148345238Y-89704663D02*
X148107143Y-89704663D01*
X148107143Y-89704663D02*
X148011905Y-89657044D01*
X148011905Y-89657044D02*
X147964286Y-89609424D01*
X169483333Y-73404424D02*
X169435714Y-73452044D01*
X169435714Y-73452044D02*
X169292857Y-73499663D01*
X169292857Y-73499663D02*
X169197619Y-73499663D01*
X169197619Y-73499663D02*
X169054762Y-73452044D01*
X169054762Y-73452044D02*
X168959524Y-73356805D01*
X168959524Y-73356805D02*
X168911905Y-73261567D01*
X168911905Y-73261567D02*
X168864286Y-73071091D01*
X168864286Y-73071091D02*
X168864286Y-72928234D01*
X168864286Y-72928234D02*
X168911905Y-72737758D01*
X168911905Y-72737758D02*
X168959524Y-72642520D01*
X168959524Y-72642520D02*
X169054762Y-72547282D01*
X169054762Y-72547282D02*
X169197619Y-72499663D01*
X169197619Y-72499663D02*
X169292857Y-72499663D01*
X169292857Y-72499663D02*
X169435714Y-72547282D01*
X169435714Y-72547282D02*
X169483333Y-72594901D01*
X170340476Y-72832996D02*
X170340476Y-73499663D01*
X170102381Y-72452044D02*
X169864286Y-73166329D01*
X169864286Y-73166329D02*
X170483333Y-73166329D01*
X163507142Y-88204663D02*
X163173809Y-87728472D01*
X162935714Y-88204663D02*
X162935714Y-87204663D01*
X162935714Y-87204663D02*
X163316666Y-87204663D01*
X163316666Y-87204663D02*
X163411904Y-87252282D01*
X163411904Y-87252282D02*
X163459523Y-87299901D01*
X163459523Y-87299901D02*
X163507142Y-87395139D01*
X163507142Y-87395139D02*
X163507142Y-87537996D01*
X163507142Y-87537996D02*
X163459523Y-87633234D01*
X163459523Y-87633234D02*
X163411904Y-87680853D01*
X163411904Y-87680853D02*
X163316666Y-87728472D01*
X163316666Y-87728472D02*
X162935714Y-87728472D01*
X164459523Y-88204663D02*
X163888095Y-88204663D01*
X164173809Y-88204663D02*
X164173809Y-87204663D01*
X164173809Y-87204663D02*
X164078571Y-87347520D01*
X164078571Y-87347520D02*
X163983333Y-87442758D01*
X163983333Y-87442758D02*
X163888095Y-87490377D01*
X165411904Y-88204663D02*
X164840476Y-88204663D01*
X165126190Y-88204663D02*
X165126190Y-87204663D01*
X165126190Y-87204663D02*
X165030952Y-87347520D01*
X165030952Y-87347520D02*
X164935714Y-87442758D01*
X164935714Y-87442758D02*
X164840476Y-87490377D01*
X213907142Y-73384424D02*
X213859523Y-73432044D01*
X213859523Y-73432044D02*
X213716666Y-73479663D01*
X213716666Y-73479663D02*
X213621428Y-73479663D01*
X213621428Y-73479663D02*
X213478571Y-73432044D01*
X213478571Y-73432044D02*
X213383333Y-73336805D01*
X213383333Y-73336805D02*
X213335714Y-73241567D01*
X213335714Y-73241567D02*
X213288095Y-73051091D01*
X213288095Y-73051091D02*
X213288095Y-72908234D01*
X213288095Y-72908234D02*
X213335714Y-72717758D01*
X213335714Y-72717758D02*
X213383333Y-72622520D01*
X213383333Y-72622520D02*
X213478571Y-72527282D01*
X213478571Y-72527282D02*
X213621428Y-72479663D01*
X213621428Y-72479663D02*
X213716666Y-72479663D01*
X213716666Y-72479663D02*
X213859523Y-72527282D01*
X213859523Y-72527282D02*
X213907142Y-72574901D01*
X214859523Y-73479663D02*
X214288095Y-73479663D01*
X214573809Y-73479663D02*
X214573809Y-72479663D01*
X214573809Y-72479663D02*
X214478571Y-72622520D01*
X214478571Y-72622520D02*
X214383333Y-72717758D01*
X214383333Y-72717758D02*
X214288095Y-72765377D01*
X215192857Y-72479663D02*
X215811904Y-72479663D01*
X215811904Y-72479663D02*
X215478571Y-72860615D01*
X215478571Y-72860615D02*
X215621428Y-72860615D01*
X215621428Y-72860615D02*
X215716666Y-72908234D01*
X215716666Y-72908234D02*
X215764285Y-72955853D01*
X215764285Y-72955853D02*
X215811904Y-73051091D01*
X215811904Y-73051091D02*
X215811904Y-73289186D01*
X215811904Y-73289186D02*
X215764285Y-73384424D01*
X215764285Y-73384424D02*
X215716666Y-73432044D01*
X215716666Y-73432044D02*
X215621428Y-73479663D01*
X215621428Y-73479663D02*
X215335714Y-73479663D01*
X215335714Y-73479663D02*
X215240476Y-73432044D01*
X215240476Y-73432044D02*
X215192857Y-73384424D01*
X164333333Y-94204663D02*
X164000000Y-93728472D01*
X163761905Y-94204663D02*
X163761905Y-93204663D01*
X163761905Y-93204663D02*
X164142857Y-93204663D01*
X164142857Y-93204663D02*
X164238095Y-93252282D01*
X164238095Y-93252282D02*
X164285714Y-93299901D01*
X164285714Y-93299901D02*
X164333333Y-93395139D01*
X164333333Y-93395139D02*
X164333333Y-93537996D01*
X164333333Y-93537996D02*
X164285714Y-93633234D01*
X164285714Y-93633234D02*
X164238095Y-93680853D01*
X164238095Y-93680853D02*
X164142857Y-93728472D01*
X164142857Y-93728472D02*
X163761905Y-93728472D01*
X164666667Y-93204663D02*
X165333333Y-93204663D01*
X165333333Y-93204663D02*
X164904762Y-94204663D01*
X164333333Y-98204663D02*
X164000000Y-97728472D01*
X163761905Y-98204663D02*
X163761905Y-97204663D01*
X163761905Y-97204663D02*
X164142857Y-97204663D01*
X164142857Y-97204663D02*
X164238095Y-97252282D01*
X164238095Y-97252282D02*
X164285714Y-97299901D01*
X164285714Y-97299901D02*
X164333333Y-97395139D01*
X164333333Y-97395139D02*
X164333333Y-97537996D01*
X164333333Y-97537996D02*
X164285714Y-97633234D01*
X164285714Y-97633234D02*
X164238095Y-97680853D01*
X164238095Y-97680853D02*
X164142857Y-97728472D01*
X164142857Y-97728472D02*
X163761905Y-97728472D01*
X165238095Y-97204663D02*
X164761905Y-97204663D01*
X164761905Y-97204663D02*
X164714286Y-97680853D01*
X164714286Y-97680853D02*
X164761905Y-97633234D01*
X164761905Y-97633234D02*
X164857143Y-97585615D01*
X164857143Y-97585615D02*
X165095238Y-97585615D01*
X165095238Y-97585615D02*
X165190476Y-97633234D01*
X165190476Y-97633234D02*
X165238095Y-97680853D01*
X165238095Y-97680853D02*
X165285714Y-97776091D01*
X165285714Y-97776091D02*
X165285714Y-98014186D01*
X165285714Y-98014186D02*
X165238095Y-98109424D01*
X165238095Y-98109424D02*
X165190476Y-98157044D01*
X165190476Y-98157044D02*
X165095238Y-98204663D01*
X165095238Y-98204663D02*
X164857143Y-98204663D01*
X164857143Y-98204663D02*
X164761905Y-98157044D01*
X164761905Y-98157044D02*
X164714286Y-98109424D01*
X190083333Y-87954663D02*
X189750000Y-87478472D01*
X189511905Y-87954663D02*
X189511905Y-86954663D01*
X189511905Y-86954663D02*
X189892857Y-86954663D01*
X189892857Y-86954663D02*
X189988095Y-87002282D01*
X189988095Y-87002282D02*
X190035714Y-87049901D01*
X190035714Y-87049901D02*
X190083333Y-87145139D01*
X190083333Y-87145139D02*
X190083333Y-87287996D01*
X190083333Y-87287996D02*
X190035714Y-87383234D01*
X190035714Y-87383234D02*
X189988095Y-87430853D01*
X189988095Y-87430853D02*
X189892857Y-87478472D01*
X189892857Y-87478472D02*
X189511905Y-87478472D01*
X190416667Y-86954663D02*
X191035714Y-86954663D01*
X191035714Y-86954663D02*
X190702381Y-87335615D01*
X190702381Y-87335615D02*
X190845238Y-87335615D01*
X190845238Y-87335615D02*
X190940476Y-87383234D01*
X190940476Y-87383234D02*
X190988095Y-87430853D01*
X190988095Y-87430853D02*
X191035714Y-87526091D01*
X191035714Y-87526091D02*
X191035714Y-87764186D01*
X191035714Y-87764186D02*
X190988095Y-87859424D01*
X190988095Y-87859424D02*
X190940476Y-87907044D01*
X190940476Y-87907044D02*
X190845238Y-87954663D01*
X190845238Y-87954663D02*
X190559524Y-87954663D01*
X190559524Y-87954663D02*
X190464286Y-87907044D01*
X190464286Y-87907044D02*
X190416667Y-87859424D01*
X183466666Y-107604663D02*
X183466666Y-108318948D01*
X183466666Y-108318948D02*
X183419047Y-108461805D01*
X183419047Y-108461805D02*
X183323809Y-108557044D01*
X183323809Y-108557044D02*
X183180952Y-108604663D01*
X183180952Y-108604663D02*
X183085714Y-108604663D01*
X183895238Y-107699901D02*
X183942857Y-107652282D01*
X183942857Y-107652282D02*
X184038095Y-107604663D01*
X184038095Y-107604663D02*
X184276190Y-107604663D01*
X184276190Y-107604663D02*
X184371428Y-107652282D01*
X184371428Y-107652282D02*
X184419047Y-107699901D01*
X184419047Y-107699901D02*
X184466666Y-107795139D01*
X184466666Y-107795139D02*
X184466666Y-107890377D01*
X184466666Y-107890377D02*
X184419047Y-108033234D01*
X184419047Y-108033234D02*
X183847619Y-108604663D01*
X183847619Y-108604663D02*
X184466666Y-108604663D01*
X169404761Y-104549901D02*
X169309523Y-104502282D01*
X169309523Y-104502282D02*
X169214285Y-104407044D01*
X169214285Y-104407044D02*
X169071428Y-104264186D01*
X169071428Y-104264186D02*
X168976190Y-104216567D01*
X168976190Y-104216567D02*
X168880952Y-104216567D01*
X168928571Y-104454663D02*
X168833333Y-104407044D01*
X168833333Y-104407044D02*
X168738095Y-104311805D01*
X168738095Y-104311805D02*
X168690476Y-104121329D01*
X168690476Y-104121329D02*
X168690476Y-103787996D01*
X168690476Y-103787996D02*
X168738095Y-103597520D01*
X168738095Y-103597520D02*
X168833333Y-103502282D01*
X168833333Y-103502282D02*
X168928571Y-103454663D01*
X168928571Y-103454663D02*
X169119047Y-103454663D01*
X169119047Y-103454663D02*
X169214285Y-103502282D01*
X169214285Y-103502282D02*
X169309523Y-103597520D01*
X169309523Y-103597520D02*
X169357142Y-103787996D01*
X169357142Y-103787996D02*
X169357142Y-104121329D01*
X169357142Y-104121329D02*
X169309523Y-104311805D01*
X169309523Y-104311805D02*
X169214285Y-104407044D01*
X169214285Y-104407044D02*
X169119047Y-104454663D01*
X169119047Y-104454663D02*
X168928571Y-104454663D01*
X169738095Y-103549901D02*
X169785714Y-103502282D01*
X169785714Y-103502282D02*
X169880952Y-103454663D01*
X169880952Y-103454663D02*
X170119047Y-103454663D01*
X170119047Y-103454663D02*
X170214285Y-103502282D01*
X170214285Y-103502282D02*
X170261904Y-103549901D01*
X170261904Y-103549901D02*
X170309523Y-103645139D01*
X170309523Y-103645139D02*
X170309523Y-103740377D01*
X170309523Y-103740377D02*
X170261904Y-103883234D01*
X170261904Y-103883234D02*
X169690476Y-104454663D01*
X169690476Y-104454663D02*
X170309523Y-104454663D01*
X165083333Y-70859424D02*
X165035714Y-70907044D01*
X165035714Y-70907044D02*
X164892857Y-70954663D01*
X164892857Y-70954663D02*
X164797619Y-70954663D01*
X164797619Y-70954663D02*
X164654762Y-70907044D01*
X164654762Y-70907044D02*
X164559524Y-70811805D01*
X164559524Y-70811805D02*
X164511905Y-70716567D01*
X164511905Y-70716567D02*
X164464286Y-70526091D01*
X164464286Y-70526091D02*
X164464286Y-70383234D01*
X164464286Y-70383234D02*
X164511905Y-70192758D01*
X164511905Y-70192758D02*
X164559524Y-70097520D01*
X164559524Y-70097520D02*
X164654762Y-70002282D01*
X164654762Y-70002282D02*
X164797619Y-69954663D01*
X164797619Y-69954663D02*
X164892857Y-69954663D01*
X164892857Y-69954663D02*
X165035714Y-70002282D01*
X165035714Y-70002282D02*
X165083333Y-70049901D01*
X165464286Y-70049901D02*
X165511905Y-70002282D01*
X165511905Y-70002282D02*
X165607143Y-69954663D01*
X165607143Y-69954663D02*
X165845238Y-69954663D01*
X165845238Y-69954663D02*
X165940476Y-70002282D01*
X165940476Y-70002282D02*
X165988095Y-70049901D01*
X165988095Y-70049901D02*
X166035714Y-70145139D01*
X166035714Y-70145139D02*
X166035714Y-70240377D01*
X166035714Y-70240377D02*
X165988095Y-70383234D01*
X165988095Y-70383234D02*
X165416667Y-70954663D01*
X165416667Y-70954663D02*
X166035714Y-70954663D01*
X155833333Y-71204663D02*
X155357143Y-71204663D01*
X155357143Y-71204663D02*
X155357143Y-70204663D01*
X156690476Y-71204663D02*
X156119048Y-71204663D01*
X156404762Y-71204663D02*
X156404762Y-70204663D01*
X156404762Y-70204663D02*
X156309524Y-70347520D01*
X156309524Y-70347520D02*
X156214286Y-70442758D01*
X156214286Y-70442758D02*
X156119048Y-70490377D01*
X157883333Y-84504663D02*
X157550000Y-84028472D01*
X157311905Y-84504663D02*
X157311905Y-83504663D01*
X157311905Y-83504663D02*
X157692857Y-83504663D01*
X157692857Y-83504663D02*
X157788095Y-83552282D01*
X157788095Y-83552282D02*
X157835714Y-83599901D01*
X157835714Y-83599901D02*
X157883333Y-83695139D01*
X157883333Y-83695139D02*
X157883333Y-83837996D01*
X157883333Y-83837996D02*
X157835714Y-83933234D01*
X157835714Y-83933234D02*
X157788095Y-83980853D01*
X157788095Y-83980853D02*
X157692857Y-84028472D01*
X157692857Y-84028472D02*
X157311905Y-84028472D01*
X158454762Y-83933234D02*
X158359524Y-83885615D01*
X158359524Y-83885615D02*
X158311905Y-83837996D01*
X158311905Y-83837996D02*
X158264286Y-83742758D01*
X158264286Y-83742758D02*
X158264286Y-83695139D01*
X158264286Y-83695139D02*
X158311905Y-83599901D01*
X158311905Y-83599901D02*
X158359524Y-83552282D01*
X158359524Y-83552282D02*
X158454762Y-83504663D01*
X158454762Y-83504663D02*
X158645238Y-83504663D01*
X158645238Y-83504663D02*
X158740476Y-83552282D01*
X158740476Y-83552282D02*
X158788095Y-83599901D01*
X158788095Y-83599901D02*
X158835714Y-83695139D01*
X158835714Y-83695139D02*
X158835714Y-83742758D01*
X158835714Y-83742758D02*
X158788095Y-83837996D01*
X158788095Y-83837996D02*
X158740476Y-83885615D01*
X158740476Y-83885615D02*
X158645238Y-83933234D01*
X158645238Y-83933234D02*
X158454762Y-83933234D01*
X158454762Y-83933234D02*
X158359524Y-83980853D01*
X158359524Y-83980853D02*
X158311905Y-84028472D01*
X158311905Y-84028472D02*
X158264286Y-84123710D01*
X158264286Y-84123710D02*
X158264286Y-84314186D01*
X158264286Y-84314186D02*
X158311905Y-84409424D01*
X158311905Y-84409424D02*
X158359524Y-84457044D01*
X158359524Y-84457044D02*
X158454762Y-84504663D01*
X158454762Y-84504663D02*
X158645238Y-84504663D01*
X158645238Y-84504663D02*
X158740476Y-84457044D01*
X158740476Y-84457044D02*
X158788095Y-84409424D01*
X158788095Y-84409424D02*
X158835714Y-84314186D01*
X158835714Y-84314186D02*
X158835714Y-84123710D01*
X158835714Y-84123710D02*
X158788095Y-84028472D01*
X158788095Y-84028472D02*
X158740476Y-83980853D01*
X158740476Y-83980853D02*
X158645238Y-83933234D01*
X214488095Y-77704663D02*
X214488095Y-78514186D01*
X214488095Y-78514186D02*
X214535714Y-78609424D01*
X214535714Y-78609424D02*
X214583333Y-78657044D01*
X214583333Y-78657044D02*
X214678571Y-78704663D01*
X214678571Y-78704663D02*
X214869047Y-78704663D01*
X214869047Y-78704663D02*
X214964285Y-78657044D01*
X214964285Y-78657044D02*
X215011904Y-78609424D01*
X215011904Y-78609424D02*
X215059523Y-78514186D01*
X215059523Y-78514186D02*
X215059523Y-77704663D01*
X215440476Y-77704663D02*
X216107142Y-77704663D01*
X216107142Y-77704663D02*
X215678571Y-78704663D01*
X188057142Y-77904663D02*
X187723809Y-77428472D01*
X187485714Y-77904663D02*
X187485714Y-76904663D01*
X187485714Y-76904663D02*
X187866666Y-76904663D01*
X187866666Y-76904663D02*
X187961904Y-76952282D01*
X187961904Y-76952282D02*
X188009523Y-76999901D01*
X188009523Y-76999901D02*
X188057142Y-77095139D01*
X188057142Y-77095139D02*
X188057142Y-77237996D01*
X188057142Y-77237996D02*
X188009523Y-77333234D01*
X188009523Y-77333234D02*
X187961904Y-77380853D01*
X187961904Y-77380853D02*
X187866666Y-77428472D01*
X187866666Y-77428472D02*
X187485714Y-77428472D01*
X189009523Y-77904663D02*
X188438095Y-77904663D01*
X188723809Y-77904663D02*
X188723809Y-76904663D01*
X188723809Y-76904663D02*
X188628571Y-77047520D01*
X188628571Y-77047520D02*
X188533333Y-77142758D01*
X188533333Y-77142758D02*
X188438095Y-77190377D01*
X189866666Y-76904663D02*
X189676190Y-76904663D01*
X189676190Y-76904663D02*
X189580952Y-76952282D01*
X189580952Y-76952282D02*
X189533333Y-76999901D01*
X189533333Y-76999901D02*
X189438095Y-77142758D01*
X189438095Y-77142758D02*
X189390476Y-77333234D01*
X189390476Y-77333234D02*
X189390476Y-77714186D01*
X189390476Y-77714186D02*
X189438095Y-77809424D01*
X189438095Y-77809424D02*
X189485714Y-77857044D01*
X189485714Y-77857044D02*
X189580952Y-77904663D01*
X189580952Y-77904663D02*
X189771428Y-77904663D01*
X189771428Y-77904663D02*
X189866666Y-77857044D01*
X189866666Y-77857044D02*
X189914285Y-77809424D01*
X189914285Y-77809424D02*
X189961904Y-77714186D01*
X189961904Y-77714186D02*
X189961904Y-77476091D01*
X189961904Y-77476091D02*
X189914285Y-77380853D01*
X189914285Y-77380853D02*
X189866666Y-77333234D01*
X189866666Y-77333234D02*
X189771428Y-77285615D01*
X189771428Y-77285615D02*
X189580952Y-77285615D01*
X189580952Y-77285615D02*
X189485714Y-77333234D01*
X189485714Y-77333234D02*
X189438095Y-77380853D01*
X189438095Y-77380853D02*
X189390476Y-77476091D01*
X159738095Y-100579663D02*
X159738095Y-101389186D01*
X159738095Y-101389186D02*
X159785714Y-101484424D01*
X159785714Y-101484424D02*
X159833333Y-101532044D01*
X159833333Y-101532044D02*
X159928571Y-101579663D01*
X159928571Y-101579663D02*
X160119047Y-101579663D01*
X160119047Y-101579663D02*
X160214285Y-101532044D01*
X160214285Y-101532044D02*
X160261904Y-101484424D01*
X160261904Y-101484424D02*
X160309523Y-101389186D01*
X160309523Y-101389186D02*
X160309523Y-100579663D01*
X160738095Y-100674901D02*
X160785714Y-100627282D01*
X160785714Y-100627282D02*
X160880952Y-100579663D01*
X160880952Y-100579663D02*
X161119047Y-100579663D01*
X161119047Y-100579663D02*
X161214285Y-100627282D01*
X161214285Y-100627282D02*
X161261904Y-100674901D01*
X161261904Y-100674901D02*
X161309523Y-100770139D01*
X161309523Y-100770139D02*
X161309523Y-100865377D01*
X161309523Y-100865377D02*
X161261904Y-101008234D01*
X161261904Y-101008234D02*
X160690476Y-101579663D01*
X160690476Y-101579663D02*
X161309523Y-101579663D01*
X153757142Y-81704663D02*
X153423809Y-81228472D01*
X153185714Y-81704663D02*
X153185714Y-80704663D01*
X153185714Y-80704663D02*
X153566666Y-80704663D01*
X153566666Y-80704663D02*
X153661904Y-80752282D01*
X153661904Y-80752282D02*
X153709523Y-80799901D01*
X153709523Y-80799901D02*
X153757142Y-80895139D01*
X153757142Y-80895139D02*
X153757142Y-81037996D01*
X153757142Y-81037996D02*
X153709523Y-81133234D01*
X153709523Y-81133234D02*
X153661904Y-81180853D01*
X153661904Y-81180853D02*
X153566666Y-81228472D01*
X153566666Y-81228472D02*
X153185714Y-81228472D01*
X154709523Y-81704663D02*
X154138095Y-81704663D01*
X154423809Y-81704663D02*
X154423809Y-80704663D01*
X154423809Y-80704663D02*
X154328571Y-80847520D01*
X154328571Y-80847520D02*
X154233333Y-80942758D01*
X154233333Y-80942758D02*
X154138095Y-80990377D01*
X155328571Y-80704663D02*
X155423809Y-80704663D01*
X155423809Y-80704663D02*
X155519047Y-80752282D01*
X155519047Y-80752282D02*
X155566666Y-80799901D01*
X155566666Y-80799901D02*
X155614285Y-80895139D01*
X155614285Y-80895139D02*
X155661904Y-81085615D01*
X155661904Y-81085615D02*
X155661904Y-81323710D01*
X155661904Y-81323710D02*
X155614285Y-81514186D01*
X155614285Y-81514186D02*
X155566666Y-81609424D01*
X155566666Y-81609424D02*
X155519047Y-81657044D01*
X155519047Y-81657044D02*
X155423809Y-81704663D01*
X155423809Y-81704663D02*
X155328571Y-81704663D01*
X155328571Y-81704663D02*
X155233333Y-81657044D01*
X155233333Y-81657044D02*
X155185714Y-81609424D01*
X155185714Y-81609424D02*
X155138095Y-81514186D01*
X155138095Y-81514186D02*
X155090476Y-81323710D01*
X155090476Y-81323710D02*
X155090476Y-81085615D01*
X155090476Y-81085615D02*
X155138095Y-80895139D01*
X155138095Y-80895139D02*
X155185714Y-80799901D01*
X155185714Y-80799901D02*
X155233333Y-80752282D01*
X155233333Y-80752282D02*
X155328571Y-80704663D01*
D12*
X162775000Y-96550000D02*
X162775000Y-92950000D01*
X158325000Y-94750000D02*
G75*
G02*
X162763478Y-92911522I2600000J0D01*
G01*
X162763478Y-96588478D02*
G75*
G02*
X158324999Y-94750000I-1838478J1838478D01*
G01*
X149892164Y-85140000D02*
X150107836Y-85140000D01*
X149892164Y-85860000D02*
X150107836Y-85860000D01*
X168596359Y-96870000D02*
X168903641Y-96870000D01*
X168596359Y-97630000D02*
X168903641Y-97630000D01*
X190346359Y-91120000D02*
X190653641Y-91120000D01*
X190346359Y-91880000D02*
X190653641Y-91880000D01*
X172860000Y-72995000D02*
X172860000Y-98515000D01*
X172860000Y-98515000D02*
X178160000Y-98515000D01*
X174510000Y-72995000D02*
X172860000Y-72995000D01*
X178160000Y-72995000D02*
X176510000Y-72995000D01*
X178160000Y-98515000D02*
X178160000Y-72995000D01*
X176510000Y-72995000D02*
G75*
G02*
X174510000Y-72995000I-1000000J0D01*
G01*
X188487258Y-81227500D02*
X188012742Y-81227500D01*
X188487258Y-82272500D02*
X188012742Y-82272500D01*
X165890000Y-84237500D02*
X165890000Y-83587500D01*
X165890000Y-84237500D02*
X165890000Y-84887500D01*
X169010000Y-84237500D02*
X169010000Y-83587500D01*
X169010000Y-84237500D02*
X169010000Y-84887500D01*
X165940000Y-85400000D02*
X165610000Y-85640000D01*
X165610000Y-85160000D01*
X165940000Y-85400000D01*
G36*
X165940000Y-85400000D02*
G01*
X165610000Y-85640000D01*
X165610000Y-85160000D01*
X165940000Y-85400000D01*
G37*
X171370000Y-100346359D02*
X171370000Y-100653641D01*
X172130000Y-100346359D02*
X172130000Y-100653641D01*
X167240000Y-73640580D02*
X167240000Y-73359420D01*
X168260000Y-73640580D02*
X168260000Y-73359420D01*
X183020000Y-89850000D02*
X184990000Y-89850000D01*
X183300000Y-87650000D02*
X185000000Y-87650000D01*
X182900000Y-87690000D02*
X182620000Y-87690000D01*
X182900000Y-87410000D01*
X182900000Y-87690000D01*
G36*
X182900000Y-87690000D02*
G01*
X182620000Y-87690000D01*
X182900000Y-87410000D01*
X182900000Y-87690000D01*
G37*
X153653641Y-84870000D02*
X153346359Y-84870000D01*
X153653641Y-85630000D02*
X153346359Y-85630000D01*
X150438748Y-86515000D02*
X150961252Y-86515000D01*
X150438748Y-87985000D02*
X150961252Y-87985000D01*
X163370000Y-107895000D02*
X164700000Y-107895000D01*
X163370000Y-109225000D02*
X163370000Y-107895000D01*
X165970000Y-107895000D02*
X173650000Y-107895000D01*
X165970000Y-110555000D02*
X165970000Y-107895000D01*
X165970000Y-110555000D02*
X173650000Y-110555000D01*
X173650000Y-110555000D02*
X173650000Y-107895000D01*
X183670000Y-74021359D02*
X183670000Y-74328641D01*
X184430000Y-74021359D02*
X184430000Y-74328641D01*
X184109420Y-83990000D02*
X184390580Y-83990000D01*
X184109420Y-85010000D02*
X184390580Y-85010000D01*
X163484420Y-84665000D02*
X163765580Y-84665000D01*
X163484420Y-85685000D02*
X163765580Y-85685000D01*
X155403641Y-95370000D02*
X155096359Y-95370000D01*
X155403641Y-96130000D02*
X155096359Y-96130000D01*
X143440000Y-94090000D02*
X143440000Y-96590000D01*
X143740000Y-94390000D02*
X143740000Y-102110000D01*
X143740000Y-102110000D02*
X147760000Y-102110000D01*
X145240000Y-94390000D02*
X145240000Y-95390000D01*
X145240000Y-95390000D02*
X143740000Y-95390000D01*
X145240000Y-101110000D02*
X143740000Y-101110000D01*
X145240000Y-102110000D02*
X145240000Y-101110000D01*
X145940000Y-94090000D02*
X143440000Y-94090000D01*
X146050000Y-94390000D02*
X146050000Y-94890000D01*
X146050000Y-94890000D02*
X147260000Y-94890000D01*
X146050000Y-101610000D02*
X146050000Y-102110000D01*
X147260000Y-94890000D02*
X147260000Y-101610000D01*
X147260000Y-101610000D02*
X146050000Y-101610000D01*
X147760000Y-94390000D02*
X143740000Y-94390000D01*
X147760000Y-102110000D02*
X147760000Y-94390000D01*
X161335000Y-90690000D02*
X161335000Y-91580000D01*
X161335000Y-91580000D02*
X159485000Y-91580000D01*
X161350000Y-88460000D02*
X159500000Y-88460000D01*
X161350000Y-88460000D02*
X161350000Y-89350000D01*
X159110000Y-88450000D02*
X158870000Y-88120000D01*
X159350000Y-88120000D01*
X159110000Y-88450000D01*
G36*
X159110000Y-88450000D02*
G01*
X158870000Y-88120000D01*
X159350000Y-88120000D01*
X159110000Y-88450000D01*
G37*
X147707836Y-78240000D02*
X147492164Y-78240000D01*
X147707836Y-78960000D02*
X147492164Y-78960000D01*
X183560000Y-92890580D02*
X183560000Y-92609420D01*
X184580000Y-92890580D02*
X184580000Y-92609420D01*
X187370000Y-98896359D02*
X187370000Y-99203641D01*
X188130000Y-98896359D02*
X188130000Y-99203641D01*
X161240000Y-74859420D02*
X161240000Y-75140580D01*
X162260000Y-74859420D02*
X162260000Y-75140580D01*
X183010000Y-102600000D02*
X177500000Y-102600000D01*
X183010000Y-105900000D02*
X177500000Y-105900000D01*
X183010000Y-105900000D02*
X183010000Y-102600000D01*
D13*
X149945000Y-81235000D02*
X151545000Y-81235000D01*
X149945000Y-84365000D02*
X151545000Y-84365000D01*
D10*
X148445000Y-81600000D02*
G75*
G02*
X148245000Y-81600000I-100000J0D01*
G01*
X148245000Y-81600000D02*
G75*
G02*
X148445000Y-81600000I100000J0D01*
G01*
D12*
X209890000Y-73815580D02*
X209890000Y-73534420D01*
X210910000Y-73815580D02*
X210910000Y-73534420D01*
X148790000Y-97613748D02*
X148790000Y-100386252D01*
X152210000Y-97613748D02*
X152210000Y-100386252D01*
X159240000Y-74859420D02*
X159240000Y-75140580D01*
X160260000Y-74859420D02*
X160260000Y-75140580D01*
X188403641Y-89120000D02*
X188096359Y-89120000D01*
X188403641Y-89880000D02*
X188096359Y-89880000D01*
X165617500Y-90237258D02*
X165617500Y-89762742D01*
X166662500Y-90237258D02*
X166662500Y-89762742D01*
X156760000Y-89653641D02*
X156760000Y-89346359D01*
X157520000Y-89653641D02*
X157520000Y-89346359D01*
X150438748Y-88765000D02*
X150961252Y-88765000D01*
X150438748Y-90235000D02*
X150961252Y-90235000D01*
X169040000Y-74667164D02*
X169040000Y-74882836D01*
X169760000Y-74667164D02*
X169760000Y-74882836D01*
X163117500Y-90237258D02*
X163117500Y-89762742D01*
X164162500Y-90237258D02*
X164162500Y-89762742D01*
X212190000Y-74132836D02*
X212190000Y-73917164D01*
X212910000Y-74132836D02*
X212910000Y-73917164D01*
X164236359Y-94620000D02*
X164543641Y-94620000D01*
X164236359Y-95380000D02*
X164543641Y-95380000D01*
X164543641Y-95870000D02*
X164236359Y-95870000D01*
X164543641Y-96630000D02*
X164236359Y-96630000D01*
X188403641Y-87620000D02*
X188096359Y-87620000D01*
X188403641Y-88380000D02*
X188096359Y-88380000D01*
X174590000Y-108560000D02*
X174590000Y-111060000D01*
X174590000Y-111060000D02*
X177090000Y-111060000D01*
X174890000Y-106740000D02*
X174890000Y-110760000D01*
X174890000Y-108450000D02*
X175390000Y-108450000D01*
X174890000Y-109260000D02*
X175890000Y-109260000D01*
X174890000Y-110760000D02*
X182610000Y-110760000D01*
X175390000Y-107240000D02*
X182110000Y-107240000D01*
X175390000Y-108450000D02*
X175390000Y-107240000D01*
X175890000Y-109260000D02*
X175890000Y-110760000D01*
X181610000Y-109260000D02*
X181610000Y-110760000D01*
X182110000Y-107240000D02*
X182110000Y-108450000D01*
X182110000Y-108450000D02*
X182610000Y-108450000D01*
X182610000Y-106740000D02*
X174890000Y-106740000D01*
X182610000Y-109260000D02*
X181610000Y-109260000D01*
X182610000Y-110760000D02*
X182610000Y-106740000D01*
X173945000Y-104690000D02*
X173945000Y-105580000D01*
X173945000Y-105580000D02*
X172095000Y-105580000D01*
X173960000Y-102460000D02*
X172110000Y-102460000D01*
X173960000Y-102460000D02*
X173960000Y-103350000D01*
X171720000Y-102450000D02*
X171480000Y-102120000D01*
X171960000Y-102120000D01*
X171720000Y-102450000D01*
G36*
X171720000Y-102450000D02*
G01*
X171480000Y-102120000D01*
X171960000Y-102120000D01*
X171720000Y-102450000D01*
G37*
X164515000Y-73511252D02*
X164515000Y-72988748D01*
X165985000Y-73511252D02*
X165985000Y-72988748D01*
X149300000Y-71850000D02*
X149300000Y-73350000D01*
X149300000Y-78650000D02*
X149300000Y-77150000D01*
X149300000Y-78650000D02*
X156700000Y-78650000D01*
X156700000Y-71850000D02*
X149300000Y-71850000D01*
X156700000Y-71850000D02*
X156700000Y-73350000D01*
X156700000Y-78650000D02*
X156700000Y-77150000D01*
X155646359Y-83370000D02*
X155953641Y-83370000D01*
X155646359Y-84130000D02*
X155953641Y-84130000D01*
X186070000Y-77103641D02*
X186070000Y-76796359D01*
X186830000Y-77103641D02*
X186830000Y-76796359D01*
X157250000Y-99565000D02*
X156450000Y-99565000D01*
X157250000Y-99565000D02*
X158050000Y-99565000D01*
X157250000Y-102685000D02*
X156450000Y-102685000D01*
X157250000Y-102685000D02*
X158050000Y-102685000D01*
X155950000Y-99615000D02*
X155710000Y-99285000D01*
X156190000Y-99285000D01*
X155950000Y-99615000D01*
G36*
X155950000Y-99615000D02*
G01*
X155710000Y-99285000D01*
X156190000Y-99285000D01*
X155950000Y-99615000D01*
G37*
X153620000Y-83403641D02*
X153620000Y-83096359D01*
X154380000Y-83403641D02*
X154380000Y-83096359D01*
%LPC*%
D14*
X160925000Y-96020000D03*
D15*
X160925000Y-94750000D03*
X160925000Y-93480000D03*
D16*
X149520000Y-85500000D03*
X150480000Y-85500000D03*
D17*
X168240000Y-97250000D03*
X169260000Y-97250000D03*
X189990000Y-91500000D03*
X191010000Y-91500000D03*
D18*
X171700000Y-74325000D03*
D19*
X171700000Y-76865000D03*
X171700000Y-79405000D03*
X171700000Y-81945000D03*
X171700000Y-84485000D03*
X171700000Y-87025000D03*
X171700000Y-89565000D03*
X171700000Y-92105000D03*
X171700000Y-94645000D03*
X171700000Y-97185000D03*
X179320000Y-97185000D03*
X179320000Y-94645000D03*
X179320000Y-92105000D03*
X179320000Y-89565000D03*
X179320000Y-87025000D03*
X179320000Y-84485000D03*
X179320000Y-81945000D03*
X179320000Y-79405000D03*
X179320000Y-76865000D03*
X179320000Y-74325000D03*
D20*
X189075000Y-81750000D03*
X187425000Y-81750000D03*
D21*
X166500000Y-85175000D03*
X168400000Y-85175000D03*
X167450000Y-83300000D03*
D22*
X171750000Y-99990000D03*
X171750000Y-101010000D03*
D23*
X167750000Y-74275000D03*
X167750000Y-72725000D03*
D24*
X183100000Y-88100000D03*
X183100000Y-88750000D03*
X183100000Y-89400000D03*
X184900000Y-89400000D03*
X184900000Y-88750000D03*
X184900000Y-88100000D03*
D25*
X154010000Y-85250000D03*
X152990000Y-85250000D03*
D26*
X149750000Y-87250000D03*
X151650000Y-87250000D03*
D27*
X164700000Y-109225000D03*
D28*
X167240000Y-109225000D03*
X169780000Y-109225000D03*
X172320000Y-109225000D03*
D22*
X184050000Y-73665000D03*
X184050000Y-74685000D03*
D29*
X183475000Y-84500000D03*
X185025000Y-84500000D03*
X162850000Y-85175000D03*
X164400000Y-85175000D03*
D25*
X155760000Y-95750000D03*
X154740000Y-95750000D03*
D30*
X146050000Y-97000000D03*
D31*
X146050000Y-99500000D03*
D32*
X159080000Y-89050000D03*
X159080000Y-90950000D03*
X161700000Y-90000000D03*
D33*
X148080000Y-78600000D03*
X147120000Y-78600000D03*
D23*
X184070000Y-93525000D03*
X184070000Y-91975000D03*
D22*
X187750000Y-98540000D03*
X187750000Y-99560000D03*
D34*
X161750000Y-74225000D03*
X161750000Y-75775000D03*
D35*
X181500000Y-104250000D03*
X177500000Y-104250000D03*
D36*
X149490000Y-81850000D03*
X149490000Y-82800000D03*
X149490000Y-83750000D03*
X152000000Y-83750000D03*
X152000000Y-82800000D03*
X152000000Y-81850000D03*
D23*
X210400000Y-74450000D03*
X210400000Y-72900000D03*
D37*
X150500000Y-96862500D03*
X150500000Y-101137500D03*
D34*
X159750000Y-74225000D03*
X159750000Y-75775000D03*
D25*
X188760000Y-89500000D03*
X187740000Y-89500000D03*
D38*
X166140000Y-90825000D03*
X166140000Y-89175000D03*
D39*
X157140000Y-90010000D03*
X157140000Y-88990000D03*
D26*
X149750000Y-89500000D03*
X151650000Y-89500000D03*
D40*
X169400000Y-74295000D03*
X169400000Y-75255000D03*
D38*
X163640000Y-90825000D03*
X163640000Y-89175000D03*
D41*
X212550000Y-74505000D03*
X212550000Y-73545000D03*
D17*
X163880000Y-95000000D03*
X164900000Y-95000000D03*
D25*
X164900000Y-96250000D03*
X163880000Y-96250000D03*
X188760000Y-88000000D03*
X187740000Y-88000000D03*
D42*
X177500000Y-108450000D03*
D43*
X180000000Y-108450000D03*
D32*
X171690000Y-103050000D03*
X171690000Y-104950000D03*
X174310000Y-104000000D03*
D44*
X165250000Y-74200000D03*
X165250000Y-72300000D03*
D45*
X149975000Y-75250000D03*
X156025000Y-75250000D03*
D17*
X155290000Y-83750000D03*
X156310000Y-83750000D03*
D46*
X212750000Y-78250000D03*
X210750000Y-78250000D03*
X208750000Y-78250000D03*
X206750000Y-78250000D03*
X204750000Y-78250000D03*
X202750000Y-78250000D03*
X200750000Y-78250000D03*
X198750000Y-78250000D03*
X196750000Y-78250000D03*
X194750000Y-78250000D03*
X194750000Y-100094000D03*
X196750000Y-100094000D03*
X198750000Y-100094000D03*
X200750000Y-100094000D03*
X202750000Y-100094000D03*
X204750000Y-100094000D03*
X206750000Y-100094000D03*
X208750000Y-100094000D03*
X210750000Y-100094000D03*
X212750000Y-100094000D03*
D39*
X186450000Y-77460000D03*
X186450000Y-76440000D03*
D47*
X156112500Y-100175000D03*
X156112500Y-101125000D03*
X156112500Y-102075000D03*
X158387500Y-102075000D03*
X158387500Y-100175000D03*
D39*
X154000000Y-83760000D03*
X154000000Y-82740000D03*
%LPD*%
M02*
