M48
; DRILL file {KiCad 8.0.6} date 2025-02-16T16:22:14-0700
; FORMAT={-:-/ absolute / metric / decimal}
; #@! TF.CreationDate,2025-02-16T16:22:14-07:00
; #@! TF.GenerationSoftware,Kicad,Pcbnew,8.0.6
; #@! TF.FileFunction,Plated,1,2,PTH
FMAT,2
METRIC
; #@! TA.AperFunction,Plated,PTH,ViaDrill
T1C0.300
; #@! TA.AperFunction,Plated,PTH,ViaDrill
T2C0.600
; #@! TA.AperFunction,Plated,PTH,ComponentDrill
T3C0.750
; #@! TA.AperFunction,Plated,PTH,ComponentDrill
T4C0.762
; #@! TA.AperFunction,Plated,PTH,ComponentDrill
T5C0.800
; #@! TA.AperFunction,Plated,PTH,ComponentDrill
T6C1.000
%
G90
G05
T1
X144.595Y-75.4
X144.595Y-81.7
X144.6Y-74.381
X144.6Y-76.531
X144.6Y-79.631
X144.6Y-80.681
X144.895Y-85.119
X144.895Y-86.169
X144.895Y-87.219
X144.895Y-88.369
X144.895Y-89.519
X144.9Y-83.05
X144.9Y-84.1
X144.911Y-90.615
X144.911Y-91.665
X145.075Y-103.45
X145.075Y-104.6
X145.075Y-105.75
X145.745Y-75.4
X145.745Y-81.7
X145.75Y-74.381
X145.75Y-76.531
X145.75Y-79.631
X145.75Y-80.681
X146.045Y-85.119
X146.045Y-86.169
X146.045Y-87.219
X146.045Y-88.369
X146.045Y-89.519
X146.05Y-84.1
X146.061Y-90.615
X146.061Y-91.665
X146.225Y-103.45
X146.225Y-104.6
X146.225Y-105.75
X146.7Y-74.35
X146.705Y-75.481
X146.75Y-76.5
X147.2Y-84.1
X147.211Y-90.615
X147.211Y-91.665
X147.375Y-103.45
X147.375Y-104.6
X147.375Y-105.75
X147.588Y-92.688
X147.85Y-74.35
X147.855Y-75.481
X148.216Y-90.596
X148.28Y-91.655
X148.45Y-79.75
X148.45Y-80.6
X148.5Y-106.7
X148.5Y-107.85
X148.5Y-109.0
X148.5Y-110.15
X148.525Y-103.45
X148.525Y-104.6
X148.525Y-105.75
X148.65Y-92.8
X148.65Y-93.85
X148.65Y-95.0
X149.125Y-70.85
X149.35Y-79.75
X149.35Y-80.6
X149.43Y-91.655
X149.65Y-98.85
X149.65Y-106.7
X149.65Y-107.85
X149.65Y-109.0
X149.65Y-110.15
X149.675Y-103.45
X149.675Y-104.6
X149.675Y-105.75
X149.8Y-92.8
X149.8Y-93.85
X150.275Y-70.85
X150.35Y-79.75
X150.35Y-80.6
X150.775Y-103.45
X150.775Y-104.6
X150.775Y-105.75
X150.8Y-106.7
X150.8Y-107.85
X150.8Y-109.0
X150.8Y-110.15
X150.95Y-92.8
X150.95Y-93.85
X151.35Y-70.85
X151.925Y-103.45
X151.925Y-104.6
X151.925Y-105.75
X151.95Y-106.7
X151.95Y-107.85
X151.95Y-109.0
X151.95Y-110.15
X152.495Y-74.069
X152.495Y-77.169
X152.5Y-70.85
X152.5Y-73.05
X152.5Y-75.1
X152.5Y-76.15
X153.0Y-99.8
X153.075Y-103.45
X153.075Y-104.6
X153.075Y-105.75
X153.1Y-106.7
X153.1Y-107.85
X153.1Y-109.0
X153.1Y-110.15
X153.3Y-86.55
X153.3Y-87.6
X153.3Y-88.65
X153.3Y-89.8
X153.3Y-90.95
X153.645Y-74.069
X153.645Y-77.169
X153.65Y-70.85
X153.65Y-73.05
X153.65Y-75.1
X153.65Y-76.15
X153.65Y-79.45
X154.1Y-99.8
X154.2Y-106.7
X154.2Y-107.85
X154.2Y-109.0
X154.2Y-110.15
X154.225Y-103.45
X154.225Y-104.6
X154.225Y-105.75
X154.8Y-79.45
X155.35Y-106.7
X155.35Y-107.85
X155.35Y-109.0
X155.35Y-110.15
X155.375Y-103.45
X155.375Y-104.6
X155.375Y-105.75
X155.838Y-97.695
X156.5Y-106.7
X156.5Y-107.85
X156.5Y-109.0
X156.5Y-110.15
X156.525Y-103.45
X156.525Y-104.6
X156.525Y-105.75
X156.574Y-98.5
X157.425Y-99.0
X157.5Y-91.75
X157.6Y-92.65
X157.6Y-93.6
X157.6Y-94.55
X157.6Y-95.55
X157.625Y-103.45
X157.625Y-104.6
X157.625Y-105.75
X157.65Y-106.7
X157.65Y-107.85
X157.65Y-109.0
X157.65Y-110.15
X157.7Y-85.1
X157.7Y-86.2
X158.2Y-70.85
X158.2Y-71.9
X158.2Y-72.85
X158.3Y-78.45
X158.3Y-79.6
X158.3Y-80.6
X158.3Y-81.75
X158.3Y-82.9
X158.775Y-103.45
X158.775Y-104.6
X158.775Y-105.75
X158.8Y-106.7
X158.8Y-107.85
X158.8Y-109.0
X158.8Y-110.15
X158.85Y-85.1
X158.85Y-86.2
X158.85Y-87.35
X159.35Y-70.85
X159.35Y-71.9
X159.35Y-72.85
X159.45Y-78.45
X159.45Y-79.6
X159.45Y-80.6
X159.45Y-81.75
X159.45Y-82.9
X159.95Y-103.45
X159.95Y-104.6
X159.95Y-105.75
X159.95Y-106.7
X159.95Y-107.85
X159.95Y-109.0
X159.95Y-110.15
X160.0Y-83.95
X160.0Y-85.1
X160.0Y-86.2
X160.25Y-99.75
X160.5Y-70.85
X160.5Y-71.9
X160.5Y-72.85
X160.6Y-78.45
X160.6Y-79.6
X160.6Y-80.6
X160.6Y-81.75
X161.05Y-102.5
X161.05Y-103.45
X161.05Y-104.6
X161.05Y-105.75
X161.05Y-106.7
X161.05Y-110.15
X161.15Y-85.1
X161.15Y-86.2
X161.65Y-70.85
X161.65Y-71.9
X161.65Y-72.85
X161.75Y-78.45
X161.75Y-79.6
X161.75Y-80.6
X161.75Y-81.75
X162.15Y-86.6
X162.15Y-87.75
X162.2Y-102.3
X162.2Y-103.45
X162.2Y-104.6
X162.2Y-105.75
X162.2Y-106.7
X162.2Y-110.15
X162.25Y-91.45
X162.8Y-70.85
X162.8Y-71.9
X162.8Y-72.85
X162.85Y-78.45
X162.85Y-79.6
X162.85Y-80.6
X162.85Y-81.75
X163.3Y-86.6
X163.425Y-98.975
X163.425Y-100.125
X163.425Y-101.15
X163.425Y-102.3
X163.425Y-103.45
X163.45Y-104.4
X163.45Y-105.55
X163.45Y-106.7
X163.575Y-92.25
X164.0Y-75.8
X164.0Y-76.8
X164.0Y-77.8
X164.0Y-78.95
X164.0Y-80.1
X164.35Y-86.6
X164.6Y-98.975
X164.6Y-100.125
X164.6Y-101.15
X164.6Y-102.3
X164.6Y-103.45
X164.6Y-104.4
X164.6Y-105.55
X164.6Y-106.7
X164.75Y-92.25
X165.15Y-75.8
X165.15Y-76.8
X165.15Y-77.8
X165.15Y-78.95
X165.35Y-86.6
X165.7Y-98.975
X165.7Y-100.125
X165.7Y-101.15
X165.7Y-102.3
X165.7Y-103.45
X165.7Y-104.4
X165.7Y-105.55
X165.7Y-106.7
X165.85Y-92.25
X166.1Y-81.8
X166.3Y-75.8
X166.3Y-76.8
X166.3Y-77.8
X166.55Y-86.75
X167.0Y-92.25
X167.05Y-80.95
X167.45Y-75.8
X167.45Y-76.8
X167.55Y-86.75
X167.55Y-89.0
X168.0Y-79.95
X168.0Y-80.95
X168.65Y-86.75
X168.8Y-100.125
X168.8Y-101.15
X168.8Y-102.3
X168.8Y-105.55
X168.8Y-106.7
X169.0Y-78.95
X169.0Y-79.95
X169.0Y-80.95
X169.55Y-70.55
X169.55Y-71.65
X169.75Y-86.75
X169.9Y-100.125
X169.9Y-101.15
X169.9Y-102.3
X169.9Y-105.55
X169.9Y-106.7
X169.95Y-77.85
X170.0Y-78.95
X170.0Y-79.95
X170.0Y-80.95
X170.675Y-70.55
X170.675Y-71.65
X171.075Y-106.7
X171.825Y-70.55
X171.825Y-71.65
X172.175Y-106.7
X172.9Y-70.55
X173.1Y-101.7
X173.2Y-99.175
X173.35Y-106.7
X173.8Y-82.2
X173.8Y-83.35
X173.8Y-84.5
X173.8Y-85.65
X173.8Y-86.8
X173.8Y-87.825
X173.8Y-88.975
X173.8Y-89.925
X173.8Y-91.075
X173.8Y-92.225
X173.8Y-93.375
X173.8Y-94.4
X173.8Y-95.55
X173.8Y-96.7
X173.8Y-97.85
X173.825Y-74.45
X174.2Y-101.7
X174.3Y-99.175
X174.95Y-74.45
X174.95Y-75.55
X175.45Y-101.7
X175.5Y-105.7
X176.125Y-74.45
X176.125Y-75.55
X176.125Y-76.7
X176.8Y-101.7
X177.25Y-74.45
X177.25Y-75.55
X177.25Y-76.7
X177.25Y-82.2
X177.25Y-83.35
X177.25Y-84.5
X177.25Y-85.65
X177.25Y-86.8
X177.25Y-87.825
X177.25Y-88.975
X177.25Y-89.925
X177.25Y-91.075
X177.25Y-92.225
X177.25Y-93.375
X177.25Y-94.4
X177.25Y-95.55
X177.25Y-96.7
X177.25Y-97.85
X178.35Y-99.0
X179.65Y-99.7
X180.725Y-85.775
X180.875Y-99.7
X180.879Y-98.563
X180.95Y-75.95
X181.025Y-74.35
X181.225Y-90.95
X181.225Y-91.825
X181.55Y-75.2
X181.675Y-85.775
X182.025Y-99.7
X182.025Y-100.825
X182.025Y-101.875
X182.05Y-74.45
X182.375Y-90.95
X183.175Y-100.825
X183.175Y-101.875
X183.227Y-99.849
X183.25Y-109.8
X184.375Y-100.825
X184.375Y-101.875
X184.375Y-103.025
X184.375Y-104.175
X184.377Y-99.849
X184.4Y-105.35
X184.4Y-106.35
X184.4Y-109.8
X184.45Y-71.0
X185.35Y-85.975
X185.35Y-86.85
X185.525Y-100.825
X185.525Y-101.875
X185.525Y-103.025
X185.525Y-104.175
X185.527Y-99.849
X185.55Y-105.35
X185.55Y-106.35
X185.55Y-107.5
X185.55Y-108.65
X185.55Y-109.8
X185.6Y-71.0
X185.6Y-72.15
X185.7Y-93.2
X185.7Y-94.075
X186.275Y-88.75
X186.3Y-83.325
X186.3Y-84.15
X186.3Y-85.025
X186.3Y-85.975
X186.3Y-86.85
X186.5Y-99.85
X186.675Y-71.0
X186.675Y-72.15
X186.675Y-103.025
X186.675Y-104.175
X186.7Y-105.35
X186.7Y-106.35
X186.7Y-107.5
X186.7Y-108.65
X186.7Y-109.8
X186.85Y-93.2
X186.85Y-94.075
X187.45Y-83.325
X187.45Y-84.15
X187.45Y-85.025
X187.45Y-85.975
X187.45Y-86.85
X187.7Y-90.7
X187.8Y-71.0
X187.8Y-72.15
X187.825Y-103.025
X187.825Y-104.175
X187.85Y-105.35
X187.85Y-106.35
X187.85Y-107.5
X187.85Y-108.65
X187.85Y-109.8
X188.05Y-93.2
X188.05Y-94.075
X188.95Y-71.0
X188.95Y-72.15
X188.95Y-103.025
X188.95Y-104.175
X188.95Y-105.325
X188.95Y-106.35
X188.95Y-107.5
X188.95Y-108.65
X188.95Y-109.8
X189.1Y-99.8
X189.2Y-93.2
X190.025Y-71.0
X190.025Y-72.15
X190.1Y-99.85
X190.1Y-100.825
X190.1Y-101.875
X190.1Y-103.025
X190.1Y-104.175
X190.1Y-105.325
X190.1Y-106.35
X190.1Y-107.5
X190.1Y-108.65
X190.1Y-109.8
X190.5Y-79.2
X190.5Y-80.25
X190.5Y-83.6
X190.5Y-84.75
X190.5Y-85.825
X191.25Y-99.85
X191.25Y-100.825
X191.25Y-101.875
X191.25Y-103.025
X191.25Y-104.175
X191.25Y-105.325
X191.25Y-106.35
X191.25Y-107.5
X191.25Y-108.65
X191.25Y-109.8
X191.3Y-71.0
X191.3Y-72.15
X191.3Y-88.65
X191.65Y-77.05
X191.65Y-78.05
X191.65Y-79.2
X191.65Y-80.25
X191.65Y-83.6
X191.65Y-84.75
X191.65Y-85.825
X192.15Y-87.7
X192.4Y-99.85
X192.4Y-100.825
X192.4Y-101.875
X192.4Y-103.025
X192.4Y-104.175
X192.4Y-105.325
X192.4Y-106.35
X192.4Y-107.5
X192.4Y-108.65
X192.4Y-109.8
X192.45Y-71.0
X192.45Y-72.15
X192.725Y-77.05
X192.725Y-78.05
X192.725Y-79.2
X192.725Y-80.25
X192.725Y-81.4
X192.725Y-82.45
X192.725Y-83.6
X192.725Y-84.75
X192.725Y-85.775
X193.0Y-86.8
X193.525Y-71.0
X193.525Y-72.15
X193.55Y-101.875
X193.55Y-103.025
X193.55Y-104.175
X193.55Y-105.325
X193.55Y-106.35
X193.55Y-107.5
X193.55Y-108.65
X193.55Y-109.8
X193.875Y-80.25
X193.875Y-81.4
X193.875Y-82.45
X193.875Y-83.6
X193.875Y-84.75
X193.875Y-85.775
X194.7Y-101.875
X194.7Y-103.025
X194.7Y-104.175
X194.7Y-105.325
X194.7Y-106.35
X194.7Y-107.5
X194.7Y-108.65
X194.7Y-109.8
X194.75Y-72.2
X194.8Y-71.025
X195.025Y-80.25
X195.025Y-81.4
X195.025Y-82.45
X195.025Y-83.6
X195.025Y-84.75
T2
X164.4Y-82.9
X175.575Y-83.325
X181.3Y-88.1
X185.05Y-78.55
T3
X160.925Y-93.48
X160.925Y-94.75
X160.925Y-96.02
T4
X194.75Y-78.25
X194.75Y-100.094
X196.75Y-78.25
X196.75Y-100.094
X198.75Y-78.25
X198.75Y-100.094
X200.75Y-78.25
X200.75Y-100.094
X202.75Y-78.25
X202.75Y-100.094
X204.75Y-78.25
X204.75Y-100.094
X206.75Y-78.25
X206.75Y-100.094
X208.75Y-78.25
X208.75Y-100.094
X210.75Y-78.25
X210.75Y-100.094
X212.75Y-78.25
X212.75Y-100.094
T5
X171.7Y-74.325
X171.7Y-76.865
X171.7Y-79.405
X171.7Y-81.945
X171.7Y-84.485
X171.7Y-87.025
X171.7Y-89.565
X171.7Y-92.105
X171.7Y-94.645
X171.7Y-97.185
X179.32Y-74.325
X179.32Y-76.865
X179.32Y-79.405
X179.32Y-81.945
X179.32Y-84.485
X179.32Y-87.025
X179.32Y-89.565
X179.32Y-92.105
X179.32Y-94.645
X179.32Y-97.185
T6
X146.05Y-97.0
X146.05Y-99.5
X164.7Y-109.225
X167.24Y-109.225
X169.78Y-109.225
X172.32Y-109.225
X177.5Y-108.45
X180.0Y-108.45
M30
