G04 #@! TF.GenerationSoftware,KiCad,Pcbnew,8.0.6*
G04 #@! TF.CreationDate,2025-02-16T16:22:00-07:00*
G04 #@! TF.ProjectId,PACS_1.0,50414353-5f31-42e3-902e-6b696361645f,rev?*
G04 #@! TF.SameCoordinates,Original*
G04 #@! TF.FileFunction,Legend,Bot*
G04 #@! TF.FilePolarity,Positive*
%FSLAX46Y46*%
G04 Gerber Fmt 4.6, Leading zero omitted, Abs format (unit mm)*
G04 Created by KiCad (PCBNEW 8.0.6) date 2025-02-16 16:22:00*
%MOMM*%
%LPD*%
G01*
G04 APERTURE LIST*
G04 Aperture macros list*
%AMRoundRect*
0 Rectangle with rounded corners*
0 $1 Rounding radius*
0 $2 $3 $4 $5 $6 $7 $8 $9 X,Y pos of 4 corners*
0 Add a 4 corners polygon primitive as box body*
4,1,4,$2,$3,$4,$5,$6,$7,$8,$9,$2,$3,0*
0 Add four circle primitives for the rounded corners*
1,1,$1+$1,$2,$3*
1,1,$1+$1,$4,$5*
1,1,$1+$1,$6,$7*
1,1,$1+$1,$8,$9*
0 Add four rect primitives between the rounded corners*
20,1,$1+$1,$2,$3,$4,$5,0*
20,1,$1+$1,$4,$5,$6,$7,0*
20,1,$1+$1,$6,$7,$8,$9,0*
20,1,$1+$1,$8,$9,$2,$3,0*%
G04 Aperture macros list end*
%ADD10C,0.153000*%
%ADD11R,1.500000X1.050000*%
%ADD12O,1.500000X1.050000*%
%ADD13R,1.600000X1.600000*%
%ADD14O,1.600000X1.600000*%
%ADD15R,1.700000X1.700000*%
%ADD16O,1.700000X1.700000*%
%ADD17RoundRect,0.250000X-0.750000X0.600000X-0.750000X-0.600000X0.750000X-0.600000X0.750000X0.600000X0*%
%ADD18O,2.000000X1.700000*%
%ADD19RoundRect,0.250000X-0.600000X-0.750000X0.600000X-0.750000X0.600000X0.750000X-0.600000X0.750000X0*%
%ADD20O,1.700000X2.000000*%
%ADD21C,1.524000*%
G04 APERTURE END LIST*
D10*
X215300533Y-104289831D02*
X215300533Y-105004116D01*
X215300533Y-105004116D02*
X215348152Y-105146973D01*
X215348152Y-105146973D02*
X215443390Y-105242212D01*
X215443390Y-105242212D02*
X215586247Y-105289831D01*
X215586247Y-105289831D02*
X215681485Y-105289831D01*
X214395771Y-105289831D02*
X214395771Y-104766021D01*
X214395771Y-104766021D02*
X214443390Y-104670783D01*
X214443390Y-104670783D02*
X214538628Y-104623164D01*
X214538628Y-104623164D02*
X214729104Y-104623164D01*
X214729104Y-104623164D02*
X214824342Y-104670783D01*
X214395771Y-105242212D02*
X214491009Y-105289831D01*
X214491009Y-105289831D02*
X214729104Y-105289831D01*
X214729104Y-105289831D02*
X214824342Y-105242212D01*
X214824342Y-105242212D02*
X214871961Y-105146973D01*
X214871961Y-105146973D02*
X214871961Y-105051735D01*
X214871961Y-105051735D02*
X214824342Y-104956497D01*
X214824342Y-104956497D02*
X214729104Y-104908878D01*
X214729104Y-104908878D02*
X214491009Y-104908878D01*
X214491009Y-104908878D02*
X214395771Y-104861259D01*
X213491009Y-105289831D02*
X213491009Y-104289831D01*
X213491009Y-105242212D02*
X213586247Y-105289831D01*
X213586247Y-105289831D02*
X213776723Y-105289831D01*
X213776723Y-105289831D02*
X213871961Y-105242212D01*
X213871961Y-105242212D02*
X213919580Y-105194592D01*
X213919580Y-105194592D02*
X213967199Y-105099354D01*
X213967199Y-105099354D02*
X213967199Y-104813640D01*
X213967199Y-104813640D02*
X213919580Y-104718402D01*
X213919580Y-104718402D02*
X213871961Y-104670783D01*
X213871961Y-104670783D02*
X213776723Y-104623164D01*
X213776723Y-104623164D02*
X213586247Y-104623164D01*
X213586247Y-104623164D02*
X213491009Y-104670783D01*
X212252913Y-105289831D02*
X212252913Y-104289831D01*
X212252913Y-104289831D02*
X212014818Y-104289831D01*
X212014818Y-104289831D02*
X211871961Y-104337450D01*
X211871961Y-104337450D02*
X211776723Y-104432688D01*
X211776723Y-104432688D02*
X211729104Y-104527926D01*
X211729104Y-104527926D02*
X211681485Y-104718402D01*
X211681485Y-104718402D02*
X211681485Y-104861259D01*
X211681485Y-104861259D02*
X211729104Y-105051735D01*
X211729104Y-105051735D02*
X211776723Y-105146973D01*
X211776723Y-105146973D02*
X211871961Y-105242212D01*
X211871961Y-105242212D02*
X212014818Y-105289831D01*
X212014818Y-105289831D02*
X212252913Y-105289831D01*
X211252913Y-105289831D02*
X211252913Y-104623164D01*
X211252913Y-104289831D02*
X211300532Y-104337450D01*
X211300532Y-104337450D02*
X211252913Y-104385069D01*
X211252913Y-104385069D02*
X211205294Y-104337450D01*
X211205294Y-104337450D02*
X211252913Y-104289831D01*
X211252913Y-104289831D02*
X211252913Y-104385069D01*
X210776723Y-105289831D02*
X210776723Y-104289831D01*
X210776723Y-104670783D02*
X210681485Y-104623164D01*
X210681485Y-104623164D02*
X210491009Y-104623164D01*
X210491009Y-104623164D02*
X210395771Y-104670783D01*
X210395771Y-104670783D02*
X210348152Y-104718402D01*
X210348152Y-104718402D02*
X210300533Y-104813640D01*
X210300533Y-104813640D02*
X210300533Y-105099354D01*
X210300533Y-105099354D02*
X210348152Y-105194592D01*
X210348152Y-105194592D02*
X210395771Y-105242212D01*
X210395771Y-105242212D02*
X210491009Y-105289831D01*
X210491009Y-105289831D02*
X210681485Y-105289831D01*
X210681485Y-105289831D02*
X210776723Y-105242212D01*
X215586247Y-106899775D02*
X215586247Y-105899775D01*
X215586247Y-105899775D02*
X215252914Y-106614060D01*
X215252914Y-106614060D02*
X214919581Y-105899775D01*
X214919581Y-105899775D02*
X214919581Y-106899775D01*
X214062438Y-106852156D02*
X214157676Y-106899775D01*
X214157676Y-106899775D02*
X214348152Y-106899775D01*
X214348152Y-106899775D02*
X214443390Y-106852156D01*
X214443390Y-106852156D02*
X214491009Y-106756917D01*
X214491009Y-106756917D02*
X214491009Y-106375965D01*
X214491009Y-106375965D02*
X214443390Y-106280727D01*
X214443390Y-106280727D02*
X214348152Y-106233108D01*
X214348152Y-106233108D02*
X214157676Y-106233108D01*
X214157676Y-106233108D02*
X214062438Y-106280727D01*
X214062438Y-106280727D02*
X214014819Y-106375965D01*
X214014819Y-106375965D02*
X214014819Y-106471203D01*
X214014819Y-106471203D02*
X214491009Y-106566441D01*
X213443390Y-106899775D02*
X213538628Y-106852156D01*
X213538628Y-106852156D02*
X213586247Y-106756917D01*
X213586247Y-106756917D02*
X213586247Y-105899775D01*
X213157675Y-106233108D02*
X212967199Y-106899775D01*
X212967199Y-106899775D02*
X212776723Y-106423584D01*
X212776723Y-106423584D02*
X212586247Y-106899775D01*
X212586247Y-106899775D02*
X212395771Y-106233108D01*
X212014818Y-106899775D02*
X212014818Y-106233108D01*
X212014818Y-105899775D02*
X212062437Y-105947394D01*
X212062437Y-105947394D02*
X212014818Y-105995013D01*
X212014818Y-105995013D02*
X211967199Y-105947394D01*
X211967199Y-105947394D02*
X212014818Y-105899775D01*
X212014818Y-105899775D02*
X212014818Y-105995013D01*
X211538628Y-106233108D02*
X211538628Y-106899775D01*
X211538628Y-106328346D02*
X211491009Y-106280727D01*
X211491009Y-106280727D02*
X211395771Y-106233108D01*
X211395771Y-106233108D02*
X211252914Y-106233108D01*
X211252914Y-106233108D02*
X211157676Y-106280727D01*
X211157676Y-106280727D02*
X211110057Y-106375965D01*
X211110057Y-106375965D02*
X211110057Y-106899775D01*
X209871961Y-106899775D02*
X209871961Y-105899775D01*
X209871961Y-105899775D02*
X209538628Y-106614060D01*
X209538628Y-106614060D02*
X209205295Y-105899775D01*
X209205295Y-105899775D02*
X209205295Y-106899775D01*
X208586247Y-106899775D02*
X208681485Y-106852156D01*
X208681485Y-106852156D02*
X208729104Y-106804536D01*
X208729104Y-106804536D02*
X208776723Y-106709298D01*
X208776723Y-106709298D02*
X208776723Y-106423584D01*
X208776723Y-106423584D02*
X208729104Y-106328346D01*
X208729104Y-106328346D02*
X208681485Y-106280727D01*
X208681485Y-106280727D02*
X208586247Y-106233108D01*
X208586247Y-106233108D02*
X208443390Y-106233108D01*
X208443390Y-106233108D02*
X208348152Y-106280727D01*
X208348152Y-106280727D02*
X208300533Y-106328346D01*
X208300533Y-106328346D02*
X208252914Y-106423584D01*
X208252914Y-106423584D02*
X208252914Y-106709298D01*
X208252914Y-106709298D02*
X208300533Y-106804536D01*
X208300533Y-106804536D02*
X208348152Y-106852156D01*
X208348152Y-106852156D02*
X208443390Y-106899775D01*
X208443390Y-106899775D02*
X208586247Y-106899775D01*
X207824342Y-106233108D02*
X207824342Y-106899775D01*
X207824342Y-106328346D02*
X207776723Y-106280727D01*
X207776723Y-106280727D02*
X207681485Y-106233108D01*
X207681485Y-106233108D02*
X207538628Y-106233108D01*
X207538628Y-106233108D02*
X207443390Y-106280727D01*
X207443390Y-106280727D02*
X207395771Y-106375965D01*
X207395771Y-106375965D02*
X207395771Y-106899775D01*
X206491009Y-106852156D02*
X206586247Y-106899775D01*
X206586247Y-106899775D02*
X206776723Y-106899775D01*
X206776723Y-106899775D02*
X206871961Y-106852156D01*
X206871961Y-106852156D02*
X206919580Y-106804536D01*
X206919580Y-106804536D02*
X206967199Y-106709298D01*
X206967199Y-106709298D02*
X206967199Y-106423584D01*
X206967199Y-106423584D02*
X206919580Y-106328346D01*
X206919580Y-106328346D02*
X206871961Y-106280727D01*
X206871961Y-106280727D02*
X206776723Y-106233108D01*
X206776723Y-106233108D02*
X206586247Y-106233108D01*
X206586247Y-106233108D02*
X206491009Y-106280727D01*
X206157675Y-106233108D02*
X205919580Y-106899775D01*
X205681485Y-106233108D02*
X205919580Y-106899775D01*
X205919580Y-106899775D02*
X206014818Y-107137870D01*
X206014818Y-107137870D02*
X206062437Y-107185489D01*
X206062437Y-107185489D02*
X206157675Y-107233108D01*
X215586247Y-108509719D02*
X215586247Y-107509719D01*
X215586247Y-107509719D02*
X215014819Y-108509719D01*
X215014819Y-108509719D02*
X215014819Y-107509719D01*
X214395771Y-108509719D02*
X214491009Y-108462100D01*
X214491009Y-108462100D02*
X214538628Y-108414480D01*
X214538628Y-108414480D02*
X214586247Y-108319242D01*
X214586247Y-108319242D02*
X214586247Y-108033528D01*
X214586247Y-108033528D02*
X214538628Y-107938290D01*
X214538628Y-107938290D02*
X214491009Y-107890671D01*
X214491009Y-107890671D02*
X214395771Y-107843052D01*
X214395771Y-107843052D02*
X214252914Y-107843052D01*
X214252914Y-107843052D02*
X214157676Y-107890671D01*
X214157676Y-107890671D02*
X214110057Y-107938290D01*
X214110057Y-107938290D02*
X214062438Y-108033528D01*
X214062438Y-108033528D02*
X214062438Y-108319242D01*
X214062438Y-108319242D02*
X214110057Y-108414480D01*
X214110057Y-108414480D02*
X214157676Y-108462100D01*
X214157676Y-108462100D02*
X214252914Y-108509719D01*
X214252914Y-108509719D02*
X214395771Y-108509719D01*
X213205295Y-108509719D02*
X213205295Y-107985909D01*
X213205295Y-107985909D02*
X213252914Y-107890671D01*
X213252914Y-107890671D02*
X213348152Y-107843052D01*
X213348152Y-107843052D02*
X213538628Y-107843052D01*
X213538628Y-107843052D02*
X213633866Y-107890671D01*
X213205295Y-108462100D02*
X213300533Y-108509719D01*
X213300533Y-108509719D02*
X213538628Y-108509719D01*
X213538628Y-108509719D02*
X213633866Y-108462100D01*
X213633866Y-108462100D02*
X213681485Y-108366861D01*
X213681485Y-108366861D02*
X213681485Y-108271623D01*
X213681485Y-108271623D02*
X213633866Y-108176385D01*
X213633866Y-108176385D02*
X213538628Y-108128766D01*
X213538628Y-108128766D02*
X213300533Y-108128766D01*
X213300533Y-108128766D02*
X213205295Y-108081147D01*
X212729104Y-108509719D02*
X212729104Y-107509719D01*
X212300533Y-108509719D02*
X212300533Y-107985909D01*
X212300533Y-107985909D02*
X212348152Y-107890671D01*
X212348152Y-107890671D02*
X212443390Y-107843052D01*
X212443390Y-107843052D02*
X212586247Y-107843052D01*
X212586247Y-107843052D02*
X212681485Y-107890671D01*
X212681485Y-107890671D02*
X212729104Y-107938290D01*
X210729104Y-107985909D02*
X211062437Y-107985909D01*
X211062437Y-108509719D02*
X211062437Y-107509719D01*
X211062437Y-107509719D02*
X210586247Y-107509719D01*
X209776723Y-108509719D02*
X209776723Y-107985909D01*
X209776723Y-107985909D02*
X209824342Y-107890671D01*
X209824342Y-107890671D02*
X209919580Y-107843052D01*
X209919580Y-107843052D02*
X210110056Y-107843052D01*
X210110056Y-107843052D02*
X210205294Y-107890671D01*
X209776723Y-108462100D02*
X209871961Y-108509719D01*
X209871961Y-108509719D02*
X210110056Y-108509719D01*
X210110056Y-108509719D02*
X210205294Y-108462100D01*
X210205294Y-108462100D02*
X210252913Y-108366861D01*
X210252913Y-108366861D02*
X210252913Y-108271623D01*
X210252913Y-108271623D02*
X210205294Y-108176385D01*
X210205294Y-108176385D02*
X210110056Y-108128766D01*
X210110056Y-108128766D02*
X209871961Y-108128766D01*
X209871961Y-108128766D02*
X209776723Y-108081147D01*
X209300532Y-108509719D02*
X209300532Y-107843052D01*
X209300532Y-108033528D02*
X209252913Y-107938290D01*
X209252913Y-107938290D02*
X209205294Y-107890671D01*
X209205294Y-107890671D02*
X209110056Y-107843052D01*
X209110056Y-107843052D02*
X209014818Y-107843052D01*
X208300532Y-108462100D02*
X208395770Y-108509719D01*
X208395770Y-108509719D02*
X208586246Y-108509719D01*
X208586246Y-108509719D02*
X208681484Y-108462100D01*
X208681484Y-108462100D02*
X208729103Y-108366861D01*
X208729103Y-108366861D02*
X208729103Y-107985909D01*
X208729103Y-107985909D02*
X208681484Y-107890671D01*
X208681484Y-107890671D02*
X208586246Y-107843052D01*
X208586246Y-107843052D02*
X208395770Y-107843052D01*
X208395770Y-107843052D02*
X208300532Y-107890671D01*
X208300532Y-107890671D02*
X208252913Y-107985909D01*
X208252913Y-107985909D02*
X208252913Y-108081147D01*
X208252913Y-108081147D02*
X208729103Y-108176385D01*
X207871960Y-108462100D02*
X207776722Y-108509719D01*
X207776722Y-108509719D02*
X207586246Y-108509719D01*
X207586246Y-108509719D02*
X207491008Y-108462100D01*
X207491008Y-108462100D02*
X207443389Y-108366861D01*
X207443389Y-108366861D02*
X207443389Y-108319242D01*
X207443389Y-108319242D02*
X207491008Y-108224004D01*
X207491008Y-108224004D02*
X207586246Y-108176385D01*
X207586246Y-108176385D02*
X207729103Y-108176385D01*
X207729103Y-108176385D02*
X207824341Y-108128766D01*
X207824341Y-108128766D02*
X207871960Y-108033528D01*
X207871960Y-108033528D02*
X207871960Y-107985909D01*
X207871960Y-107985909D02*
X207824341Y-107890671D01*
X207824341Y-107890671D02*
X207729103Y-107843052D01*
X207729103Y-107843052D02*
X207586246Y-107843052D01*
X207586246Y-107843052D02*
X207491008Y-107890671D01*
X215300533Y-109119663D02*
X215300533Y-109833948D01*
X215300533Y-109833948D02*
X215348152Y-109976805D01*
X215348152Y-109976805D02*
X215443390Y-110072044D01*
X215443390Y-110072044D02*
X215586247Y-110119663D01*
X215586247Y-110119663D02*
X215681485Y-110119663D01*
X214443390Y-110072044D02*
X214538628Y-110119663D01*
X214538628Y-110119663D02*
X214729104Y-110119663D01*
X214729104Y-110119663D02*
X214824342Y-110072044D01*
X214824342Y-110072044D02*
X214871961Y-109976805D01*
X214871961Y-109976805D02*
X214871961Y-109595853D01*
X214871961Y-109595853D02*
X214824342Y-109500615D01*
X214824342Y-109500615D02*
X214729104Y-109452996D01*
X214729104Y-109452996D02*
X214538628Y-109452996D01*
X214538628Y-109452996D02*
X214443390Y-109500615D01*
X214443390Y-109500615D02*
X214395771Y-109595853D01*
X214395771Y-109595853D02*
X214395771Y-109691091D01*
X214395771Y-109691091D02*
X214871961Y-109786329D01*
X213967199Y-110119663D02*
X213967199Y-109452996D01*
X213967199Y-109643472D02*
X213919580Y-109548234D01*
X213919580Y-109548234D02*
X213871961Y-109500615D01*
X213871961Y-109500615D02*
X213776723Y-109452996D01*
X213776723Y-109452996D02*
X213681485Y-109452996D01*
X212919580Y-109452996D02*
X212919580Y-110119663D01*
X213348151Y-109452996D02*
X213348151Y-109976805D01*
X213348151Y-109976805D02*
X213300532Y-110072044D01*
X213300532Y-110072044D02*
X213205294Y-110119663D01*
X213205294Y-110119663D02*
X213062437Y-110119663D01*
X213062437Y-110119663D02*
X212967199Y-110072044D01*
X212967199Y-110072044D02*
X212919580Y-110024424D01*
X212491008Y-110072044D02*
X212395770Y-110119663D01*
X212395770Y-110119663D02*
X212205294Y-110119663D01*
X212205294Y-110119663D02*
X212110056Y-110072044D01*
X212110056Y-110072044D02*
X212062437Y-109976805D01*
X212062437Y-109976805D02*
X212062437Y-109929186D01*
X212062437Y-109929186D02*
X212110056Y-109833948D01*
X212110056Y-109833948D02*
X212205294Y-109786329D01*
X212205294Y-109786329D02*
X212348151Y-109786329D01*
X212348151Y-109786329D02*
X212443389Y-109738710D01*
X212443389Y-109738710D02*
X212491008Y-109643472D01*
X212491008Y-109643472D02*
X212491008Y-109595853D01*
X212491008Y-109595853D02*
X212443389Y-109500615D01*
X212443389Y-109500615D02*
X212348151Y-109452996D01*
X212348151Y-109452996D02*
X212205294Y-109452996D01*
X212205294Y-109452996D02*
X212110056Y-109500615D01*
X211633865Y-110119663D02*
X211633865Y-109119663D01*
X211205294Y-110119663D02*
X211205294Y-109595853D01*
X211205294Y-109595853D02*
X211252913Y-109500615D01*
X211252913Y-109500615D02*
X211348151Y-109452996D01*
X211348151Y-109452996D02*
X211491008Y-109452996D01*
X211491008Y-109452996D02*
X211586246Y-109500615D01*
X211586246Y-109500615D02*
X211633865Y-109548234D01*
X210300532Y-110119663D02*
X210300532Y-109595853D01*
X210300532Y-109595853D02*
X210348151Y-109500615D01*
X210348151Y-109500615D02*
X210443389Y-109452996D01*
X210443389Y-109452996D02*
X210633865Y-109452996D01*
X210633865Y-109452996D02*
X210729103Y-109500615D01*
X210300532Y-110072044D02*
X210395770Y-110119663D01*
X210395770Y-110119663D02*
X210633865Y-110119663D01*
X210633865Y-110119663D02*
X210729103Y-110072044D01*
X210729103Y-110072044D02*
X210776722Y-109976805D01*
X210776722Y-109976805D02*
X210776722Y-109881567D01*
X210776722Y-109881567D02*
X210729103Y-109786329D01*
X210729103Y-109786329D02*
X210633865Y-109738710D01*
X210633865Y-109738710D02*
X210395770Y-109738710D01*
X210395770Y-109738710D02*
X210300532Y-109691091D01*
X209824341Y-110119663D02*
X209824341Y-109119663D01*
X209395770Y-110119663D02*
X209395770Y-109595853D01*
X209395770Y-109595853D02*
X209443389Y-109500615D01*
X209443389Y-109500615D02*
X209538627Y-109452996D01*
X209538627Y-109452996D02*
X209681484Y-109452996D01*
X209681484Y-109452996D02*
X209776722Y-109500615D01*
X209776722Y-109500615D02*
X209824341Y-109548234D01*
X208205293Y-109833948D02*
X207729103Y-109833948D01*
X208300531Y-110119663D02*
X207967198Y-109119663D01*
X207967198Y-109119663D02*
X207633865Y-110119663D01*
X207157674Y-110119663D02*
X207252912Y-110072044D01*
X207252912Y-110072044D02*
X207300531Y-109976805D01*
X207300531Y-109976805D02*
X207300531Y-109119663D01*
X206395769Y-110072044D02*
X206491007Y-110119663D01*
X206491007Y-110119663D02*
X206681483Y-110119663D01*
X206681483Y-110119663D02*
X206776721Y-110072044D01*
X206776721Y-110072044D02*
X206824340Y-109976805D01*
X206824340Y-109976805D02*
X206824340Y-109595853D01*
X206824340Y-109595853D02*
X206776721Y-109500615D01*
X206776721Y-109500615D02*
X206681483Y-109452996D01*
X206681483Y-109452996D02*
X206491007Y-109452996D01*
X206491007Y-109452996D02*
X206395769Y-109500615D01*
X206395769Y-109500615D02*
X206348150Y-109595853D01*
X206348150Y-109595853D02*
X206348150Y-109691091D01*
X206348150Y-109691091D02*
X206824340Y-109786329D01*
X206014816Y-110119663D02*
X205491007Y-109452996D01*
X206014816Y-109452996D02*
X205491007Y-110119663D01*
X204681483Y-110119663D02*
X204681483Y-109595853D01*
X204681483Y-109595853D02*
X204729102Y-109500615D01*
X204729102Y-109500615D02*
X204824340Y-109452996D01*
X204824340Y-109452996D02*
X205014816Y-109452996D01*
X205014816Y-109452996D02*
X205110054Y-109500615D01*
X204681483Y-110072044D02*
X204776721Y-110119663D01*
X204776721Y-110119663D02*
X205014816Y-110119663D01*
X205014816Y-110119663D02*
X205110054Y-110072044D01*
X205110054Y-110072044D02*
X205157673Y-109976805D01*
X205157673Y-109976805D02*
X205157673Y-109881567D01*
X205157673Y-109881567D02*
X205110054Y-109786329D01*
X205110054Y-109786329D02*
X205014816Y-109738710D01*
X205014816Y-109738710D02*
X204776721Y-109738710D01*
X204776721Y-109738710D02*
X204681483Y-109691091D01*
X204205292Y-109452996D02*
X204205292Y-110119663D01*
X204205292Y-109548234D02*
X204157673Y-109500615D01*
X204157673Y-109500615D02*
X204062435Y-109452996D01*
X204062435Y-109452996D02*
X203919578Y-109452996D01*
X203919578Y-109452996D02*
X203824340Y-109500615D01*
X203824340Y-109500615D02*
X203776721Y-109595853D01*
X203776721Y-109595853D02*
X203776721Y-110119663D01*
X202871959Y-110119663D02*
X202871959Y-109119663D01*
X202871959Y-110072044D02*
X202967197Y-110119663D01*
X202967197Y-110119663D02*
X203157673Y-110119663D01*
X203157673Y-110119663D02*
X203252911Y-110072044D01*
X203252911Y-110072044D02*
X203300530Y-110024424D01*
X203300530Y-110024424D02*
X203348149Y-109929186D01*
X203348149Y-109929186D02*
X203348149Y-109643472D01*
X203348149Y-109643472D02*
X203300530Y-109548234D01*
X203300530Y-109548234D02*
X203252911Y-109500615D01*
X203252911Y-109500615D02*
X203157673Y-109452996D01*
X203157673Y-109452996D02*
X202967197Y-109452996D01*
X202967197Y-109452996D02*
X202871959Y-109500615D01*
X202014816Y-110072044D02*
X202110054Y-110119663D01*
X202110054Y-110119663D02*
X202300530Y-110119663D01*
X202300530Y-110119663D02*
X202395768Y-110072044D01*
X202395768Y-110072044D02*
X202443387Y-109976805D01*
X202443387Y-109976805D02*
X202443387Y-109595853D01*
X202443387Y-109595853D02*
X202395768Y-109500615D01*
X202395768Y-109500615D02*
X202300530Y-109452996D01*
X202300530Y-109452996D02*
X202110054Y-109452996D01*
X202110054Y-109452996D02*
X202014816Y-109500615D01*
X202014816Y-109500615D02*
X201967197Y-109595853D01*
X201967197Y-109595853D02*
X201967197Y-109691091D01*
X201967197Y-109691091D02*
X202443387Y-109786329D01*
X201538625Y-110119663D02*
X201538625Y-109452996D01*
X201538625Y-109643472D02*
X201491006Y-109548234D01*
X201491006Y-109548234D02*
X201443387Y-109500615D01*
X201443387Y-109500615D02*
X201348149Y-109452996D01*
X201348149Y-109452996D02*
X201252911Y-109452996D01*
%LPC*%
D11*
X160925000Y-96020000D03*
D12*
X160925000Y-94750000D03*
X160925000Y-93480000D03*
D13*
X171700000Y-74325000D03*
D14*
X171700000Y-76865000D03*
X171700000Y-79405000D03*
X171700000Y-81945000D03*
X171700000Y-84485000D03*
X171700000Y-87025000D03*
X171700000Y-89565000D03*
X171700000Y-92105000D03*
X171700000Y-94645000D03*
X171700000Y-97185000D03*
X179320000Y-97185000D03*
X179320000Y-94645000D03*
X179320000Y-92105000D03*
X179320000Y-89565000D03*
X179320000Y-87025000D03*
X179320000Y-84485000D03*
X179320000Y-81945000D03*
X179320000Y-79405000D03*
X179320000Y-76865000D03*
X179320000Y-74325000D03*
D15*
X164700000Y-109225000D03*
D16*
X167240000Y-109225000D03*
X169780000Y-109225000D03*
X172320000Y-109225000D03*
D17*
X146050000Y-97000000D03*
D18*
X146050000Y-99500000D03*
D19*
X177500000Y-108450000D03*
D20*
X180000000Y-108450000D03*
D21*
X212750000Y-78250000D03*
X210750000Y-78250000D03*
X208750000Y-78250000D03*
X206750000Y-78250000D03*
X204750000Y-78250000D03*
X202750000Y-78250000D03*
X200750000Y-78250000D03*
X198750000Y-78250000D03*
X196750000Y-78250000D03*
X194750000Y-78250000D03*
X194750000Y-100094000D03*
X196750000Y-100094000D03*
X198750000Y-100094000D03*
X200750000Y-100094000D03*
X202750000Y-100094000D03*
X204750000Y-100094000D03*
X206750000Y-100094000D03*
X208750000Y-100094000D03*
X210750000Y-100094000D03*
X212750000Y-100094000D03*
%LPD*%
M02*
