G04 #@! TF.GenerationSoftware,KiCad,Pcbnew,8.0.6*
G04 #@! TF.CreationDate,2025-02-13T22:05:00-07:00*
G04 #@! TF.ProjectId,PACS_1.0,50414353-5f31-42e3-902e-6b696361645f,rev?*
G04 #@! TF.SameCoordinates,Original*
G04 #@! TF.FileFunction,Copper,L1,Top*
G04 #@! TF.FilePolarity,Positive*
%FSLAX46Y46*%
G04 Gerber Fmt 4.6, Leading zero omitted, Abs format (unit mm)*
G04 Created by KiCad (PCBNEW 8.0.6) date 2025-02-13 22:05:00*
%MOMM*%
%LPD*%
G01*
G04 APERTURE LIST*
G04 Aperture macros list*
%AMRoundRect*
0 Rectangle with rounded corners*
0 $1 Rounding radius*
0 $2 $3 $4 $5 $6 $7 $8 $9 X,Y pos of 4 corners*
0 Add a 4 corners polygon primitive as box body*
4,1,4,$2,$3,$4,$5,$6,$7,$8,$9,$2,$3,0*
0 Add four circle primitives for the rounded corners*
1,1,$1+$1,$2,$3*
1,1,$1+$1,$4,$5*
1,1,$1+$1,$6,$7*
1,1,$1+$1,$8,$9*
0 Add four rect primitives between the rounded corners*
20,1,$1+$1,$2,$3,$4,$5,0*
20,1,$1+$1,$4,$5,$6,$7,0*
20,1,$1+$1,$6,$7,$8,$9,0*
20,1,$1+$1,$8,$9,$2,$3,0*%
G04 Aperture macros list end*
G04 #@! TA.AperFunction,ComponentPad*
%ADD10R,1.500000X1.050000*%
G04 #@! TD*
G04 #@! TA.AperFunction,ComponentPad*
%ADD11O,1.500000X1.050000*%
G04 #@! TD*
G04 #@! TA.AperFunction,SMDPad,CuDef*
%ADD12RoundRect,0.140000X-0.140000X-0.170000X0.140000X-0.170000X0.140000X0.170000X-0.140000X0.170000X0*%
G04 #@! TD*
G04 #@! TA.AperFunction,SMDPad,CuDef*
%ADD13RoundRect,0.135000X-0.135000X-0.185000X0.135000X-0.185000X0.135000X0.185000X-0.135000X0.185000X0*%
G04 #@! TD*
G04 #@! TA.AperFunction,ComponentPad*
%ADD14R,1.600000X1.600000*%
G04 #@! TD*
G04 #@! TA.AperFunction,ComponentPad*
%ADD15O,1.600000X1.600000*%
G04 #@! TD*
G04 #@! TA.AperFunction,SMDPad,CuDef*
%ADD16RoundRect,0.200000X0.200000X0.275000X-0.200000X0.275000X-0.200000X-0.275000X0.200000X-0.275000X0*%
G04 #@! TD*
G04 #@! TA.AperFunction,SMDPad,CuDef*
%ADD17RoundRect,0.150000X0.150000X-0.587500X0.150000X0.587500X-0.150000X0.587500X-0.150000X-0.587500X0*%
G04 #@! TD*
G04 #@! TA.AperFunction,SMDPad,CuDef*
%ADD18RoundRect,0.135000X-0.185000X0.135000X-0.185000X-0.135000X0.185000X-0.135000X0.185000X0.135000X0*%
G04 #@! TD*
G04 #@! TA.AperFunction,SMDPad,CuDef*
%ADD19RoundRect,0.225000X0.250000X-0.225000X0.250000X0.225000X-0.250000X0.225000X-0.250000X-0.225000X0*%
G04 #@! TD*
G04 #@! TA.AperFunction,SMDPad,CuDef*
%ADD20RoundRect,0.075000X-0.250000X-0.075000X0.250000X-0.075000X0.250000X0.075000X-0.250000X0.075000X0*%
G04 #@! TD*
G04 #@! TA.AperFunction,SMDPad,CuDef*
%ADD21RoundRect,0.135000X0.135000X0.185000X-0.135000X0.185000X-0.135000X-0.185000X0.135000X-0.185000X0*%
G04 #@! TD*
G04 #@! TA.AperFunction,SMDPad,CuDef*
%ADD22RoundRect,0.250000X-0.250000X-0.475000X0.250000X-0.475000X0.250000X0.475000X-0.250000X0.475000X0*%
G04 #@! TD*
G04 #@! TA.AperFunction,ComponentPad*
%ADD23R,1.700000X1.700000*%
G04 #@! TD*
G04 #@! TA.AperFunction,ComponentPad*
%ADD24O,1.700000X1.700000*%
G04 #@! TD*
G04 #@! TA.AperFunction,SMDPad,CuDef*
%ADD25RoundRect,0.225000X-0.225000X-0.250000X0.225000X-0.250000X0.225000X0.250000X-0.225000X0.250000X0*%
G04 #@! TD*
G04 #@! TA.AperFunction,ComponentPad*
%ADD26RoundRect,0.250000X-0.750000X0.600000X-0.750000X-0.600000X0.750000X-0.600000X0.750000X0.600000X0*%
G04 #@! TD*
G04 #@! TA.AperFunction,ComponentPad*
%ADD27O,2.000000X1.700000*%
G04 #@! TD*
G04 #@! TA.AperFunction,SMDPad,CuDef*
%ADD28RoundRect,0.162500X-0.447500X-0.162500X0.447500X-0.162500X0.447500X0.162500X-0.447500X0.162500X0*%
G04 #@! TD*
G04 #@! TA.AperFunction,SMDPad,CuDef*
%ADD29RoundRect,0.140000X0.140000X0.170000X-0.140000X0.170000X-0.140000X-0.170000X0.140000X-0.170000X0*%
G04 #@! TD*
G04 #@! TA.AperFunction,SMDPad,CuDef*
%ADD30RoundRect,0.225000X-0.250000X0.225000X-0.250000X-0.225000X0.250000X-0.225000X0.250000X0.225000X0*%
G04 #@! TD*
G04 #@! TA.AperFunction,SMDPad,CuDef*
%ADD31RoundRect,0.250000X1.000000X0.650000X-1.000000X0.650000X-1.000000X-0.650000X1.000000X-0.650000X0*%
G04 #@! TD*
G04 #@! TA.AperFunction,SMDPad,CuDef*
%ADD32RoundRect,0.073750X-0.551250X-0.221250X0.551250X-0.221250X0.551250X0.221250X-0.551250X0.221250X0*%
G04 #@! TD*
G04 #@! TA.AperFunction,SMDPad,CuDef*
%ADD33RoundRect,0.250000X-1.450000X0.312500X-1.450000X-0.312500X1.450000X-0.312500X1.450000X0.312500X0*%
G04 #@! TD*
G04 #@! TA.AperFunction,SMDPad,CuDef*
%ADD34RoundRect,0.200000X0.275000X-0.200000X0.275000X0.200000X-0.275000X0.200000X-0.275000X-0.200000X0*%
G04 #@! TD*
G04 #@! TA.AperFunction,SMDPad,CuDef*
%ADD35RoundRect,0.135000X0.185000X-0.135000X0.185000X0.135000X-0.185000X0.135000X-0.185000X-0.135000X0*%
G04 #@! TD*
G04 #@! TA.AperFunction,SMDPad,CuDef*
%ADD36RoundRect,0.140000X-0.170000X0.140000X-0.170000X-0.140000X0.170000X-0.140000X0.170000X0.140000X0*%
G04 #@! TD*
G04 #@! TA.AperFunction,SMDPad,CuDef*
%ADD37RoundRect,0.140000X0.170000X-0.140000X0.170000X0.140000X-0.170000X0.140000X-0.170000X-0.140000X0*%
G04 #@! TD*
G04 #@! TA.AperFunction,ComponentPad*
%ADD38RoundRect,0.250000X-0.600000X-0.750000X0.600000X-0.750000X0.600000X0.750000X-0.600000X0.750000X0*%
G04 #@! TD*
G04 #@! TA.AperFunction,ComponentPad*
%ADD39O,1.700000X2.000000*%
G04 #@! TD*
G04 #@! TA.AperFunction,SMDPad,CuDef*
%ADD40RoundRect,0.250000X0.475000X-0.250000X0.475000X0.250000X-0.475000X0.250000X-0.475000X-0.250000X0*%
G04 #@! TD*
G04 #@! TA.AperFunction,SMDPad,CuDef*
%ADD41RoundRect,0.235000X-0.940000X-1.465000X0.940000X-1.465000X0.940000X1.465000X-0.940000X1.465000X0*%
G04 #@! TD*
G04 #@! TA.AperFunction,ComponentPad*
%ADD42C,1.524000*%
G04 #@! TD*
G04 #@! TA.AperFunction,SMDPad,CuDef*
%ADD43RoundRect,0.150000X-0.512500X-0.150000X0.512500X-0.150000X0.512500X0.150000X-0.512500X0.150000X0*%
G04 #@! TD*
G04 #@! TA.AperFunction,ViaPad*
%ADD44C,0.600000*%
G04 #@! TD*
G04 #@! TA.AperFunction,ViaPad*
%ADD45C,1.000000*%
G04 #@! TD*
G04 #@! TA.AperFunction,Conductor*
%ADD46C,0.500000*%
G04 #@! TD*
G04 #@! TA.AperFunction,Conductor*
%ADD47C,0.250000*%
G04 #@! TD*
G04 #@! TA.AperFunction,Conductor*
%ADD48C,0.300000*%
G04 #@! TD*
G04 #@! TA.AperFunction,Conductor*
%ADD49C,0.750000*%
G04 #@! TD*
G04 APERTURE END LIST*
D10*
X160925000Y-96020000D03*
D11*
X160925000Y-94750000D03*
X160925000Y-93480000D03*
D12*
X149520000Y-85500000D03*
X150480000Y-85500000D03*
D13*
X168240000Y-97250000D03*
X169260000Y-97250000D03*
X189990000Y-91500000D03*
X191010000Y-91500000D03*
D14*
X171700000Y-74325000D03*
D15*
X171700000Y-76865000D03*
X171700000Y-79405000D03*
X171700000Y-81945000D03*
X171700000Y-84485000D03*
X171700000Y-87025000D03*
X171700000Y-89565000D03*
X171700000Y-92105000D03*
X171700000Y-94645000D03*
X171700000Y-97185000D03*
X179320000Y-97185000D03*
X179320000Y-94645000D03*
X179320000Y-92105000D03*
X179320000Y-89565000D03*
X179320000Y-87025000D03*
X179320000Y-84485000D03*
X179320000Y-81945000D03*
X179320000Y-79405000D03*
X179320000Y-76865000D03*
X179320000Y-74325000D03*
D16*
X189075000Y-81750000D03*
X187425000Y-81750000D03*
D17*
X166500000Y-85175000D03*
X168400000Y-85175000D03*
X167450000Y-83300000D03*
D18*
X171750000Y-99990000D03*
X171750000Y-101010000D03*
D19*
X167750000Y-74275000D03*
X167750000Y-72725000D03*
D20*
X183100000Y-88100000D03*
X183100000Y-88750000D03*
X183100000Y-89400000D03*
X184900000Y-89400000D03*
X184900000Y-88750000D03*
X184900000Y-88100000D03*
D21*
X154010000Y-85250000D03*
X152990000Y-85250000D03*
D22*
X149750000Y-87250000D03*
X151650000Y-87250000D03*
D23*
X164700000Y-109225000D03*
D24*
X167240000Y-109225000D03*
X169780000Y-109225000D03*
X172320000Y-109225000D03*
D18*
X184050000Y-73665000D03*
X184050000Y-74685000D03*
D25*
X183475000Y-84500000D03*
X185025000Y-84500000D03*
X162850000Y-85175000D03*
X164400000Y-85175000D03*
D21*
X155760000Y-95750000D03*
X154740000Y-95750000D03*
D26*
X146050000Y-97000000D03*
D27*
X146050000Y-99500000D03*
D28*
X159080000Y-89050000D03*
X159080000Y-90950000D03*
X161700000Y-90000000D03*
D29*
X148080000Y-78600000D03*
X147120000Y-78600000D03*
D19*
X184070000Y-93525000D03*
X184070000Y-91975000D03*
D18*
X187750000Y-98540000D03*
X187750000Y-99560000D03*
D30*
X161750000Y-74225000D03*
X161750000Y-75775000D03*
D31*
X181500000Y-104250000D03*
X177500000Y-104250000D03*
D32*
X149490000Y-81850000D03*
X149490000Y-82800000D03*
X149490000Y-83750000D03*
X152000000Y-83750000D03*
X152000000Y-82800000D03*
X152000000Y-81850000D03*
D19*
X210400000Y-74450000D03*
X210400000Y-72900000D03*
D33*
X150500000Y-96862500D03*
X150500000Y-101137500D03*
D30*
X159750000Y-74225000D03*
X159750000Y-75775000D03*
D21*
X188760000Y-89500000D03*
X187740000Y-89500000D03*
D34*
X166140000Y-90825000D03*
X166140000Y-89175000D03*
D35*
X157140000Y-90010000D03*
X157140000Y-88990000D03*
D22*
X149750000Y-89500000D03*
X151650000Y-89500000D03*
D36*
X169400000Y-74295000D03*
X169400000Y-75255000D03*
D34*
X163640000Y-90825000D03*
X163640000Y-89175000D03*
D37*
X212550000Y-74505000D03*
X212550000Y-73545000D03*
D13*
X163880000Y-95000000D03*
X164900000Y-95000000D03*
D21*
X164900000Y-96250000D03*
X163880000Y-96250000D03*
X188760000Y-88000000D03*
X187740000Y-88000000D03*
D38*
X177500000Y-108450000D03*
D39*
X180000000Y-108450000D03*
D28*
X171690000Y-103050000D03*
X171690000Y-104950000D03*
X174310000Y-104000000D03*
D40*
X165250000Y-74200000D03*
X165250000Y-72300000D03*
D41*
X149975000Y-75250000D03*
X156025000Y-75250000D03*
D13*
X155290000Y-83750000D03*
X156310000Y-83750000D03*
D42*
X212750000Y-78250000D03*
X210750000Y-78250000D03*
X208750000Y-78250000D03*
X206750000Y-78250000D03*
X204750000Y-78250000D03*
X202750000Y-78250000D03*
X200750000Y-78250000D03*
X198750000Y-78250000D03*
X196750000Y-78250000D03*
X194750000Y-78250000D03*
X194750000Y-100094000D03*
X196750000Y-100094000D03*
X198750000Y-100094000D03*
X200750000Y-100094000D03*
X202750000Y-100094000D03*
X204750000Y-100094000D03*
X206750000Y-100094000D03*
X208750000Y-100094000D03*
X210750000Y-100094000D03*
X212750000Y-100094000D03*
D35*
X186450000Y-77460000D03*
X186450000Y-76440000D03*
D43*
X156112500Y-100175000D03*
X156112500Y-101125000D03*
X156112500Y-102075000D03*
X158387500Y-102075000D03*
X158387500Y-100175000D03*
D35*
X154000000Y-83760000D03*
X154000000Y-82740000D03*
D44*
X183250000Y-109800000D03*
X175650000Y-105550000D03*
X185525000Y-100825000D03*
X191250000Y-99850000D03*
X165150000Y-75800000D03*
X153300000Y-89800000D03*
X156574169Y-98500000D03*
X161150000Y-86200000D03*
X182025000Y-101875000D03*
X153100000Y-107850000D03*
X176500000Y-101350000D03*
X146061436Y-93864838D03*
X157050000Y-94650000D03*
X150775000Y-105750000D03*
X163425000Y-98975000D03*
X187825000Y-103025000D03*
X187850000Y-108650000D03*
X157650000Y-110150000D03*
X153300000Y-88650000D03*
X161150000Y-83950000D03*
X161050000Y-103450000D03*
X169000000Y-80950000D03*
X173800000Y-92225000D03*
X164600000Y-98975000D03*
X160000000Y-83950000D03*
X177250000Y-97850000D03*
X151925000Y-105750000D03*
X166550000Y-87900000D03*
X153075000Y-105750000D03*
X147195412Y-86168778D03*
X168650000Y-87900000D03*
X166100000Y-81800000D03*
X147850000Y-74350000D03*
X169000000Y-78950000D03*
X159950000Y-104600000D03*
X164600000Y-101150000D03*
X162800000Y-72850000D03*
X152500000Y-73050000D03*
X191650000Y-79200000D03*
X190500000Y-77050000D03*
X184400000Y-106350000D03*
X165700000Y-100125000D03*
X169900000Y-106700000D03*
X165350000Y-86600000D03*
X178350000Y-99000000D03*
X193875000Y-82450000D03*
X174300000Y-100325000D03*
X164025000Y-70850000D03*
X183250000Y-108650000D03*
X145075000Y-101350000D03*
X146225000Y-105750000D03*
X161050000Y-102500000D03*
X156500000Y-110150000D03*
X184375000Y-104175000D03*
X186300000Y-86850000D03*
X162850000Y-79600000D03*
X155375000Y-103450000D03*
X180878892Y-98562928D03*
X162800000Y-70850000D03*
X182025000Y-100825000D03*
X160600000Y-82900000D03*
X151950000Y-109000000D03*
X184400000Y-108650000D03*
X144600000Y-79631222D03*
X157625000Y-103450000D03*
X148200000Y-99500000D03*
X146061436Y-91664838D03*
X165700000Y-97825000D03*
X146061436Y-95014838D03*
X144600000Y-74381222D03*
X162200000Y-107850000D03*
X152500000Y-78200000D03*
X146045412Y-87218778D03*
X160500000Y-70850000D03*
X144595412Y-75400000D03*
X180875000Y-99700000D03*
X180900000Y-100825000D03*
X151925000Y-104600000D03*
X177250000Y-86800000D03*
X157700000Y-86200000D03*
X149423072Y-92826866D03*
X190100000Y-101875000D03*
X150275000Y-71900000D03*
X168475000Y-70850000D03*
X195025000Y-81400000D03*
X163425000Y-97825000D03*
X164600000Y-100125000D03*
X193550000Y-108650000D03*
X148273072Y-92826866D03*
X168800000Y-106700000D03*
X177250000Y-88975000D03*
X191300000Y-71000000D03*
X144911436Y-93864838D03*
X177250000Y-82200000D03*
X153650000Y-71900000D03*
X161750000Y-79600000D03*
X144895412Y-85118778D03*
X159950000Y-107850000D03*
X176500000Y-102500000D03*
X193875000Y-84750000D03*
X154795412Y-80268778D03*
X190100000Y-108650000D03*
X153300000Y-90950000D03*
X168650000Y-86750000D03*
X175650000Y-107850000D03*
X160750000Y-88650000D03*
X147375000Y-103450000D03*
X175400000Y-102500000D03*
X170000000Y-78950000D03*
X192725000Y-82450000D03*
X185550000Y-108650000D03*
X165850000Y-92250000D03*
X153650000Y-79250000D03*
X156525000Y-105750000D03*
X187825000Y-100825000D03*
X158300000Y-79600000D03*
X148273072Y-93876866D03*
X176125000Y-74450000D03*
X183175000Y-101875000D03*
X150800000Y-106700000D03*
X185550000Y-106350000D03*
X192725000Y-83600000D03*
X148500000Y-109000000D03*
X191250000Y-105325000D03*
X170000000Y-81950000D03*
X194700000Y-103025000D03*
X161150000Y-87350000D03*
X151925000Y-103450000D03*
X173200000Y-101350000D03*
X147211436Y-90614838D03*
X194750000Y-72200000D03*
X147195412Y-85118778D03*
X158850000Y-85100000D03*
X151950000Y-110150000D03*
X192400000Y-100825000D03*
X183227265Y-99848703D03*
X150573072Y-93876866D03*
X151350000Y-71900000D03*
X162850000Y-82900000D03*
X186850000Y-94075000D03*
X173800000Y-85650000D03*
X161750000Y-77300000D03*
X186675000Y-104175000D03*
X153650000Y-70850000D03*
X187450000Y-86850000D03*
X145745412Y-75400000D03*
X158800000Y-107850000D03*
X163300000Y-87750000D03*
X149125000Y-70850000D03*
X177250000Y-84500000D03*
X181550000Y-75200000D03*
X156500000Y-106700000D03*
X156525000Y-103450000D03*
X160600000Y-81750000D03*
X188950000Y-105325000D03*
X153645412Y-80268778D03*
X192400000Y-101875000D03*
X194700000Y-105325000D03*
X158800000Y-109000000D03*
X175650000Y-106700000D03*
X168800000Y-105550000D03*
X158300000Y-82900000D03*
X193525000Y-71000000D03*
X162200000Y-102300000D03*
X151950000Y-106700000D03*
X174300000Y-101350000D03*
X150350000Y-80600000D03*
X150800000Y-107850000D03*
X193875000Y-83600000D03*
X184375000Y-103025000D03*
X186675000Y-72150000D03*
X190500000Y-80250000D03*
X192400000Y-99850000D03*
X186675000Y-100825000D03*
X167325000Y-70850000D03*
X150800000Y-110150000D03*
X188950000Y-107500000D03*
X155375000Y-105750000D03*
X159050000Y-92350000D03*
X188950000Y-103025000D03*
X173800000Y-97850000D03*
X184450000Y-71000000D03*
X153645412Y-77168778D03*
X154200000Y-106700000D03*
X182375000Y-90950000D03*
X175350000Y-100350000D03*
X185527265Y-99848703D03*
X169900000Y-102300000D03*
X150350000Y-79750000D03*
X169950000Y-77850000D03*
X159950000Y-103450000D03*
X146061436Y-90614838D03*
X152495412Y-77168778D03*
X158850000Y-83950000D03*
X187450000Y-85025000D03*
X162250000Y-91450000D03*
X152500000Y-70850000D03*
X187850000Y-106350000D03*
X163450000Y-106700000D03*
X148525000Y-105750000D03*
X164000000Y-80100000D03*
X165700000Y-101150000D03*
X168800000Y-101150000D03*
X153100000Y-110150000D03*
X158200000Y-71900000D03*
X173800000Y-95550000D03*
X161050000Y-109000000D03*
X144911436Y-90614838D03*
X155375000Y-104600000D03*
X185550000Y-109800000D03*
X173800000Y-94400000D03*
X159450000Y-81750000D03*
X159950000Y-105750000D03*
X153000000Y-99800000D03*
X193550000Y-106350000D03*
X145750000Y-79631222D03*
X150775000Y-103450000D03*
X174450000Y-107850000D03*
X190100000Y-107500000D03*
X184400000Y-105350000D03*
X154825000Y-71900000D03*
X167550000Y-89000000D03*
X165850000Y-93400000D03*
X173350000Y-106700000D03*
X157050000Y-92350000D03*
X154200000Y-109000000D03*
X145750000Y-74381222D03*
X190500000Y-85825000D03*
X159450000Y-80600000D03*
X151350000Y-70850000D03*
X161050000Y-110150000D03*
X146061436Y-92714838D03*
X186675000Y-103025000D03*
X156500000Y-107850000D03*
X160500000Y-72850000D03*
X177250000Y-92225000D03*
X166300000Y-75800000D03*
X168800000Y-98975000D03*
X195025000Y-82450000D03*
X167550000Y-86750000D03*
X170000000Y-79950000D03*
X144895412Y-89518778D03*
X191250000Y-107500000D03*
X190100000Y-104175000D03*
X177250000Y-96700000D03*
X161750000Y-82900000D03*
X193550000Y-107500000D03*
X155838275Y-97695474D03*
X168800000Y-100125000D03*
X188050000Y-94075000D03*
X164600000Y-103450000D03*
X157625000Y-104600000D03*
X192725000Y-84750000D03*
X153650000Y-73050000D03*
X194700000Y-108650000D03*
X177250000Y-87825000D03*
X144595412Y-78600000D03*
X167050000Y-80950000D03*
X159050000Y-95650000D03*
X158057085Y-92357596D03*
X170675000Y-70850000D03*
X158050000Y-95650000D03*
X188050000Y-93200000D03*
X165700000Y-98975000D03*
X190500000Y-88125000D03*
X176125000Y-75550000D03*
X169550000Y-70850000D03*
X159950000Y-110150000D03*
X146045412Y-88368778D03*
X185525000Y-104175000D03*
X148500000Y-106700000D03*
X190500000Y-84750000D03*
X158300000Y-80600000D03*
X169900000Y-98975000D03*
X175400000Y-101350000D03*
X169750000Y-86750000D03*
X162850000Y-78450000D03*
X150300000Y-98450000D03*
X180725000Y-85775000D03*
X161750000Y-78450000D03*
X163450000Y-105550000D03*
X158057085Y-93475000D03*
X153650000Y-76150000D03*
X165700000Y-106700000D03*
X152495412Y-74068778D03*
X165150000Y-76800000D03*
X187825000Y-101875000D03*
X147375000Y-104600000D03*
X193875000Y-80250000D03*
X153645412Y-74068778D03*
X166250000Y-70850000D03*
X183175000Y-100825000D03*
X163575000Y-92250000D03*
X177250000Y-85650000D03*
X170000000Y-83950000D03*
X164000000Y-78950000D03*
X164000000Y-77800000D03*
X193550000Y-104175000D03*
X161900000Y-88650000D03*
X148500000Y-110150000D03*
X164600000Y-102300000D03*
X177250000Y-74450000D03*
X148200000Y-85100000D03*
X191650000Y-88125000D03*
X168800000Y-104400000D03*
X144600000Y-76531222D03*
X161050000Y-104600000D03*
X195025000Y-84750000D03*
X158775000Y-104600000D03*
X184400000Y-109800000D03*
X145075000Y-103450000D03*
X146225000Y-102400000D03*
X145075000Y-102400000D03*
X162150000Y-86600000D03*
X149650000Y-106700000D03*
X186700000Y-107500000D03*
X169550000Y-71950000D03*
X192400000Y-109800000D03*
X192725000Y-77050000D03*
X185700000Y-94075000D03*
X191250000Y-109800000D03*
X158775000Y-105750000D03*
X189100000Y-99800000D03*
X150800000Y-109000000D03*
X191650000Y-81400000D03*
X161650000Y-70850000D03*
X160000000Y-86200000D03*
X191650000Y-85825000D03*
X187050000Y-90600000D03*
X194700000Y-107500000D03*
X187450000Y-83325000D03*
X190500000Y-82450000D03*
X148200000Y-86150000D03*
X159450000Y-82900000D03*
X146704588Y-75481222D03*
X148525000Y-104600000D03*
X146700000Y-74350000D03*
X187450000Y-84150000D03*
X153100000Y-106700000D03*
X155350000Y-109000000D03*
X157650000Y-107850000D03*
X166300000Y-77800000D03*
X148200000Y-89500000D03*
X190100000Y-100825000D03*
X160600000Y-80600000D03*
X165175000Y-70850000D03*
X183250000Y-107500000D03*
X150775000Y-104600000D03*
X145750000Y-77581222D03*
X158200000Y-70850000D03*
X159950000Y-109000000D03*
X187850000Y-107500000D03*
X163300000Y-86600000D03*
X180950000Y-75950000D03*
X159350000Y-70850000D03*
X161050000Y-106700000D03*
X157050000Y-70850000D03*
X153300000Y-87600000D03*
X169900000Y-105550000D03*
X193550000Y-105325000D03*
X160600000Y-79600000D03*
X186700000Y-105350000D03*
X174950000Y-74450000D03*
X173800000Y-86800000D03*
X147195412Y-88368778D03*
X161750000Y-80600000D03*
X167550000Y-87900000D03*
X194700000Y-106350000D03*
X177250000Y-76700000D03*
X181225000Y-91825000D03*
X177250000Y-83350000D03*
X195025000Y-83600000D03*
X185550000Y-107500000D03*
X165700000Y-103450000D03*
X146225000Y-104600000D03*
X190100000Y-105325000D03*
X169900000Y-100125000D03*
X157700000Y-85100000D03*
X192725000Y-85775000D03*
X177250000Y-91075000D03*
X165350000Y-87750000D03*
X158850000Y-86200000D03*
X194700000Y-101875000D03*
X173800000Y-89925000D03*
X170000000Y-80950000D03*
X145750000Y-80681222D03*
X173800000Y-88975000D03*
X168000000Y-80950000D03*
X160000000Y-87350000D03*
X161050000Y-105750000D03*
X168800000Y-103450000D03*
X149350000Y-79750000D03*
X148500000Y-107850000D03*
X153650000Y-81300000D03*
X173200000Y-99175000D03*
X157050000Y-93500000D03*
X195025000Y-80250000D03*
X186675000Y-71000000D03*
X144900000Y-83050000D03*
X158775000Y-103450000D03*
X185525000Y-101875000D03*
X173200000Y-102500000D03*
X185700000Y-93200000D03*
X164000000Y-76800000D03*
X154800000Y-79250000D03*
X149250000Y-98450000D03*
X190025000Y-71000000D03*
X149650000Y-109000000D03*
X190500000Y-81400000D03*
X191250000Y-100825000D03*
X186700000Y-108650000D03*
X171825000Y-71950000D03*
X174450000Y-106700000D03*
X167000000Y-92250000D03*
X186300000Y-85025000D03*
X173800000Y-96700000D03*
X159450000Y-78450000D03*
X154225000Y-104600000D03*
X156500000Y-109000000D03*
X192400000Y-108650000D03*
X153300000Y-86550000D03*
X186700000Y-106350000D03*
X147211436Y-95014838D03*
X186300000Y-84150000D03*
X164350000Y-87750000D03*
X154800000Y-78200000D03*
X148200000Y-87200000D03*
X172900000Y-70850000D03*
X144911436Y-92714838D03*
X191250000Y-101875000D03*
X192725000Y-86975000D03*
X190100000Y-99850000D03*
X158057085Y-94625000D03*
X192400000Y-105325000D03*
X192400000Y-104175000D03*
X156600000Y-85100000D03*
X149430062Y-91654941D03*
X167450000Y-76800000D03*
X184375000Y-101875000D03*
X150573072Y-95026866D03*
X192400000Y-103025000D03*
X185525000Y-103025000D03*
X172175000Y-106700000D03*
X175650000Y-109000000D03*
X160600000Y-78450000D03*
X159450000Y-79600000D03*
X192725000Y-78050000D03*
X190100000Y-109800000D03*
X190500000Y-78050000D03*
X163425000Y-101150000D03*
X149675000Y-104600000D03*
X154200000Y-107850000D03*
X154225000Y-105750000D03*
X187850000Y-105350000D03*
X158300000Y-81750000D03*
X152500000Y-76150000D03*
X158300000Y-78450000D03*
X193525000Y-72150000D03*
X173800000Y-84500000D03*
X192400000Y-107500000D03*
X161650000Y-72850000D03*
X177250000Y-75550000D03*
X164600000Y-106700000D03*
X154200000Y-110150000D03*
X181025000Y-74350000D03*
X185600000Y-71000000D03*
X173800000Y-93375000D03*
X159050000Y-94625000D03*
X146225000Y-103450000D03*
X162200000Y-103450000D03*
X192400000Y-106350000D03*
X160500000Y-71900000D03*
X188950000Y-104175000D03*
X168800000Y-102300000D03*
X161050000Y-107850000D03*
X157700000Y-83950000D03*
X156600000Y-87350000D03*
X182050000Y-74450000D03*
X169000000Y-79950000D03*
X146750000Y-76500000D03*
X153075000Y-104600000D03*
X162200000Y-104600000D03*
X144895412Y-86168778D03*
X173800000Y-82200000D03*
X191300000Y-72150000D03*
X170675000Y-71950000D03*
X193875000Y-85775000D03*
X144895412Y-88368778D03*
X186300000Y-85975000D03*
X161650000Y-71900000D03*
X158800000Y-110150000D03*
X164600000Y-104400000D03*
X190500000Y-86975000D03*
X187850000Y-109800000D03*
X191650000Y-84750000D03*
X159050000Y-93475000D03*
X186275000Y-88750000D03*
X191650000Y-77050000D03*
X153075000Y-103450000D03*
X148200000Y-88350000D03*
X159950000Y-106700000D03*
X165700000Y-102300000D03*
X169900000Y-101150000D03*
X190100000Y-103025000D03*
X169000000Y-81950000D03*
X192450000Y-72150000D03*
X152500000Y-75100000D03*
X144895412Y-87218778D03*
X162200000Y-105750000D03*
X144600000Y-77581222D03*
X188950000Y-108650000D03*
X149650000Y-110150000D03*
X146045412Y-86168778D03*
X148525000Y-103450000D03*
X148450000Y-79750000D03*
X157650000Y-109000000D03*
X147195412Y-87218778D03*
X147211436Y-93864838D03*
X145745412Y-81700000D03*
X162850000Y-81750000D03*
X149125000Y-71900000D03*
X162200000Y-109000000D03*
X164600000Y-97825000D03*
X163425000Y-103450000D03*
X185350000Y-85975000D03*
X165700000Y-104400000D03*
X163450000Y-104400000D03*
X164750000Y-93400000D03*
X147375000Y-102400000D03*
X164350000Y-86600000D03*
X174450000Y-109000000D03*
X155350000Y-107850000D03*
X191650000Y-86975000D03*
X155975000Y-70850000D03*
X188950000Y-106350000D03*
X158850000Y-87350000D03*
X174300000Y-99175000D03*
X182375000Y-91825000D03*
X154100000Y-99800000D03*
X193875000Y-81400000D03*
X194800000Y-71025000D03*
X155350000Y-106700000D03*
X144911436Y-95014838D03*
X187450000Y-85975000D03*
X147375000Y-105750000D03*
X162200000Y-110150000D03*
X186700000Y-109800000D03*
X171825000Y-70850000D03*
X166300000Y-76800000D03*
X193550000Y-109800000D03*
X174300000Y-102500000D03*
X167450000Y-75800000D03*
X164000000Y-75800000D03*
X191250000Y-104175000D03*
X166550000Y-86750000D03*
X190500000Y-83600000D03*
X193550000Y-101875000D03*
X179650000Y-99700000D03*
X158300000Y-77300000D03*
X181675000Y-85775000D03*
X157625000Y-105750000D03*
X192725000Y-80250000D03*
X169900000Y-103450000D03*
X144900000Y-84100000D03*
X188950000Y-109800000D03*
X186675000Y-101875000D03*
X165700000Y-105550000D03*
X161750000Y-81750000D03*
X158200000Y-72850000D03*
X162850000Y-77300000D03*
X159350000Y-71900000D03*
X191650000Y-83600000D03*
X160600000Y-77300000D03*
X144595412Y-81700000D03*
X163425000Y-102300000D03*
X193550000Y-103025000D03*
X187800000Y-72150000D03*
X154225000Y-103450000D03*
X149350000Y-80600000D03*
X182025000Y-99700000D03*
X146050000Y-83050000D03*
X160250000Y-99750000D03*
X156600000Y-86200000D03*
X181225000Y-90950000D03*
X187825000Y-104175000D03*
X160000000Y-85100000D03*
X146045412Y-89518778D03*
X186300000Y-83325000D03*
X176125000Y-76700000D03*
X186500000Y-99850000D03*
X145750000Y-76531222D03*
X188950000Y-101875000D03*
X186850000Y-93200000D03*
X148450000Y-80600000D03*
X169900000Y-104400000D03*
X158800000Y-106700000D03*
X191650000Y-82450000D03*
X153100000Y-109000000D03*
X173800000Y-87825000D03*
X147211436Y-92714838D03*
X155350000Y-110150000D03*
X191650000Y-78050000D03*
X162550000Y-92800000D03*
X165150000Y-78950000D03*
X162800000Y-71900000D03*
X147854588Y-75481222D03*
X190500000Y-79200000D03*
X146050000Y-84100000D03*
X188950000Y-100825000D03*
X188950000Y-71000000D03*
X162200000Y-106700000D03*
X192725000Y-81400000D03*
X189200000Y-93200000D03*
X148216024Y-90596060D03*
X145075000Y-104600000D03*
X191250000Y-103025000D03*
X185350000Y-86850000D03*
X156525000Y-104600000D03*
X145745412Y-78600000D03*
X177250000Y-94400000D03*
X144600000Y-80681222D03*
X149423072Y-95026866D03*
X161150000Y-85100000D03*
X147195412Y-89518778D03*
X146225000Y-101350000D03*
X177250000Y-95550000D03*
X147211436Y-91664838D03*
X192725000Y-79200000D03*
X149423072Y-93876866D03*
X191650000Y-80250000D03*
X184377265Y-99848703D03*
X174950000Y-75550000D03*
X149675000Y-103450000D03*
X165150000Y-77800000D03*
X185600000Y-72150000D03*
X153650000Y-75100000D03*
X162850000Y-80600000D03*
X157050000Y-71900000D03*
X157425000Y-99000000D03*
X162150000Y-87750000D03*
X185550000Y-105350000D03*
X173800000Y-83350000D03*
X168000000Y-79950000D03*
X151950000Y-107850000D03*
X159350000Y-72850000D03*
X184375000Y-100825000D03*
X150573072Y-92826866D03*
X145075000Y-105750000D03*
X187800000Y-71000000D03*
X192450000Y-71000000D03*
X154800000Y-81300000D03*
X182375000Y-92775000D03*
X164600000Y-105550000D03*
X149650000Y-107850000D03*
X148273072Y-95026866D03*
X190025000Y-72150000D03*
X144911436Y-91664838D03*
X148200000Y-98450000D03*
X177250000Y-89925000D03*
X157650000Y-106700000D03*
X164750000Y-92250000D03*
X163425000Y-100125000D03*
X188950000Y-72150000D03*
X173200000Y-100325000D03*
X148280062Y-91654941D03*
X154825000Y-70850000D03*
X171075000Y-106700000D03*
X183250000Y-106350000D03*
X173825000Y-74450000D03*
X194700000Y-104175000D03*
X184400000Y-107500000D03*
X191250000Y-108650000D03*
X152500000Y-71900000D03*
X170000000Y-82950000D03*
X163575000Y-93400000D03*
X194700000Y-109800000D03*
X174450000Y-105550000D03*
X157700000Y-87350000D03*
X146045412Y-85118778D03*
X147375000Y-101350000D03*
X155975000Y-71900000D03*
X159450000Y-77300000D03*
X149250000Y-99500000D03*
X190100000Y-106350000D03*
X185475000Y-90625000D03*
X153650000Y-78200000D03*
X173800000Y-91075000D03*
X147200000Y-84100000D03*
X177250000Y-93375000D03*
X149675000Y-105750000D03*
X150275000Y-70850000D03*
X191250000Y-106350000D03*
D45*
X185050000Y-78550000D03*
X175575000Y-83325000D03*
X181300000Y-88100000D03*
X164400000Y-82900000D03*
D46*
X210400000Y-72900000D02*
X211905000Y-72900000D01*
X196275000Y-72500000D02*
X210000000Y-72500000D01*
X211905000Y-72900000D02*
X212550000Y-73545000D01*
X210000000Y-72500000D02*
X210400000Y-72900000D01*
D47*
X157425000Y-99000000D02*
X157425000Y-99212500D01*
X157425000Y-99212500D02*
X158387500Y-100175000D01*
D48*
X183100000Y-89400000D02*
X183971880Y-89400000D01*
D46*
X150480000Y-86080000D02*
X151650000Y-87250000D01*
D48*
X183971880Y-89400000D02*
X184621880Y-88750000D01*
X184621880Y-88750000D02*
X184900000Y-88750000D01*
D46*
X194800000Y-71025000D02*
X196275000Y-72500000D01*
X150480000Y-85500000D02*
X150480000Y-86080000D01*
D47*
X149350000Y-80600000D02*
X149350000Y-81710000D01*
D48*
X184900000Y-88750000D02*
X186275000Y-88750000D01*
D47*
X149350000Y-81710000D02*
X149490000Y-81850000D01*
D46*
X179335000Y-84500000D02*
X179320000Y-84485000D01*
X186225000Y-81750000D02*
X187425000Y-81750000D01*
X183475000Y-84500000D02*
X179335000Y-84500000D01*
X183475000Y-84500000D02*
X186225000Y-81750000D01*
D49*
X173075000Y-72950000D02*
X171700000Y-74325000D01*
X209552394Y-73665000D02*
X210337394Y-74450000D01*
X180000000Y-108450000D02*
X180000000Y-109600000D01*
X181375000Y-88025000D02*
X183100000Y-88025000D01*
X157050000Y-74225000D02*
X159750000Y-74225000D01*
X188760000Y-89500000D02*
X188760000Y-89510000D01*
X189075000Y-78835000D02*
X189075000Y-81750000D01*
X182460000Y-72950000D02*
X183175000Y-73665000D01*
X188760000Y-82490000D02*
X188760000Y-89500000D01*
X210337394Y-74450000D02*
X210400000Y-74450000D01*
X212550000Y-74505000D02*
X212550000Y-78050000D01*
X186450000Y-77460000D02*
X186140000Y-77460000D01*
X184050000Y-73665000D02*
X209552394Y-73665000D01*
X182460000Y-72950000D02*
X173075000Y-72950000D01*
X210400000Y-74450000D02*
X212495000Y-74450000D01*
X190000000Y-90750000D02*
X189990000Y-90760000D01*
X189075000Y-78835000D02*
X187700000Y-77460000D01*
X156310000Y-83750000D02*
X156310000Y-75535000D01*
X164400000Y-85175000D02*
X166500000Y-85175000D01*
X171600000Y-74225000D02*
X159750000Y-74225000D01*
X156025000Y-75250000D02*
X157050000Y-74225000D01*
X212550000Y-78050000D02*
X212750000Y-78250000D01*
X189540000Y-91950000D02*
X184095000Y-91950000D01*
X156310000Y-75535000D02*
X156025000Y-75250000D01*
X181500000Y-104250000D02*
X175575000Y-98325000D01*
X184095000Y-91950000D02*
X184070000Y-91975000D01*
X178875000Y-110725000D02*
X171280000Y-110725000D01*
X171280000Y-110725000D02*
X169780000Y-109225000D01*
X164400000Y-82900000D02*
X164400000Y-85175000D01*
X183175000Y-73665000D02*
X184050000Y-73665000D01*
X189075000Y-81750000D02*
X189075000Y-82175000D01*
X181500000Y-106950000D02*
X180000000Y-108450000D01*
X189990000Y-90760000D02*
X189990000Y-91500000D01*
X175575000Y-98325000D02*
X175575000Y-83325000D01*
X171700000Y-74325000D02*
X171600000Y-74225000D01*
X189075000Y-82175000D02*
X188760000Y-82490000D01*
X212495000Y-74450000D02*
X212550000Y-74505000D01*
X181300000Y-88100000D02*
X181375000Y-88025000D01*
X181500000Y-104250000D02*
X181500000Y-106950000D01*
X187700000Y-77460000D02*
X186450000Y-77460000D01*
X180000000Y-109600000D02*
X178875000Y-110725000D01*
X186140000Y-77460000D02*
X185050000Y-78550000D01*
X212775000Y-78225000D02*
X212750000Y-78250000D01*
X188760000Y-89510000D02*
X190000000Y-90750000D01*
X189990000Y-91500000D02*
X189540000Y-91950000D01*
X152775000Y-92525000D02*
X152775000Y-98075000D01*
X161075000Y-101125000D02*
X156112500Y-101125000D01*
X149520000Y-85500000D02*
X149520000Y-87020000D01*
X158140000Y-90010000D02*
X159080000Y-90950000D01*
X149750000Y-87250000D02*
X149750000Y-89500000D01*
X159150000Y-98175000D02*
X161200000Y-98175000D01*
X161825000Y-98800000D02*
X161825000Y-100375000D01*
X150500000Y-100350000D02*
X150500000Y-101137500D01*
X157875000Y-96900000D02*
X159150000Y-98175000D01*
X150500000Y-101137500D02*
X156100000Y-101137500D01*
X149490000Y-83750000D02*
X149490000Y-85470000D01*
X149490000Y-85470000D02*
X149520000Y-85500000D01*
X155760000Y-95750000D02*
X155760000Y-91390000D01*
X152775000Y-98075000D02*
X150500000Y-100350000D01*
X161200000Y-98175000D02*
X161825000Y-98800000D01*
X149750000Y-89500000D02*
X152775000Y-92525000D01*
X161825000Y-100375000D02*
X161075000Y-101125000D01*
X155760000Y-95750000D02*
X156910000Y-96900000D01*
X156100000Y-101137500D02*
X156112500Y-101125000D01*
X149520000Y-87020000D02*
X149750000Y-87250000D01*
X155760000Y-91390000D02*
X157140000Y-90010000D01*
X157140000Y-90010000D02*
X158140000Y-90010000D01*
X156910000Y-96900000D02*
X157875000Y-96900000D01*
X147120000Y-78600000D02*
X147120000Y-78105000D01*
X149490000Y-82800000D02*
X148025000Y-82800000D01*
X147120000Y-78105000D02*
X149975000Y-75250000D01*
X148025000Y-82800000D02*
X147120000Y-81895000D01*
X147120000Y-81895000D02*
X147120000Y-78600000D01*
D46*
X152000000Y-81850000D02*
X152000000Y-79850000D01*
X150750000Y-78600000D02*
X148080000Y-78600000D01*
X152000000Y-79850000D02*
X150750000Y-78600000D01*
X174310000Y-104000000D02*
X177250000Y-104000000D01*
X177250000Y-104000000D02*
X177500000Y-104250000D01*
X177500000Y-104250000D02*
X177500000Y-108450000D01*
D49*
X146050000Y-97000000D02*
X150362500Y-97000000D01*
X150362500Y-97000000D02*
X150500000Y-96862500D01*
D46*
X163655000Y-94775000D02*
X160950000Y-94775000D01*
X163880000Y-95000000D02*
X163655000Y-94775000D01*
X163880000Y-95000000D02*
X163880000Y-96250000D01*
X160950000Y-94775000D02*
X160925000Y-94750000D01*
X159020000Y-88990000D02*
X159080000Y-89050000D01*
X157140000Y-88990000D02*
X159020000Y-88990000D01*
X159080000Y-89050000D02*
X160925000Y-90895000D01*
X160925000Y-90895000D02*
X160925000Y-93480000D01*
X171750000Y-101010000D02*
X171750000Y-102990000D01*
X171750000Y-102990000D02*
X171690000Y-103050000D01*
D48*
X187640000Y-89400000D02*
X187740000Y-89500000D01*
X184400000Y-89900000D02*
X179655000Y-89900000D01*
X184900000Y-89400000D02*
X187640000Y-89400000D01*
X184900000Y-89400000D02*
X184400000Y-89900000D01*
X179655000Y-89900000D02*
X179320000Y-89565000D01*
X187640000Y-88100000D02*
X187740000Y-88000000D01*
X183825000Y-87025000D02*
X179320000Y-87025000D01*
X184900000Y-88100000D02*
X187640000Y-88100000D01*
X184900000Y-88100000D02*
X183825000Y-87025000D01*
D46*
X154740000Y-98677500D02*
X154740000Y-95750000D01*
X154740000Y-85980000D02*
X154010000Y-85250000D01*
X156112500Y-100050000D02*
X154740000Y-98677500D01*
X154740000Y-95750000D02*
X154740000Y-85980000D01*
X167555000Y-96250000D02*
X171700000Y-92105000D01*
X164900000Y-96250000D02*
X167555000Y-96250000D01*
X150750000Y-84382619D02*
X151617381Y-85250000D01*
X151617381Y-85250000D02*
X152990000Y-85250000D01*
X150750000Y-83425000D02*
X150750000Y-84382619D01*
X152000000Y-82800000D02*
X151375000Y-82800000D01*
X151375000Y-82800000D02*
X150750000Y-83425000D01*
X153990000Y-83750000D02*
X154000000Y-83760000D01*
X154000000Y-83760000D02*
X155280000Y-83760000D01*
X152000000Y-83750000D02*
X153990000Y-83750000D01*
X155280000Y-83760000D02*
X155290000Y-83750000D01*
X162815000Y-90000000D02*
X163640000Y-90825000D01*
X161700000Y-90000000D02*
X162815000Y-90000000D01*
X166140000Y-90825000D02*
X167900000Y-90825000D01*
X167900000Y-90825000D02*
X171700000Y-87025000D01*
X163640000Y-89175000D02*
X164490000Y-89175000D01*
X164490000Y-89175000D02*
X166140000Y-90825000D01*
X171700000Y-97185000D02*
X171700000Y-99940000D01*
X171635000Y-97250000D02*
X171700000Y-97185000D01*
X169260000Y-97250000D02*
X171635000Y-97250000D01*
X171700000Y-99940000D02*
X171750000Y-99990000D01*
X191010000Y-90590000D02*
X191010000Y-91500000D01*
X196750000Y-78250000D02*
X196750000Y-84850000D01*
X191010000Y-93090000D02*
X188925000Y-95175000D01*
X196750000Y-84850000D02*
X191010000Y-90590000D01*
X191010000Y-91500000D02*
X191010000Y-93090000D01*
X188925000Y-95175000D02*
X182390000Y-95175000D01*
X182390000Y-95175000D02*
X179320000Y-92105000D01*
X180075000Y-80675000D02*
X184310000Y-76440000D01*
X171700000Y-81945000D02*
X172970000Y-80675000D01*
X206140000Y-75640000D02*
X208750000Y-78250000D01*
X186450000Y-76440000D02*
X189285000Y-76440000D01*
X172970000Y-80675000D02*
X180075000Y-80675000D01*
X189285000Y-76440000D02*
X190085000Y-75640000D01*
X190085000Y-75640000D02*
X206140000Y-75640000D01*
X184310000Y-76440000D02*
X186450000Y-76440000D01*
X184050000Y-74685000D02*
X207185000Y-74685000D01*
X207185000Y-74685000D02*
X210750000Y-78250000D01*
X171700000Y-79260000D02*
X172835000Y-78125000D01*
X172835000Y-78125000D02*
X180610000Y-78125000D01*
X180610000Y-78125000D02*
X184050000Y-74685000D01*
X183215000Y-98540000D02*
X187750000Y-98540000D01*
X179320000Y-94645000D02*
X183215000Y-98540000D01*
X197196000Y-98540000D02*
X198750000Y-100094000D01*
X187750000Y-98540000D02*
X197196000Y-98540000D01*
X168400000Y-85175000D02*
X171010000Y-85175000D01*
X171010000Y-85175000D02*
X171700000Y-84485000D01*
G04 #@! TA.AperFunction,Conductor*
G36*
X195693039Y-70019685D02*
G01*
X195738794Y-70072489D01*
X195750000Y-70124000D01*
X195750000Y-72665500D01*
X195730315Y-72732539D01*
X195677511Y-72778294D01*
X195626000Y-72789500D01*
X183589006Y-72789500D01*
X183521967Y-72769815D01*
X183501325Y-72753181D01*
X183018102Y-72269957D01*
X183018098Y-72269954D01*
X182874711Y-72174145D01*
X182874698Y-72174138D01*
X182715378Y-72108146D01*
X182715366Y-72108143D01*
X182546232Y-72074500D01*
X182546229Y-72074500D01*
X172988771Y-72074500D01*
X172988768Y-72074500D01*
X172819633Y-72108143D01*
X172819621Y-72108146D01*
X172660301Y-72174138D01*
X172660288Y-72174145D01*
X172516901Y-72269954D01*
X172516897Y-72269957D01*
X171798673Y-72988181D01*
X171737350Y-73021666D01*
X171710992Y-73024500D01*
X170852129Y-73024500D01*
X170852123Y-73024501D01*
X170792516Y-73030908D01*
X170657671Y-73081202D01*
X170657664Y-73081206D01*
X170542455Y-73167452D01*
X170542452Y-73167455D01*
X170456207Y-73282663D01*
X170454973Y-73284924D01*
X170453150Y-73286746D01*
X170450888Y-73289769D01*
X170450453Y-73289443D01*
X170405569Y-73334331D01*
X170346139Y-73349500D01*
X168803107Y-73349500D01*
X168736068Y-73329815D01*
X168690313Y-73277011D01*
X168680369Y-73207853D01*
X168685401Y-73186496D01*
X168714855Y-73097606D01*
X168724999Y-72998322D01*
X168725000Y-72998309D01*
X168725000Y-72975000D01*
X166775001Y-72975000D01*
X166775001Y-72998322D01*
X166785144Y-73097607D01*
X166814599Y-73186496D01*
X166817001Y-73256324D01*
X166781269Y-73316366D01*
X166718749Y-73347559D01*
X166696893Y-73349500D01*
X166285523Y-73349500D01*
X166218484Y-73329815D01*
X166172729Y-73277011D01*
X166162785Y-73207853D01*
X166191810Y-73144297D01*
X166197842Y-73137819D01*
X166317315Y-73018345D01*
X166409356Y-72869124D01*
X166409358Y-72869119D01*
X166464505Y-72702697D01*
X166464506Y-72702690D01*
X166474999Y-72599986D01*
X166475000Y-72599973D01*
X166475000Y-72550000D01*
X164025001Y-72550000D01*
X164025001Y-72599986D01*
X164035494Y-72702697D01*
X164090641Y-72869119D01*
X164090643Y-72869124D01*
X164182684Y-73018345D01*
X164302158Y-73137819D01*
X164335643Y-73199142D01*
X164330659Y-73268834D01*
X164288787Y-73324767D01*
X164223323Y-73349184D01*
X164214477Y-73349500D01*
X162360855Y-73349500D01*
X162315802Y-73339512D01*
X162315552Y-73340269D01*
X162308698Y-73337998D01*
X162308697Y-73337997D01*
X162214766Y-73306871D01*
X162147709Y-73284651D01*
X162048346Y-73274500D01*
X161451662Y-73274500D01*
X161451644Y-73274501D01*
X161352292Y-73284650D01*
X161352289Y-73284651D01*
X161240469Y-73321705D01*
X161191303Y-73337997D01*
X161191301Y-73337997D01*
X161184448Y-73340269D01*
X161184197Y-73339512D01*
X161139145Y-73349500D01*
X160360855Y-73349500D01*
X160315802Y-73339512D01*
X160315552Y-73340269D01*
X160308698Y-73337998D01*
X160308697Y-73337997D01*
X160214766Y-73306871D01*
X160147709Y-73284651D01*
X160048346Y-73274500D01*
X159451662Y-73274500D01*
X159451644Y-73274501D01*
X159352292Y-73284650D01*
X159352289Y-73284651D01*
X159240469Y-73321705D01*
X159191303Y-73337997D01*
X159191301Y-73337997D01*
X159184448Y-73340269D01*
X159184197Y-73339512D01*
X159139145Y-73349500D01*
X157621016Y-73349500D01*
X157553977Y-73329815D01*
X157533335Y-73313181D01*
X157424289Y-73204135D01*
X157424285Y-73204132D01*
X157277955Y-73113874D01*
X157277953Y-73113873D01*
X157179358Y-73081202D01*
X157114744Y-73059791D01*
X157114742Y-73059790D01*
X157014012Y-73049500D01*
X155035996Y-73049500D01*
X155035979Y-73049501D01*
X154935256Y-73059790D01*
X154935253Y-73059791D01*
X154772047Y-73113873D01*
X154772044Y-73113874D01*
X154625714Y-73204132D01*
X154625710Y-73204135D01*
X154504135Y-73325710D01*
X154504132Y-73325714D01*
X154413874Y-73472044D01*
X154413873Y-73472046D01*
X154359791Y-73635256D01*
X154359790Y-73635257D01*
X154349500Y-73735981D01*
X154349500Y-76764003D01*
X154349501Y-76764020D01*
X154359790Y-76864743D01*
X154359791Y-76864746D01*
X154413873Y-77027952D01*
X154413874Y-77027955D01*
X154504132Y-77174285D01*
X154504135Y-77174289D01*
X154625710Y-77295864D01*
X154625714Y-77295867D01*
X154772044Y-77386125D01*
X154772046Y-77386126D01*
X154772048Y-77386127D01*
X154935256Y-77440209D01*
X155035989Y-77450500D01*
X155310501Y-77450499D01*
X155377539Y-77470183D01*
X155423294Y-77522987D01*
X155434500Y-77574499D01*
X155434500Y-82805500D01*
X155414815Y-82872539D01*
X155362011Y-82918294D01*
X155310501Y-82929500D01*
X155090830Y-82929500D01*
X155090808Y-82929501D01*
X155054799Y-82932334D01*
X154900607Y-82977131D01*
X154894441Y-82979800D01*
X154845190Y-82990000D01*
X154260409Y-82990000D01*
X154250682Y-82989618D01*
X154249191Y-82989500D01*
X153874000Y-82989500D01*
X153806961Y-82969815D01*
X153761206Y-82917011D01*
X153750000Y-82865500D01*
X153750000Y-82490000D01*
X154250000Y-82490000D01*
X154812844Y-82490000D01*
X154772404Y-82350805D01*
X154690738Y-82212714D01*
X154690731Y-82212705D01*
X154577294Y-82099268D01*
X154577285Y-82099261D01*
X154439191Y-82017593D01*
X154439188Y-82017592D01*
X154285130Y-81972834D01*
X154250000Y-81970068D01*
X154250000Y-82490000D01*
X153750000Y-82490000D01*
X153750000Y-81970068D01*
X153749999Y-81970068D01*
X153714869Y-81972834D01*
X153714868Y-81972834D01*
X153560811Y-82017592D01*
X153560808Y-82017593D01*
X153422714Y-82099261D01*
X153422709Y-82099265D01*
X153337180Y-82184794D01*
X153275856Y-82218278D01*
X153206165Y-82213294D01*
X153150231Y-82171422D01*
X153125815Y-82105957D01*
X153125499Y-82097139D01*
X153125499Y-81591114D01*
X153113308Y-81498511D01*
X153110720Y-81478848D01*
X153110719Y-81478847D01*
X153110719Y-81478841D01*
X153056442Y-81347804D01*
X153052857Y-81339149D01*
X153052856Y-81339148D01*
X153052856Y-81339147D01*
X152960810Y-81219190D01*
X152960808Y-81219189D01*
X152960808Y-81219188D01*
X152840853Y-81127144D01*
X152840849Y-81127141D01*
X152827042Y-81121422D01*
X152772641Y-81077579D01*
X152750579Y-81011284D01*
X152750500Y-81006863D01*
X152750500Y-79776079D01*
X152721659Y-79631092D01*
X152721658Y-79631091D01*
X152721658Y-79631087D01*
X152682282Y-79536024D01*
X152665086Y-79494509D01*
X152665085Y-79494507D01*
X152654599Y-79478814D01*
X152632186Y-79445270D01*
X152628945Y-79440419D01*
X152582956Y-79371589D01*
X152582952Y-79371584D01*
X151228421Y-78017052D01*
X151228414Y-78017046D01*
X151154729Y-77967812D01*
X151154729Y-77967813D01*
X151105491Y-77934913D01*
X150968917Y-77878343D01*
X150968907Y-77878340D01*
X150823920Y-77849500D01*
X150823918Y-77849500D01*
X148913005Y-77849500D01*
X148845966Y-77829815D01*
X148800211Y-77777011D01*
X148790267Y-77707853D01*
X148819292Y-77644297D01*
X148825324Y-77637819D01*
X148976325Y-77486818D01*
X149037648Y-77453333D01*
X149064006Y-77450499D01*
X150964004Y-77450499D01*
X150964010Y-77450499D01*
X151064744Y-77440209D01*
X151227952Y-77386127D01*
X151374289Y-77295865D01*
X151495865Y-77174289D01*
X151586127Y-77027952D01*
X151640209Y-76864744D01*
X151650500Y-76764011D01*
X151650499Y-73735990D01*
X151640209Y-73635256D01*
X151586127Y-73472048D01*
X151510343Y-73349184D01*
X151495867Y-73325714D01*
X151495864Y-73325710D01*
X151374289Y-73204135D01*
X151374285Y-73204132D01*
X151227955Y-73113874D01*
X151227953Y-73113873D01*
X151129358Y-73081202D01*
X151064744Y-73059791D01*
X151064742Y-73059790D01*
X150964012Y-73049500D01*
X148985996Y-73049500D01*
X148985979Y-73049501D01*
X148885256Y-73059790D01*
X148885253Y-73059791D01*
X148722047Y-73113873D01*
X148722044Y-73113874D01*
X148575714Y-73204132D01*
X148575710Y-73204135D01*
X148454135Y-73325710D01*
X148454132Y-73325714D01*
X148363874Y-73472044D01*
X148363873Y-73472046D01*
X148309791Y-73635256D01*
X148309790Y-73635257D01*
X148299500Y-73735981D01*
X148299500Y-75635993D01*
X148279815Y-75703032D01*
X148263181Y-75723674D01*
X147348554Y-76638302D01*
X146561901Y-77424955D01*
X146516673Y-77470183D01*
X146439953Y-77546902D01*
X146344145Y-77690288D01*
X146344138Y-77690301D01*
X146278146Y-77849621D01*
X146278143Y-77849633D01*
X146244500Y-78018766D01*
X146244500Y-81981233D01*
X146278143Y-82150366D01*
X146278146Y-82150378D01*
X146344138Y-82309698D01*
X146344145Y-82309711D01*
X146439954Y-82453098D01*
X146439957Y-82453102D01*
X147466897Y-83480042D01*
X147466901Y-83480045D01*
X147610288Y-83575854D01*
X147610301Y-83575861D01*
X147769621Y-83641853D01*
X147769626Y-83641855D01*
X147938766Y-83675499D01*
X147938769Y-83675500D01*
X147938771Y-83675500D01*
X148111229Y-83675500D01*
X148240500Y-83675500D01*
X148307539Y-83695185D01*
X148353294Y-83747989D01*
X148364500Y-83799499D01*
X148364500Y-84008888D01*
X148379279Y-84121151D01*
X148379282Y-84121162D01*
X148437142Y-84260850D01*
X148437143Y-84260852D01*
X148437144Y-84260853D01*
X148529190Y-84380810D01*
X148560474Y-84404815D01*
X148565986Y-84409044D01*
X148607189Y-84465472D01*
X148614500Y-84507420D01*
X148614500Y-85556229D01*
X148642117Y-85695068D01*
X148644500Y-85719260D01*
X148644500Y-87106233D01*
X148678143Y-87275366D01*
X148678145Y-87275374D01*
X148735226Y-87413181D01*
X148740061Y-87424852D01*
X148749500Y-87472305D01*
X148749500Y-87775000D01*
X148749501Y-87775019D01*
X148760000Y-87877796D01*
X148760001Y-87877799D01*
X148815185Y-88044331D01*
X148815190Y-88044342D01*
X148856038Y-88110566D01*
X148874500Y-88175663D01*
X148874500Y-88574336D01*
X148856039Y-88639432D01*
X148815189Y-88705659D01*
X148815185Y-88705668D01*
X148795752Y-88764313D01*
X148760001Y-88872203D01*
X148760001Y-88872204D01*
X148760000Y-88872204D01*
X148749500Y-88974983D01*
X148749500Y-90025001D01*
X148749501Y-90025019D01*
X148760000Y-90127796D01*
X148760001Y-90127799D01*
X148815185Y-90294331D01*
X148815187Y-90294336D01*
X148831325Y-90320500D01*
X148907288Y-90443656D01*
X149031344Y-90567712D01*
X149180666Y-90659814D01*
X149347203Y-90714999D01*
X149449991Y-90725500D01*
X149685992Y-90725499D01*
X149753032Y-90745183D01*
X149773674Y-90761818D01*
X151863181Y-92851325D01*
X151896666Y-92912648D01*
X151899500Y-92939006D01*
X151899500Y-95675500D01*
X151879815Y-95742539D01*
X151827011Y-95788294D01*
X151775500Y-95799500D01*
X148999998Y-95799500D01*
X148999981Y-95799501D01*
X148897203Y-95810000D01*
X148897200Y-95810001D01*
X148730668Y-95865185D01*
X148730663Y-95865187D01*
X148581342Y-95957289D01*
X148452181Y-96086451D01*
X148450294Y-96084564D01*
X148403375Y-96117788D01*
X148363132Y-96124500D01*
X147581058Y-96124500D01*
X147514019Y-96104815D01*
X147475519Y-96065597D01*
X147392712Y-95931344D01*
X147268656Y-95807288D01*
X147153227Y-95736091D01*
X147119336Y-95715187D01*
X147119331Y-95715185D01*
X147117862Y-95714698D01*
X146952797Y-95660001D01*
X146952795Y-95660000D01*
X146850010Y-95649500D01*
X145249998Y-95649500D01*
X145249981Y-95649501D01*
X145147203Y-95660000D01*
X145147200Y-95660001D01*
X144980668Y-95715185D01*
X144980663Y-95715187D01*
X144831342Y-95807289D01*
X144707289Y-95931342D01*
X144615187Y-96080663D01*
X144615185Y-96080668D01*
X144607184Y-96104815D01*
X144560001Y-96247203D01*
X144560001Y-96247204D01*
X144560000Y-96247204D01*
X144549500Y-96349983D01*
X144549500Y-97650001D01*
X144549501Y-97650018D01*
X144560000Y-97752796D01*
X144560001Y-97752799D01*
X144615185Y-97919331D01*
X144615187Y-97919336D01*
X144628384Y-97940731D01*
X144706676Y-98067664D01*
X144707289Y-98068657D01*
X144831344Y-98192712D01*
X144986558Y-98288448D01*
X145033283Y-98340396D01*
X145044506Y-98409358D01*
X145016663Y-98473441D01*
X145009144Y-98481668D01*
X144870271Y-98620541D01*
X144745379Y-98792442D01*
X144648904Y-98981782D01*
X144583242Y-99183870D01*
X144583242Y-99183873D01*
X144572769Y-99250000D01*
X145616988Y-99250000D01*
X145584075Y-99307007D01*
X145550000Y-99434174D01*
X145550000Y-99565826D01*
X145584075Y-99692993D01*
X145616988Y-99750000D01*
X144572769Y-99750000D01*
X144583242Y-99816126D01*
X144583242Y-99816129D01*
X144648904Y-100018217D01*
X144745379Y-100207557D01*
X144870272Y-100379459D01*
X144870276Y-100379464D01*
X145020535Y-100529723D01*
X145020540Y-100529727D01*
X145192442Y-100654620D01*
X145381782Y-100751095D01*
X145583870Y-100816757D01*
X145793754Y-100850000D01*
X145800000Y-100850000D01*
X145800000Y-99933012D01*
X145857007Y-99965925D01*
X145984174Y-100000000D01*
X146115826Y-100000000D01*
X146242993Y-99965925D01*
X146300000Y-99933012D01*
X146300000Y-100850000D01*
X146306246Y-100850000D01*
X146516127Y-100816757D01*
X146516130Y-100816757D01*
X146718217Y-100751095D01*
X146907557Y-100654620D01*
X147079459Y-100529727D01*
X147079464Y-100529723D01*
X147229723Y-100379464D01*
X147229727Y-100379459D01*
X147354620Y-100207557D01*
X147451095Y-100018217D01*
X147516757Y-99816129D01*
X147516757Y-99816126D01*
X147527231Y-99750000D01*
X146483012Y-99750000D01*
X146515925Y-99692993D01*
X146550000Y-99565826D01*
X146550000Y-99434174D01*
X146515925Y-99307007D01*
X146483012Y-99250000D01*
X147527231Y-99250000D01*
X147516757Y-99183873D01*
X147516757Y-99183870D01*
X147451095Y-98981782D01*
X147354620Y-98792442D01*
X147229727Y-98620540D01*
X147229723Y-98620535D01*
X147090856Y-98481668D01*
X147057371Y-98420345D01*
X147062355Y-98350653D01*
X147104227Y-98294720D01*
X147113441Y-98288448D01*
X147119331Y-98284814D01*
X147119334Y-98284814D01*
X147268656Y-98192712D01*
X147392712Y-98068656D01*
X147475519Y-97934402D01*
X147527467Y-97887679D01*
X147581058Y-97875500D01*
X148757993Y-97875500D01*
X148796997Y-97881794D01*
X148897203Y-97914999D01*
X148999991Y-97925500D01*
X151386994Y-97925499D01*
X151454033Y-97945184D01*
X151499788Y-97997987D01*
X151509732Y-98067146D01*
X151480707Y-98130702D01*
X151474675Y-98137180D01*
X150661002Y-98950854D01*
X149941901Y-99669955D01*
X149899199Y-99712657D01*
X149819953Y-99791902D01*
X149724145Y-99935288D01*
X149724137Y-99935303D01*
X149698186Y-99997954D01*
X149654345Y-100052357D01*
X149588050Y-100074421D01*
X149583626Y-100074500D01*
X148999998Y-100074500D01*
X148999980Y-100074501D01*
X148897203Y-100085000D01*
X148897200Y-100085001D01*
X148730668Y-100140185D01*
X148730663Y-100140187D01*
X148581342Y-100232289D01*
X148457289Y-100356342D01*
X148365187Y-100505663D01*
X148365186Y-100505666D01*
X148310001Y-100672203D01*
X148310001Y-100672204D01*
X148310000Y-100672204D01*
X148299500Y-100774983D01*
X148299500Y-101500001D01*
X148299501Y-101500019D01*
X148310000Y-101602796D01*
X148310001Y-101602799D01*
X148365185Y-101769331D01*
X148365186Y-101769334D01*
X148457288Y-101918656D01*
X148581344Y-102042712D01*
X148730666Y-102134814D01*
X148897203Y-102189999D01*
X148999991Y-102200500D01*
X152000008Y-102200499D01*
X152102797Y-102189999D01*
X152269334Y-102134814D01*
X152418656Y-102042712D01*
X152418662Y-102042705D01*
X152422422Y-102039734D01*
X152487217Y-102013593D01*
X152499333Y-102013000D01*
X156186230Y-102013000D01*
X156186230Y-102012999D01*
X156237091Y-102002882D01*
X156261282Y-102000500D01*
X161161231Y-102000500D01*
X161161232Y-102000499D01*
X161330374Y-101966855D01*
X161489705Y-101900858D01*
X161633099Y-101805045D01*
X162505045Y-100933099D01*
X162600858Y-100789705D01*
X162666855Y-100630374D01*
X162700500Y-100461229D01*
X162700500Y-100288771D01*
X162700500Y-98713771D01*
X162700500Y-98713768D01*
X162700499Y-98713766D01*
X162680638Y-98613918D01*
X162666855Y-98544626D01*
X162644422Y-98490468D01*
X162600861Y-98385301D01*
X162600854Y-98385288D01*
X162505046Y-98241902D01*
X162447649Y-98184505D01*
X162383099Y-98119955D01*
X162074963Y-97811819D01*
X161763145Y-97500000D01*
X167470069Y-97500000D01*
X167472832Y-97535122D01*
X167472833Y-97535128D01*
X167517592Y-97689188D01*
X167517593Y-97689191D01*
X167599261Y-97827285D01*
X167599268Y-97827294D01*
X167712705Y-97940731D01*
X167712714Y-97940738D01*
X167850805Y-98022404D01*
X167990000Y-98062844D01*
X167990000Y-97500000D01*
X167470069Y-97500000D01*
X161763145Y-97500000D01*
X161758102Y-97494957D01*
X161758098Y-97494954D01*
X161614711Y-97399145D01*
X161614698Y-97399138D01*
X161455378Y-97333146D01*
X161455366Y-97333143D01*
X161286232Y-97299500D01*
X161286229Y-97299500D01*
X159564006Y-97299500D01*
X159496967Y-97279815D01*
X159476325Y-97263181D01*
X158433102Y-96219957D01*
X158433098Y-96219954D01*
X158289711Y-96124145D01*
X158289698Y-96124138D01*
X158130378Y-96058146D01*
X158130366Y-96058143D01*
X157961232Y-96024500D01*
X157961229Y-96024500D01*
X157324006Y-96024500D01*
X157256967Y-96004815D01*
X157236325Y-95988181D01*
X156671819Y-95423675D01*
X156638334Y-95362352D01*
X156635500Y-95335994D01*
X156635500Y-91804006D01*
X156655185Y-91736967D01*
X156671819Y-91716325D01*
X157466325Y-90921819D01*
X157527648Y-90888334D01*
X157554006Y-90885500D01*
X157725994Y-90885500D01*
X157793033Y-90905185D01*
X157813675Y-90921819D01*
X157933181Y-91041325D01*
X157966666Y-91102648D01*
X157969500Y-91129003D01*
X157969500Y-91166098D01*
X157975568Y-91232882D01*
X157975571Y-91232893D01*
X158023467Y-91386598D01*
X158023468Y-91386600D01*
X158023469Y-91386602D01*
X158086027Y-91490085D01*
X158106766Y-91524391D01*
X158220608Y-91638233D01*
X158220610Y-91638234D01*
X158220612Y-91638236D01*
X158358398Y-91721531D01*
X158512113Y-91769430D01*
X158578909Y-91775500D01*
X158760474Y-91775499D01*
X158807929Y-91784938D01*
X158824626Y-91791855D01*
X158993766Y-91825499D01*
X158993769Y-91825500D01*
X158993771Y-91825500D01*
X159166231Y-91825500D01*
X159166232Y-91825499D01*
X159335374Y-91791855D01*
X159342014Y-91789104D01*
X159352074Y-91784938D01*
X159399526Y-91775499D01*
X159581097Y-91775499D01*
X159647882Y-91769431D01*
X159647885Y-91769430D01*
X159647887Y-91769430D01*
X159801602Y-91721531D01*
X159939388Y-91638236D01*
X159949447Y-91628177D01*
X159962819Y-91614806D01*
X160024142Y-91581321D01*
X160093834Y-91586305D01*
X160149767Y-91628177D01*
X160174184Y-91693641D01*
X160174500Y-91702487D01*
X160174500Y-92531489D01*
X160154815Y-92598528D01*
X160119391Y-92634591D01*
X160046282Y-92683441D01*
X160046278Y-92683444D01*
X159903441Y-92826281D01*
X159791217Y-92994237D01*
X159791212Y-92994247D01*
X159713909Y-93180872D01*
X159713907Y-93180880D01*
X159674500Y-93378992D01*
X159674500Y-93581007D01*
X159713907Y-93779119D01*
X159713909Y-93779127D01*
X159791213Y-93965755D01*
X159844904Y-94046109D01*
X159865782Y-94112787D01*
X159847297Y-94180167D01*
X159844904Y-94183891D01*
X159791213Y-94264244D01*
X159713909Y-94450872D01*
X159713907Y-94450880D01*
X159674500Y-94648992D01*
X159674500Y-94851007D01*
X159713907Y-95049119D01*
X159713910Y-95049131D01*
X159747547Y-95130338D01*
X159755016Y-95199807D01*
X159735405Y-95244864D01*
X159735895Y-95245132D01*
X159732910Y-95250596D01*
X159732260Y-95252092D01*
X159731646Y-95252911D01*
X159731645Y-95252913D01*
X159681403Y-95387620D01*
X159681401Y-95387627D01*
X159675000Y-95447155D01*
X159675000Y-95770000D01*
X160559134Y-95770000D01*
X160583326Y-95772383D01*
X160586123Y-95772939D01*
X160598995Y-95775499D01*
X160598996Y-95775500D01*
X160598997Y-95775500D01*
X160639170Y-95775500D01*
X160624925Y-95789745D01*
X160575556Y-95875255D01*
X160550000Y-95970630D01*
X160550000Y-96069370D01*
X160575556Y-96164745D01*
X160624925Y-96250255D01*
X160644670Y-96270000D01*
X159675000Y-96270000D01*
X159675000Y-96592844D01*
X159681401Y-96652372D01*
X159681403Y-96652379D01*
X159731645Y-96787086D01*
X159731649Y-96787093D01*
X159817809Y-96902187D01*
X159817812Y-96902190D01*
X159932906Y-96988350D01*
X159932913Y-96988354D01*
X160067620Y-97038596D01*
X160067627Y-97038598D01*
X160127155Y-97044999D01*
X160127172Y-97045000D01*
X160675000Y-97045000D01*
X160675000Y-96300330D01*
X160694745Y-96320075D01*
X160780255Y-96369444D01*
X160875630Y-96395000D01*
X160974370Y-96395000D01*
X161069745Y-96369444D01*
X161155255Y-96320075D01*
X161175000Y-96300330D01*
X161175000Y-97045000D01*
X161722828Y-97045000D01*
X161722844Y-97044999D01*
X161782372Y-97038598D01*
X161782379Y-97038596D01*
X161917086Y-96988354D01*
X161917093Y-96988350D01*
X162032187Y-96902190D01*
X162032190Y-96902187D01*
X162118350Y-96787093D01*
X162118354Y-96787086D01*
X162168596Y-96652379D01*
X162168598Y-96652372D01*
X162174999Y-96592844D01*
X162175000Y-96592827D01*
X162175000Y-96270000D01*
X161205330Y-96270000D01*
X161225075Y-96250255D01*
X161274444Y-96164745D01*
X161300000Y-96069370D01*
X161300000Y-95970630D01*
X161274444Y-95875255D01*
X161225075Y-95789745D01*
X161210830Y-95775500D01*
X161251004Y-95775500D01*
X161251004Y-95775499D01*
X161264473Y-95772820D01*
X161266674Y-95772383D01*
X161290866Y-95770000D01*
X162175000Y-95770000D01*
X162175000Y-95649500D01*
X162194685Y-95582461D01*
X162247489Y-95536706D01*
X162299000Y-95525500D01*
X163005500Y-95525500D01*
X163072539Y-95545185D01*
X163118294Y-95597989D01*
X163129500Y-95649500D01*
X163129500Y-95888064D01*
X163124577Y-95922657D01*
X163112336Y-95964792D01*
X163112334Y-95964802D01*
X163109500Y-96000811D01*
X163109500Y-96499169D01*
X163109501Y-96499191D01*
X163112335Y-96535205D01*
X163157129Y-96689388D01*
X163157131Y-96689393D01*
X163238863Y-96827595D01*
X163238869Y-96827603D01*
X163352396Y-96941130D01*
X163352400Y-96941133D01*
X163352402Y-96941135D01*
X163490607Y-97022869D01*
X163490614Y-97022871D01*
X163644791Y-97067664D01*
X163644794Y-97067664D01*
X163644796Y-97067665D01*
X163680819Y-97070500D01*
X164079180Y-97070499D01*
X164115204Y-97067665D01*
X164269393Y-97022869D01*
X164326882Y-96988869D01*
X164394602Y-96971688D01*
X164453117Y-96988869D01*
X164510607Y-97022869D01*
X164510610Y-97022869D01*
X164510612Y-97022871D01*
X164664791Y-97067664D01*
X164664794Y-97067664D01*
X164664796Y-97067665D01*
X164700819Y-97070500D01*
X165099180Y-97070499D01*
X165135204Y-97067665D01*
X165289393Y-97022869D01*
X165298018Y-97017767D01*
X165361139Y-97000500D01*
X167629908Y-97000500D01*
X167640086Y-97000000D01*
X168365500Y-97000000D01*
X168432539Y-97019685D01*
X168478294Y-97072489D01*
X168489500Y-97124000D01*
X168489500Y-97499170D01*
X168489501Y-97499182D01*
X168489618Y-97500663D01*
X168490000Y-97510393D01*
X168490000Y-98062844D01*
X168629194Y-98022405D01*
X168629196Y-98022404D01*
X168686386Y-97988582D01*
X168754109Y-97971398D01*
X168812629Y-97988581D01*
X168870607Y-98022869D01*
X168911268Y-98034682D01*
X169024791Y-98067664D01*
X169024794Y-98067664D01*
X169024796Y-98067665D01*
X169060819Y-98070500D01*
X169459180Y-98070499D01*
X169495204Y-98067665D01*
X169649393Y-98022869D01*
X169658018Y-98017767D01*
X169721139Y-98000500D01*
X170624951Y-98000500D01*
X170691990Y-98020185D01*
X170712632Y-98036819D01*
X170860859Y-98185046D01*
X170896621Y-98210086D01*
X170940247Y-98264662D01*
X170949500Y-98311662D01*
X170949500Y-99678064D01*
X170944577Y-99712657D01*
X170932336Y-99754792D01*
X170932334Y-99754802D01*
X170929500Y-99790811D01*
X170929500Y-100189169D01*
X170929501Y-100189191D01*
X170932335Y-100225205D01*
X170977129Y-100379388D01*
X170977132Y-100379395D01*
X171011128Y-100436881D01*
X171028309Y-100504605D01*
X171011128Y-100563119D01*
X170977132Y-100620604D01*
X170977129Y-100620611D01*
X170932335Y-100774791D01*
X170932334Y-100774797D01*
X170929500Y-100810811D01*
X170929500Y-101209169D01*
X170929501Y-101209191D01*
X170932335Y-101245205D01*
X170977129Y-101399388D01*
X170977131Y-101399393D01*
X170982232Y-101408018D01*
X170999500Y-101471139D01*
X170999500Y-102189731D01*
X170979815Y-102256770D01*
X170939650Y-102295848D01*
X170830608Y-102361766D01*
X170716766Y-102475608D01*
X170633469Y-102613397D01*
X170585569Y-102767116D01*
X170579500Y-102833911D01*
X170579500Y-103266098D01*
X170585568Y-103332882D01*
X170585571Y-103332893D01*
X170633467Y-103486598D01*
X170633468Y-103486600D01*
X170633469Y-103486602D01*
X170679894Y-103563398D01*
X170716766Y-103624391D01*
X170830608Y-103738233D01*
X170830610Y-103738234D01*
X170830612Y-103738236D01*
X170968398Y-103821531D01*
X171122113Y-103869430D01*
X171188909Y-103875500D01*
X172191090Y-103875499D01*
X172191097Y-103875499D01*
X172257882Y-103869431D01*
X172257885Y-103869430D01*
X172257887Y-103869430D01*
X172411602Y-103821531D01*
X172549388Y-103738236D01*
X172663236Y-103624388D01*
X172746531Y-103486602D01*
X172794430Y-103332887D01*
X172800500Y-103266091D01*
X172800499Y-102833910D01*
X172800499Y-102833909D01*
X172800499Y-102833901D01*
X172794431Y-102767117D01*
X172794428Y-102767106D01*
X172746532Y-102613401D01*
X172746531Y-102613400D01*
X172746531Y-102613398D01*
X172663236Y-102475612D01*
X172663234Y-102475610D01*
X172663233Y-102475608D01*
X172549390Y-102361765D01*
X172548023Y-102360694D01*
X172547281Y-102359656D01*
X172544085Y-102356460D01*
X172544616Y-102355928D01*
X172507393Y-102303852D01*
X172500500Y-102263086D01*
X172500500Y-101471139D01*
X172517768Y-101408018D01*
X172522869Y-101399393D01*
X172567665Y-101245204D01*
X172570500Y-101209181D01*
X172570499Y-100810820D01*
X172567665Y-100774796D01*
X172522869Y-100620607D01*
X172488869Y-100563117D01*
X172471688Y-100495398D01*
X172488869Y-100436882D01*
X172522869Y-100379393D01*
X172529566Y-100356344D01*
X172567664Y-100225208D01*
X172567664Y-100225206D01*
X172567665Y-100225204D01*
X172570500Y-100189181D01*
X172570499Y-99790820D01*
X172567665Y-99754796D01*
X172522869Y-99600607D01*
X172502300Y-99565826D01*
X172467768Y-99507434D01*
X172450500Y-99444314D01*
X172450500Y-98311662D01*
X172470185Y-98244623D01*
X172503379Y-98210086D01*
X172539140Y-98185046D01*
X172700045Y-98024141D01*
X172700047Y-98024139D01*
X172830568Y-97837734D01*
X172926739Y-97631496D01*
X172985635Y-97411692D01*
X173005468Y-97185000D01*
X172985635Y-96958308D01*
X172926739Y-96738504D01*
X172830568Y-96532266D01*
X172716560Y-96369444D01*
X172700045Y-96345858D01*
X172539141Y-96184954D01*
X172352734Y-96054432D01*
X172352728Y-96054429D01*
X172325038Y-96041517D01*
X172294724Y-96027381D01*
X172242285Y-95981210D01*
X172223133Y-95914017D01*
X172243348Y-95847135D01*
X172294725Y-95802618D01*
X172352734Y-95775568D01*
X172539139Y-95645047D01*
X172700047Y-95484139D01*
X172830568Y-95297734D01*
X172926739Y-95091496D01*
X172985635Y-94871692D01*
X173002634Y-94677384D01*
X173005468Y-94645001D01*
X173005468Y-94644998D01*
X172988865Y-94455232D01*
X172985635Y-94418308D01*
X172934409Y-94227129D01*
X172926741Y-94198511D01*
X172926738Y-94198502D01*
X172915122Y-94173591D01*
X172830568Y-93992266D01*
X172700047Y-93805861D01*
X172700045Y-93805858D01*
X172539141Y-93644954D01*
X172352734Y-93514432D01*
X172352728Y-93514429D01*
X172294725Y-93487382D01*
X172242285Y-93441210D01*
X172223133Y-93374017D01*
X172243348Y-93307135D01*
X172294725Y-93262618D01*
X172352734Y-93235568D01*
X172539139Y-93105047D01*
X172700047Y-92944139D01*
X172830568Y-92757734D01*
X172926739Y-92551496D01*
X172985635Y-92331692D01*
X173005468Y-92105000D01*
X172985635Y-91878308D01*
X172926739Y-91658504D01*
X172830568Y-91452266D01*
X172700047Y-91265861D01*
X172700045Y-91265858D01*
X172539141Y-91104954D01*
X172352734Y-90974432D01*
X172352728Y-90974429D01*
X172294725Y-90947382D01*
X172242285Y-90901210D01*
X172223133Y-90834017D01*
X172243348Y-90767135D01*
X172294725Y-90722618D01*
X172311064Y-90714999D01*
X172352734Y-90695568D01*
X172539139Y-90565047D01*
X172700047Y-90404139D01*
X172830568Y-90217734D01*
X172926739Y-90011496D01*
X172985635Y-89791692D01*
X173005468Y-89565000D01*
X172985635Y-89338308D01*
X172926739Y-89118504D01*
X172830568Y-88912266D01*
X172732839Y-88772693D01*
X172700045Y-88725858D01*
X172539141Y-88564954D01*
X172352734Y-88434432D01*
X172352728Y-88434429D01*
X172294725Y-88407382D01*
X172242285Y-88361210D01*
X172223133Y-88294017D01*
X172243348Y-88227135D01*
X172294725Y-88182618D01*
X172309640Y-88175663D01*
X172352734Y-88155568D01*
X172539139Y-88025047D01*
X172700047Y-87864139D01*
X172830568Y-87677734D01*
X172926739Y-87471496D01*
X172985635Y-87251692D01*
X173005468Y-87025000D01*
X172985635Y-86798308D01*
X172926739Y-86578504D01*
X172830568Y-86372266D01*
X172700047Y-86185861D01*
X172700045Y-86185858D01*
X172539141Y-86024954D01*
X172352734Y-85894432D01*
X172352728Y-85894429D01*
X172294725Y-85867382D01*
X172242285Y-85821210D01*
X172223133Y-85754017D01*
X172243348Y-85687135D01*
X172294725Y-85642618D01*
X172352734Y-85615568D01*
X172539139Y-85485047D01*
X172700047Y-85324139D01*
X172830568Y-85137734D01*
X172926739Y-84931496D01*
X172985635Y-84711692D01*
X173005468Y-84485000D01*
X172985635Y-84258308D01*
X172926739Y-84038504D01*
X172830568Y-83832266D01*
X172700047Y-83645861D01*
X172700045Y-83645858D01*
X172539141Y-83484954D01*
X172352734Y-83354432D01*
X172352728Y-83354429D01*
X172294725Y-83327382D01*
X172242285Y-83281210D01*
X172223133Y-83214017D01*
X172243348Y-83147135D01*
X172294725Y-83102618D01*
X172352734Y-83075568D01*
X172539139Y-82945047D01*
X172700047Y-82784139D01*
X172830568Y-82597734D01*
X172926739Y-82391496D01*
X172985635Y-82171692D01*
X173005468Y-81945000D01*
X172990869Y-81778137D01*
X173004635Y-81709639D01*
X173026713Y-81679653D01*
X173244548Y-81461819D01*
X173305871Y-81428334D01*
X173332229Y-81425500D01*
X177951222Y-81425500D01*
X178018261Y-81445185D01*
X178064016Y-81497989D01*
X178073960Y-81567147D01*
X178070997Y-81581593D01*
X178034366Y-81718302D01*
X178034364Y-81718313D01*
X178014532Y-81944998D01*
X178014532Y-81945001D01*
X178034364Y-82171686D01*
X178034366Y-82171697D01*
X178093258Y-82391488D01*
X178093261Y-82391497D01*
X178189431Y-82597732D01*
X178189432Y-82597734D01*
X178319954Y-82784141D01*
X178480858Y-82945045D01*
X178480861Y-82945047D01*
X178667266Y-83075568D01*
X178725275Y-83102618D01*
X178777714Y-83148791D01*
X178796866Y-83215984D01*
X178776650Y-83282865D01*
X178725275Y-83327382D01*
X178667267Y-83354431D01*
X178667265Y-83354432D01*
X178480858Y-83484954D01*
X178319954Y-83645858D01*
X178189432Y-83832265D01*
X178189431Y-83832267D01*
X178093261Y-84038502D01*
X178093258Y-84038511D01*
X178034366Y-84258302D01*
X178034364Y-84258313D01*
X178014532Y-84484998D01*
X178014532Y-84485001D01*
X178034364Y-84711686D01*
X178034366Y-84711697D01*
X178093258Y-84931488D01*
X178093261Y-84931497D01*
X178189431Y-85137732D01*
X178189432Y-85137734D01*
X178319954Y-85324141D01*
X178480858Y-85485045D01*
X178480861Y-85485047D01*
X178667266Y-85615568D01*
X178725275Y-85642618D01*
X178777714Y-85688791D01*
X178796866Y-85755984D01*
X178776650Y-85822865D01*
X178725275Y-85867382D01*
X178667267Y-85894431D01*
X178667265Y-85894432D01*
X178480858Y-86024954D01*
X178319954Y-86185858D01*
X178189432Y-86372265D01*
X178189431Y-86372267D01*
X178093261Y-86578502D01*
X178093258Y-86578511D01*
X178034366Y-86798302D01*
X178034364Y-86798313D01*
X178014532Y-87024998D01*
X178014532Y-87025001D01*
X178034364Y-87251686D01*
X178034366Y-87251697D01*
X178093258Y-87471488D01*
X178093261Y-87471497D01*
X178189431Y-87677732D01*
X178189432Y-87677734D01*
X178319954Y-87864141D01*
X178480858Y-88025045D01*
X178480861Y-88025047D01*
X178667266Y-88155568D01*
X178710360Y-88175663D01*
X178725275Y-88182618D01*
X178777714Y-88228791D01*
X178796866Y-88295984D01*
X178776650Y-88362865D01*
X178725275Y-88407382D01*
X178667267Y-88434431D01*
X178667265Y-88434432D01*
X178480858Y-88564954D01*
X178319954Y-88725858D01*
X178189432Y-88912265D01*
X178189431Y-88912267D01*
X178093261Y-89118502D01*
X178093258Y-89118511D01*
X178034366Y-89338302D01*
X178034364Y-89338313D01*
X178014532Y-89564998D01*
X178014532Y-89565001D01*
X178034364Y-89791686D01*
X178034366Y-89791697D01*
X178093258Y-90011488D01*
X178093261Y-90011497D01*
X178189431Y-90217732D01*
X178189432Y-90217734D01*
X178319954Y-90404141D01*
X178480858Y-90565045D01*
X178480861Y-90565047D01*
X178667266Y-90695568D01*
X178708936Y-90714999D01*
X178725275Y-90722618D01*
X178777714Y-90768791D01*
X178796866Y-90835984D01*
X178776650Y-90902865D01*
X178725275Y-90947382D01*
X178667267Y-90974431D01*
X178667265Y-90974432D01*
X178480858Y-91104954D01*
X178319954Y-91265858D01*
X178189432Y-91452265D01*
X178189431Y-91452267D01*
X178093261Y-91658502D01*
X178093258Y-91658511D01*
X178034366Y-91878302D01*
X178034364Y-91878313D01*
X178014532Y-92104998D01*
X178014532Y-92105001D01*
X178034364Y-92331686D01*
X178034366Y-92331697D01*
X178093258Y-92551488D01*
X178093261Y-92551497D01*
X178189431Y-92757732D01*
X178189432Y-92757734D01*
X178319954Y-92944141D01*
X178480858Y-93105045D01*
X178480861Y-93105047D01*
X178667266Y-93235568D01*
X178701812Y-93251677D01*
X178725275Y-93262618D01*
X178777714Y-93308791D01*
X178796866Y-93375984D01*
X178776650Y-93442865D01*
X178725275Y-93487382D01*
X178667267Y-93514431D01*
X178667265Y-93514432D01*
X178480858Y-93644954D01*
X178319954Y-93805858D01*
X178189432Y-93992265D01*
X178189431Y-93992267D01*
X178093261Y-94198502D01*
X178093258Y-94198511D01*
X178034366Y-94418302D01*
X178034364Y-94418313D01*
X178014532Y-94644998D01*
X178014532Y-94645001D01*
X178034364Y-94871686D01*
X178034366Y-94871697D01*
X178093258Y-95091488D01*
X178093261Y-95091497D01*
X178189431Y-95297732D01*
X178189432Y-95297734D01*
X178319954Y-95484141D01*
X178480858Y-95645045D01*
X178502216Y-95660000D01*
X178667266Y-95775568D01*
X178725275Y-95802618D01*
X178777714Y-95848791D01*
X178796866Y-95915984D01*
X178776650Y-95982865D01*
X178725275Y-96027382D01*
X178667267Y-96054431D01*
X178667265Y-96054432D01*
X178480858Y-96184954D01*
X178319954Y-96345858D01*
X178189432Y-96532265D01*
X178189431Y-96532267D01*
X178093261Y-96738502D01*
X178093258Y-96738511D01*
X178034366Y-96958302D01*
X178034364Y-96958313D01*
X178014532Y-97184998D01*
X178014532Y-97185001D01*
X178034364Y-97411686D01*
X178034366Y-97411697D01*
X178093258Y-97631488D01*
X178093261Y-97631497D01*
X178189431Y-97837732D01*
X178189432Y-97837734D01*
X178319954Y-98024141D01*
X178480858Y-98185045D01*
X178480861Y-98185047D01*
X178667266Y-98315568D01*
X178873504Y-98411739D01*
X179093308Y-98470635D01*
X179255230Y-98484801D01*
X179319998Y-98490468D01*
X179320000Y-98490468D01*
X179320002Y-98490468D01*
X179376673Y-98485509D01*
X179546692Y-98470635D01*
X179766496Y-98411739D01*
X179972734Y-98315568D01*
X180159139Y-98185047D01*
X180320047Y-98024139D01*
X180450568Y-97837734D01*
X180546739Y-97631496D01*
X180605635Y-97411692D01*
X180616223Y-97290670D01*
X180641674Y-97225604D01*
X180698265Y-97184626D01*
X180768027Y-97180747D01*
X180827431Y-97213799D01*
X182736578Y-99122947D01*
X182736585Y-99122953D01*
X182802286Y-99166852D01*
X182802288Y-99166853D01*
X182802291Y-99166855D01*
X182859505Y-99205084D01*
X182859506Y-99205084D01*
X182859507Y-99205085D01*
X182967942Y-99250000D01*
X182996087Y-99261658D01*
X182996091Y-99261658D01*
X182996092Y-99261659D01*
X183141079Y-99290500D01*
X183141082Y-99290500D01*
X183141083Y-99290500D01*
X183288918Y-99290500D01*
X186860555Y-99290500D01*
X186926964Y-99310000D01*
X187489591Y-99310000D01*
X187499318Y-99310382D01*
X187499516Y-99310397D01*
X187500819Y-99310500D01*
X187999180Y-99310499D01*
X187999193Y-99310498D01*
X188000668Y-99310382D01*
X188010393Y-99310000D01*
X188580542Y-99310000D01*
X188596277Y-99298256D01*
X188639445Y-99290500D01*
X193537023Y-99290500D01*
X193604062Y-99310185D01*
X193649817Y-99362989D01*
X193659761Y-99432147D01*
X193649406Y-99466900D01*
X193608318Y-99555013D01*
X193559106Y-99660548D01*
X193559104Y-99660554D01*
X193501930Y-99873929D01*
X193501929Y-99873937D01*
X193482677Y-100093997D01*
X193482677Y-100094002D01*
X193501929Y-100314062D01*
X193501930Y-100314070D01*
X193559104Y-100527445D01*
X193559105Y-100527447D01*
X193559106Y-100527450D01*
X193607100Y-100630374D01*
X193652466Y-100727662D01*
X193652468Y-100727666D01*
X193779170Y-100908615D01*
X193779175Y-100908621D01*
X193935378Y-101064824D01*
X193935384Y-101064829D01*
X194116333Y-101191531D01*
X194116335Y-101191532D01*
X194116338Y-101191534D01*
X194316550Y-101284894D01*
X194529932Y-101342070D01*
X194687123Y-101355822D01*
X194749998Y-101361323D01*
X194750000Y-101361323D01*
X194750002Y-101361323D01*
X194805017Y-101356509D01*
X194970068Y-101342070D01*
X195183450Y-101284894D01*
X195383662Y-101191534D01*
X195554878Y-101071647D01*
X195621083Y-101049321D01*
X195688850Y-101066331D01*
X195736663Y-101117279D01*
X195750000Y-101173223D01*
X195750000Y-110626000D01*
X195730315Y-110693039D01*
X195677511Y-110738794D01*
X195626000Y-110750000D01*
X180387506Y-110750000D01*
X180320467Y-110730315D01*
X180274712Y-110677511D01*
X180264768Y-110608353D01*
X180293793Y-110544797D01*
X180299825Y-110538319D01*
X180680042Y-110158102D01*
X180680045Y-110158099D01*
X180775858Y-110014705D01*
X180841855Y-109855374D01*
X180875500Y-109686229D01*
X180875500Y-109685758D01*
X180875570Y-109685519D01*
X180876097Y-109680169D01*
X180877111Y-109680268D01*
X180895185Y-109618719D01*
X180911819Y-109598077D01*
X181030104Y-109479792D01*
X181030106Y-109479788D01*
X181030109Y-109479786D01*
X181155048Y-109307820D01*
X181155047Y-109307820D01*
X181155051Y-109307816D01*
X181251557Y-109118412D01*
X181317246Y-108916243D01*
X181350500Y-108706287D01*
X181350500Y-108389006D01*
X181370185Y-108321967D01*
X181386819Y-108301325D01*
X182180042Y-107508102D01*
X182180045Y-107508099D01*
X182275858Y-107364705D01*
X182341855Y-107205374D01*
X182375500Y-107036229D01*
X182375500Y-106863771D01*
X182375500Y-105774499D01*
X182395185Y-105707460D01*
X182447989Y-105661705D01*
X182499500Y-105650499D01*
X182550002Y-105650499D01*
X182550008Y-105650499D01*
X182652797Y-105639999D01*
X182819334Y-105584814D01*
X182968656Y-105492712D01*
X183092712Y-105368656D01*
X183184814Y-105219334D01*
X183239999Y-105052797D01*
X183250500Y-104950009D01*
X183250499Y-103549992D01*
X183239999Y-103447203D01*
X183184814Y-103280666D01*
X183092712Y-103131344D01*
X182968656Y-103007288D01*
X182819334Y-102915186D01*
X182652797Y-102860001D01*
X182652795Y-102860000D01*
X182550016Y-102849500D01*
X182550009Y-102849500D01*
X181389006Y-102849500D01*
X181321967Y-102829815D01*
X181301325Y-102813181D01*
X178298144Y-99810000D01*
X186937156Y-99810000D01*
X186977595Y-99949194D01*
X187059261Y-100087285D01*
X187059268Y-100087294D01*
X187172705Y-100200731D01*
X187172714Y-100200738D01*
X187310808Y-100282406D01*
X187310811Y-100282407D01*
X187464871Y-100327166D01*
X187464877Y-100327167D01*
X187500000Y-100329931D01*
X187500000Y-100329930D01*
X188000000Y-100329930D01*
X188035122Y-100327167D01*
X188035128Y-100327166D01*
X188189188Y-100282407D01*
X188189191Y-100282406D01*
X188327285Y-100200738D01*
X188327294Y-100200731D01*
X188440731Y-100087294D01*
X188440738Y-100087285D01*
X188522404Y-99949194D01*
X188562844Y-99810000D01*
X188000000Y-99810000D01*
X188000000Y-100329930D01*
X187500000Y-100329930D01*
X187500000Y-99810000D01*
X186937156Y-99810000D01*
X178298144Y-99810000D01*
X176486819Y-97998675D01*
X176453334Y-97937352D01*
X176450500Y-97910994D01*
X176450500Y-83840530D01*
X176465142Y-83782076D01*
X176482555Y-83749500D01*
X176503814Y-83709727D01*
X176561024Y-83521132D01*
X176580341Y-83325000D01*
X176561024Y-83128868D01*
X176503814Y-82940273D01*
X176503811Y-82940269D01*
X176503811Y-82940266D01*
X176410913Y-82766467D01*
X176410909Y-82766460D01*
X176285883Y-82614116D01*
X176133539Y-82489090D01*
X176133532Y-82489086D01*
X175959733Y-82396188D01*
X175959727Y-82396186D01*
X175771132Y-82338976D01*
X175771129Y-82338975D01*
X175575000Y-82319659D01*
X175378870Y-82338975D01*
X175190266Y-82396188D01*
X175016467Y-82489086D01*
X175016460Y-82489090D01*
X174864116Y-82614116D01*
X174739090Y-82766460D01*
X174739086Y-82766467D01*
X174646188Y-82940266D01*
X174588975Y-83128870D01*
X174569659Y-83325000D01*
X174588975Y-83521129D01*
X174646187Y-83709730D01*
X174684858Y-83782076D01*
X174699500Y-83840530D01*
X174699500Y-98411233D01*
X174733143Y-98580366D01*
X174733146Y-98580378D01*
X174799138Y-98739698D01*
X174799145Y-98739711D01*
X174894954Y-98883098D01*
X174894957Y-98883102D01*
X178650319Y-102638463D01*
X178683804Y-102699786D01*
X178678820Y-102769478D01*
X178636948Y-102825411D01*
X178571484Y-102849828D01*
X178553171Y-102849551D01*
X178553166Y-102849661D01*
X178550092Y-102849504D01*
X178550057Y-102849504D01*
X178550031Y-102849501D01*
X178550012Y-102849500D01*
X178550009Y-102849500D01*
X178550003Y-102849500D01*
X176449998Y-102849500D01*
X176449981Y-102849501D01*
X176347203Y-102860000D01*
X176347200Y-102860001D01*
X176180668Y-102915185D01*
X176180663Y-102915187D01*
X176031342Y-103007289D01*
X175907289Y-103131342D01*
X175907288Y-103131344D01*
X175876926Y-103180570D01*
X175870741Y-103190597D01*
X175818793Y-103237321D01*
X175765202Y-103249500D01*
X175100959Y-103249500D01*
X175036811Y-103231618D01*
X175031602Y-103228469D01*
X174877887Y-103180570D01*
X174877885Y-103180569D01*
X174877883Y-103180569D01*
X174831117Y-103176319D01*
X174811091Y-103174500D01*
X174811088Y-103174500D01*
X173808901Y-103174500D01*
X173742117Y-103180568D01*
X173742106Y-103180571D01*
X173588401Y-103228467D01*
X173450608Y-103311766D01*
X173336766Y-103425608D01*
X173253469Y-103563397D01*
X173205569Y-103717116D01*
X173199500Y-103783911D01*
X173199500Y-104216098D01*
X173205568Y-104282882D01*
X173205571Y-104282893D01*
X173253467Y-104436598D01*
X173253468Y-104436600D01*
X173253469Y-104436602D01*
X173336764Y-104574388D01*
X173336766Y-104574391D01*
X173450608Y-104688233D01*
X173450610Y-104688234D01*
X173450612Y-104688236D01*
X173588398Y-104771531D01*
X173742113Y-104819430D01*
X173808909Y-104825500D01*
X174811090Y-104825499D01*
X174811097Y-104825499D01*
X174877882Y-104819431D01*
X174877885Y-104819430D01*
X174877887Y-104819430D01*
X175031602Y-104771531D01*
X175036811Y-104768381D01*
X175100959Y-104750500D01*
X175625501Y-104750500D01*
X175692540Y-104770185D01*
X175738295Y-104822989D01*
X175749501Y-104874500D01*
X175749501Y-104950018D01*
X175760000Y-105052796D01*
X175760001Y-105052799D01*
X175808779Y-105200000D01*
X175815186Y-105219334D01*
X175907288Y-105368656D01*
X176031344Y-105492712D01*
X176180666Y-105584814D01*
X176347203Y-105639999D01*
X176449991Y-105650500D01*
X176625500Y-105650499D01*
X176692539Y-105670183D01*
X176738294Y-105722987D01*
X176749500Y-105774499D01*
X176749500Y-106869699D01*
X176729815Y-106936738D01*
X176677011Y-106982493D01*
X176664507Y-106987403D01*
X176631962Y-106998188D01*
X176580668Y-107015185D01*
X176580663Y-107015187D01*
X176431342Y-107107289D01*
X176307289Y-107231342D01*
X176215187Y-107380663D01*
X176215185Y-107380668D01*
X176210325Y-107395334D01*
X176160001Y-107547203D01*
X176160001Y-107547204D01*
X176160000Y-107547204D01*
X176149500Y-107649983D01*
X176149500Y-109250001D01*
X176149501Y-109250018D01*
X176160000Y-109352796D01*
X176160001Y-109352799D01*
X176215185Y-109519331D01*
X176215189Y-109519340D01*
X176302198Y-109660404D01*
X176320638Y-109727796D01*
X176299715Y-109794459D01*
X176246073Y-109839229D01*
X176196659Y-109849500D01*
X173711889Y-109849500D01*
X173644850Y-109829815D01*
X173599095Y-109777011D01*
X173589151Y-109707853D01*
X173592114Y-109693406D01*
X173650636Y-109475000D01*
X172753012Y-109475000D01*
X172785925Y-109417993D01*
X172820000Y-109290826D01*
X172820000Y-109159174D01*
X172785925Y-109032007D01*
X172753012Y-108975000D01*
X173650636Y-108975000D01*
X173650635Y-108974999D01*
X173593432Y-108761513D01*
X173593429Y-108761507D01*
X173493600Y-108547422D01*
X173493599Y-108547420D01*
X173358113Y-108353926D01*
X173358108Y-108353920D01*
X173191082Y-108186894D01*
X172997578Y-108051399D01*
X172783492Y-107951570D01*
X172783486Y-107951567D01*
X172570000Y-107894364D01*
X172570000Y-108791988D01*
X172512993Y-108759075D01*
X172385826Y-108725000D01*
X172254174Y-108725000D01*
X172127007Y-108759075D01*
X172070000Y-108791988D01*
X172070000Y-107894364D01*
X172069999Y-107894364D01*
X171856513Y-107951567D01*
X171856507Y-107951570D01*
X171642422Y-108051399D01*
X171642420Y-108051400D01*
X171448926Y-108186886D01*
X171448920Y-108186891D01*
X171281891Y-108353920D01*
X171281890Y-108353922D01*
X171151880Y-108539595D01*
X171097303Y-108583219D01*
X171027804Y-108590412D01*
X170965450Y-108558890D01*
X170948730Y-108539594D01*
X170818494Y-108353597D01*
X170651402Y-108186506D01*
X170651395Y-108186501D01*
X170457834Y-108050967D01*
X170457830Y-108050965D01*
X170457828Y-108050964D01*
X170243663Y-107951097D01*
X170243659Y-107951096D01*
X170243655Y-107951094D01*
X170015413Y-107889938D01*
X170015403Y-107889936D01*
X169780001Y-107869341D01*
X169779999Y-107869341D01*
X169544596Y-107889936D01*
X169544586Y-107889938D01*
X169316344Y-107951094D01*
X169316335Y-107951098D01*
X169102171Y-108050964D01*
X169102169Y-108050965D01*
X168908597Y-108186505D01*
X168741505Y-108353597D01*
X168611575Y-108539158D01*
X168556998Y-108582783D01*
X168487500Y-108589977D01*
X168425145Y-108558454D01*
X168408425Y-108539158D01*
X168278494Y-108353597D01*
X168111402Y-108186506D01*
X168111395Y-108186501D01*
X167917834Y-108050967D01*
X167917830Y-108050965D01*
X167917828Y-108050964D01*
X167703663Y-107951097D01*
X167703659Y-107951096D01*
X167703655Y-107951094D01*
X167475413Y-107889938D01*
X167475403Y-107889936D01*
X167240001Y-107869341D01*
X167239999Y-107869341D01*
X167004596Y-107889936D01*
X167004586Y-107889938D01*
X166776344Y-107951094D01*
X166776335Y-107951098D01*
X166562171Y-108050964D01*
X166562169Y-108050965D01*
X166368600Y-108186503D01*
X166246673Y-108308430D01*
X166185350Y-108341914D01*
X166115658Y-108336930D01*
X166059725Y-108295058D01*
X166042810Y-108264081D01*
X165993797Y-108132671D01*
X165993793Y-108132664D01*
X165907547Y-108017455D01*
X165907544Y-108017452D01*
X165792335Y-107931206D01*
X165792328Y-107931202D01*
X165657482Y-107880908D01*
X165657483Y-107880908D01*
X165597883Y-107874501D01*
X165597881Y-107874500D01*
X165597873Y-107874500D01*
X165597864Y-107874500D01*
X163802129Y-107874500D01*
X163802123Y-107874501D01*
X163742516Y-107880908D01*
X163607671Y-107931202D01*
X163607664Y-107931206D01*
X163492455Y-108017452D01*
X163492452Y-108017455D01*
X163406206Y-108132664D01*
X163406202Y-108132671D01*
X163355908Y-108267517D01*
X163349501Y-108327116D01*
X163349500Y-108327135D01*
X163349500Y-110122870D01*
X163349501Y-110122876D01*
X163355908Y-110182483D01*
X163406202Y-110317328D01*
X163406206Y-110317335D01*
X163492452Y-110432544D01*
X163492455Y-110432547D01*
X163614769Y-110524112D01*
X163613425Y-110525907D01*
X163654091Y-110566572D01*
X163668944Y-110634844D01*
X163644528Y-110700309D01*
X163588595Y-110742181D01*
X163545260Y-110750000D01*
X147874000Y-110750000D01*
X147806961Y-110730315D01*
X147761206Y-110677511D01*
X147750000Y-110626000D01*
X147750000Y-106500000D01*
X144373906Y-106500000D01*
X144306867Y-106480315D01*
X144261112Y-106427511D01*
X144249906Y-106376094D01*
X144249014Y-105200000D01*
X170583085Y-105200000D01*
X170586064Y-105232792D01*
X170586067Y-105232802D01*
X170633927Y-105386392D01*
X170717163Y-105524080D01*
X170830919Y-105637836D01*
X170968603Y-105721070D01*
X171122207Y-105768934D01*
X171188957Y-105775000D01*
X171440000Y-105775000D01*
X171940000Y-105775000D01*
X172191043Y-105775000D01*
X172257792Y-105768934D01*
X172411396Y-105721070D01*
X172549080Y-105637836D01*
X172662836Y-105524080D01*
X172746072Y-105386392D01*
X172793932Y-105232802D01*
X172793935Y-105232792D01*
X172796914Y-105200000D01*
X171940000Y-105200000D01*
X171940000Y-105775000D01*
X171440000Y-105775000D01*
X171440000Y-105200000D01*
X170583085Y-105200000D01*
X144249014Y-105200000D01*
X144248730Y-104825499D01*
X144248635Y-104699999D01*
X170583085Y-104699999D01*
X170583085Y-104700000D01*
X171440000Y-104700000D01*
X171940000Y-104700000D01*
X172796915Y-104700000D01*
X172796914Y-104699999D01*
X172793935Y-104667207D01*
X172793932Y-104667197D01*
X172746072Y-104513607D01*
X172662836Y-104375919D01*
X172549080Y-104262163D01*
X172411396Y-104178929D01*
X172257792Y-104131065D01*
X172191043Y-104125000D01*
X171940000Y-104125000D01*
X171940000Y-104700000D01*
X171440000Y-104700000D01*
X171440000Y-104125000D01*
X171188957Y-104125000D01*
X171122207Y-104131065D01*
X170968603Y-104178929D01*
X170830919Y-104262163D01*
X170717163Y-104375919D01*
X170633927Y-104513607D01*
X170586067Y-104667197D01*
X170586064Y-104667207D01*
X170583085Y-104699999D01*
X144248635Y-104699999D01*
X144246834Y-102325001D01*
X154952704Y-102325001D01*
X154952899Y-102327486D01*
X154998718Y-102485198D01*
X155082314Y-102626552D01*
X155082321Y-102626561D01*
X155198438Y-102742678D01*
X155198447Y-102742685D01*
X155339803Y-102826282D01*
X155339806Y-102826283D01*
X155497504Y-102872099D01*
X155497510Y-102872100D01*
X155534350Y-102874999D01*
X155534366Y-102875000D01*
X155862500Y-102875000D01*
X156362500Y-102875000D01*
X156690634Y-102875000D01*
X156690649Y-102874999D01*
X156727489Y-102872100D01*
X156727495Y-102872099D01*
X156885193Y-102826283D01*
X156885196Y-102826282D01*
X157026552Y-102742685D01*
X157026561Y-102742678D01*
X157142678Y-102626561D01*
X157142682Y-102626555D01*
X157143267Y-102625568D01*
X157143927Y-102624951D01*
X157147463Y-102620393D01*
X157148198Y-102620963D01*
X157194336Y-102577884D01*
X157263077Y-102565380D01*
X157327667Y-102592024D01*
X157352364Y-102620526D01*
X157352537Y-102620393D01*
X157354997Y-102623564D01*
X157356733Y-102625568D01*
X157357317Y-102626555D01*
X157357321Y-102626561D01*
X157473438Y-102742678D01*
X157473447Y-102742685D01*
X157614803Y-102826282D01*
X157614806Y-102826283D01*
X157772504Y-102872099D01*
X157772510Y-102872100D01*
X157809350Y-102874999D01*
X157809366Y-102875000D01*
X158137500Y-102875000D01*
X158637500Y-102875000D01*
X158965634Y-102875000D01*
X158965649Y-102874999D01*
X159002489Y-102872100D01*
X159002495Y-102872099D01*
X159160193Y-102826283D01*
X159160196Y-102826282D01*
X159301552Y-102742685D01*
X159301561Y-102742678D01*
X159417678Y-102626561D01*
X159417685Y-102626552D01*
X159501281Y-102485198D01*
X159547100Y-102327486D01*
X159547295Y-102325001D01*
X159547295Y-102325000D01*
X158637500Y-102325000D01*
X158637500Y-102875000D01*
X158137500Y-102875000D01*
X158137500Y-102325000D01*
X156362500Y-102325000D01*
X156362500Y-102875000D01*
X155862500Y-102875000D01*
X155862500Y-102325000D01*
X154952705Y-102325000D01*
X154952704Y-102325001D01*
X144246834Y-102325001D01*
X144225093Y-73648215D01*
X144244727Y-73581163D01*
X144297496Y-73535368D01*
X144348213Y-73524126D01*
X147750000Y-73500000D01*
X147750000Y-72451677D01*
X166775000Y-72451677D01*
X166775000Y-72475000D01*
X167500000Y-72475000D01*
X168000000Y-72475000D01*
X168724999Y-72475000D01*
X168724999Y-72451692D01*
X168724998Y-72451677D01*
X168714855Y-72352392D01*
X168661547Y-72191518D01*
X168661542Y-72191507D01*
X168572575Y-72047271D01*
X168572572Y-72047267D01*
X168452732Y-71927427D01*
X168452728Y-71927424D01*
X168308492Y-71838457D01*
X168308481Y-71838452D01*
X168147606Y-71785144D01*
X168048322Y-71775000D01*
X168000000Y-71775000D01*
X168000000Y-72475000D01*
X167500000Y-72475000D01*
X167500000Y-71775000D01*
X167499999Y-71774999D01*
X167451693Y-71775000D01*
X167451675Y-71775001D01*
X167352392Y-71785144D01*
X167191518Y-71838452D01*
X167191507Y-71838457D01*
X167047271Y-71927424D01*
X167047267Y-71927427D01*
X166927427Y-72047267D01*
X166927424Y-72047271D01*
X166838457Y-72191507D01*
X166838452Y-72191518D01*
X166785144Y-72352393D01*
X166775000Y-72451677D01*
X147750000Y-72451677D01*
X147750000Y-72000013D01*
X164025000Y-72000013D01*
X164025000Y-72050000D01*
X165000000Y-72050000D01*
X165500000Y-72050000D01*
X166474999Y-72050000D01*
X166474999Y-72000028D01*
X166474998Y-72000013D01*
X166464505Y-71897302D01*
X166409358Y-71730880D01*
X166409356Y-71730875D01*
X166317315Y-71581654D01*
X166193345Y-71457684D01*
X166044124Y-71365643D01*
X166044119Y-71365641D01*
X165877697Y-71310494D01*
X165877690Y-71310493D01*
X165774986Y-71300000D01*
X165500000Y-71300000D01*
X165500000Y-72050000D01*
X165000000Y-72050000D01*
X165000000Y-71300000D01*
X164725029Y-71300000D01*
X164725012Y-71300001D01*
X164622302Y-71310494D01*
X164455880Y-71365641D01*
X164455875Y-71365643D01*
X164306654Y-71457684D01*
X164182684Y-71581654D01*
X164090643Y-71730875D01*
X164090641Y-71730880D01*
X164035494Y-71897302D01*
X164035493Y-71897309D01*
X164025000Y-72000013D01*
X147750000Y-72000013D01*
X147750000Y-70124000D01*
X147769685Y-70056961D01*
X147822489Y-70011206D01*
X147874000Y-70000000D01*
X195626000Y-70000000D01*
X195693039Y-70019685D01*
G37*
G04 #@! TD.AperFunction*
G04 #@! TA.AperFunction,Conductor*
G36*
X153563117Y-85988869D02*
G01*
X153620607Y-86022869D01*
X153732243Y-86055302D01*
X153785329Y-86086697D01*
X153953181Y-86254549D01*
X153986666Y-86315872D01*
X153989500Y-86342230D01*
X153989500Y-95388064D01*
X153984577Y-95422657D01*
X153972336Y-95464792D01*
X153972334Y-95464802D01*
X153969500Y-95500811D01*
X153969500Y-95999169D01*
X153969501Y-95999191D01*
X153969944Y-96004815D01*
X153972335Y-96035204D01*
X153982261Y-96069370D01*
X153984576Y-96077336D01*
X153989500Y-96111932D01*
X153989500Y-98751418D01*
X153989500Y-98751420D01*
X153989499Y-98751420D01*
X154018340Y-98896407D01*
X154018343Y-98896417D01*
X154074912Y-99032988D01*
X154074917Y-99032997D01*
X154082623Y-99044529D01*
X154098035Y-99067595D01*
X154098036Y-99067598D01*
X154098037Y-99067598D01*
X154137276Y-99126325D01*
X154157051Y-99155920D01*
X154157052Y-99155921D01*
X154913181Y-99912048D01*
X154946666Y-99973371D01*
X154949500Y-99999729D01*
X154949500Y-100138000D01*
X154929815Y-100205039D01*
X154877011Y-100250794D01*
X154825500Y-100262000D01*
X152499333Y-100262000D01*
X152432294Y-100242315D01*
X152422422Y-100235266D01*
X152418658Y-100232290D01*
X152418656Y-100232288D01*
X152269334Y-100140186D01*
X152218772Y-100123431D01*
X152161329Y-100083659D01*
X152134506Y-100019143D01*
X152146821Y-99950367D01*
X152170094Y-99918048D01*
X153455045Y-98633099D01*
X153550858Y-98489705D01*
X153616855Y-98330374D01*
X153650500Y-98161229D01*
X153650500Y-97988771D01*
X153650500Y-92438771D01*
X153650500Y-92438768D01*
X153650499Y-92438766D01*
X153630925Y-92340360D01*
X153616855Y-92269626D01*
X153608037Y-92248337D01*
X153550861Y-92110301D01*
X153550854Y-92110288D01*
X153455046Y-91966902D01*
X153455045Y-91966901D01*
X153333099Y-91844955D01*
X152285715Y-90797571D01*
X152252230Y-90736248D01*
X152257214Y-90666556D01*
X152299086Y-90610623D01*
X152308301Y-90604350D01*
X152368345Y-90567315D01*
X152492315Y-90443345D01*
X152584356Y-90294124D01*
X152584358Y-90294119D01*
X152639505Y-90127697D01*
X152639506Y-90127690D01*
X152649999Y-90024986D01*
X152650000Y-90024973D01*
X152650000Y-89750000D01*
X151524000Y-89750000D01*
X151456961Y-89730315D01*
X151411206Y-89677511D01*
X151400000Y-89626000D01*
X151400000Y-89250000D01*
X151900000Y-89250000D01*
X152649999Y-89250000D01*
X152649999Y-88975028D01*
X152649998Y-88975013D01*
X152639505Y-88872302D01*
X152584358Y-88705880D01*
X152584356Y-88705875D01*
X152492315Y-88556654D01*
X152398342Y-88462681D01*
X152364857Y-88401358D01*
X152369841Y-88331666D01*
X152398342Y-88287319D01*
X152492315Y-88193345D01*
X152584356Y-88044124D01*
X152584358Y-88044119D01*
X152639505Y-87877697D01*
X152639506Y-87877690D01*
X152649999Y-87774986D01*
X152650000Y-87774973D01*
X152650000Y-87500000D01*
X151900000Y-87500000D01*
X151900000Y-89250000D01*
X151400000Y-89250000D01*
X151400000Y-87124000D01*
X151419685Y-87056961D01*
X151472489Y-87011206D01*
X151524000Y-87000000D01*
X152649999Y-87000000D01*
X152649999Y-86725028D01*
X152649998Y-86725013D01*
X152639505Y-86622302D01*
X152584358Y-86455880D01*
X152584356Y-86455875D01*
X152492315Y-86306654D01*
X152397842Y-86212181D01*
X152364357Y-86150858D01*
X152369341Y-86081166D01*
X152411213Y-86025233D01*
X152476677Y-86000816D01*
X152485523Y-86000500D01*
X152528861Y-86000500D01*
X152591981Y-86017767D01*
X152600607Y-86022869D01*
X152607784Y-86024954D01*
X152754791Y-86067664D01*
X152754794Y-86067664D01*
X152754796Y-86067665D01*
X152790819Y-86070500D01*
X153189180Y-86070499D01*
X153225204Y-86067665D01*
X153379393Y-86022869D01*
X153436882Y-85988869D01*
X153504602Y-85971688D01*
X153563117Y-85988869D01*
G37*
G04 #@! TD.AperFunction*
G04 #@! TA.AperFunction,Conductor*
G36*
X155695703Y-96924293D02*
G01*
X155702181Y-96930325D01*
X156229955Y-97458099D01*
X156306978Y-97535122D01*
X156351902Y-97580046D01*
X156495288Y-97675854D01*
X156495301Y-97675861D01*
X156632135Y-97732539D01*
X156654626Y-97741855D01*
X156823766Y-97775499D01*
X156823769Y-97775500D01*
X156823771Y-97775500D01*
X157460994Y-97775500D01*
X157528033Y-97795185D01*
X157548675Y-97811819D01*
X158591897Y-98855042D01*
X158591901Y-98855045D01*
X158735288Y-98950854D01*
X158735301Y-98950861D01*
X158853934Y-99000000D01*
X158894626Y-99016855D01*
X159063766Y-99050499D01*
X159063769Y-99050500D01*
X159063771Y-99050500D01*
X159236229Y-99050500D01*
X160785994Y-99050500D01*
X160853033Y-99070185D01*
X160873675Y-99086819D01*
X160913181Y-99126325D01*
X160946666Y-99187648D01*
X160949500Y-99214006D01*
X160949500Y-99960994D01*
X160929815Y-100028033D01*
X160913181Y-100048675D01*
X160748675Y-100213181D01*
X160687352Y-100246666D01*
X160660994Y-100249500D01*
X158261500Y-100249500D01*
X158194461Y-100229815D01*
X158148706Y-100177011D01*
X158137500Y-100125500D01*
X158137500Y-99925000D01*
X158637500Y-99925000D01*
X159547295Y-99925000D01*
X159547295Y-99924998D01*
X159547100Y-99922513D01*
X159501281Y-99764801D01*
X159417685Y-99623447D01*
X159417678Y-99623438D01*
X159301561Y-99507321D01*
X159301552Y-99507314D01*
X159160196Y-99423717D01*
X159160193Y-99423716D01*
X159002495Y-99377900D01*
X159002489Y-99377899D01*
X158965649Y-99375000D01*
X158637500Y-99375000D01*
X158637500Y-99925000D01*
X158137500Y-99925000D01*
X158137500Y-99375000D01*
X157809350Y-99375000D01*
X157772510Y-99377899D01*
X157772504Y-99377900D01*
X157614806Y-99423716D01*
X157614803Y-99423717D01*
X157473447Y-99507314D01*
X157473438Y-99507321D01*
X157357321Y-99623438D01*
X157357312Y-99623449D01*
X157357017Y-99623950D01*
X157356683Y-99624261D01*
X157352537Y-99629607D01*
X157351674Y-99628937D01*
X157305943Y-99671629D01*
X157237200Y-99684127D01*
X157172614Y-99657476D01*
X157148063Y-99629140D01*
X157147861Y-99629298D01*
X157144967Y-99625568D01*
X157143559Y-99623942D01*
X157143085Y-99623140D01*
X157143076Y-99623129D01*
X157026870Y-99506923D01*
X157026862Y-99506917D01*
X156900432Y-99432147D01*
X156885398Y-99423256D01*
X156885397Y-99423255D01*
X156885396Y-99423255D01*
X156885393Y-99423254D01*
X156727573Y-99377402D01*
X156727567Y-99377401D01*
X156690701Y-99374500D01*
X156690694Y-99374500D01*
X156549729Y-99374500D01*
X156482690Y-99354815D01*
X156462048Y-99338181D01*
X155526819Y-98402951D01*
X155493334Y-98341628D01*
X155490500Y-98315270D01*
X155490500Y-97018006D01*
X155510185Y-96950967D01*
X155562989Y-96905212D01*
X155632147Y-96895268D01*
X155695703Y-96924293D01*
G37*
G04 #@! TD.AperFunction*
G04 #@! TA.AperFunction,Conductor*
G36*
X170323582Y-89565298D02*
G01*
X170379516Y-89607170D01*
X170403777Y-89670672D01*
X170414364Y-89791687D01*
X170414366Y-89791697D01*
X170473258Y-90011488D01*
X170473261Y-90011497D01*
X170569431Y-90217732D01*
X170569432Y-90217734D01*
X170699954Y-90404141D01*
X170860858Y-90565045D01*
X170860861Y-90565047D01*
X171047266Y-90695568D01*
X171088936Y-90714999D01*
X171105275Y-90722618D01*
X171157714Y-90768791D01*
X171176866Y-90835984D01*
X171156650Y-90902865D01*
X171105275Y-90947382D01*
X171047267Y-90974431D01*
X171047265Y-90974432D01*
X170860858Y-91104954D01*
X170699954Y-91265858D01*
X170569432Y-91452265D01*
X170569431Y-91452267D01*
X170473261Y-91658502D01*
X170473258Y-91658511D01*
X170414366Y-91878302D01*
X170414364Y-91878313D01*
X170394532Y-92104998D01*
X170394532Y-92105003D01*
X170409129Y-92271861D01*
X170395362Y-92340360D01*
X170373282Y-92370348D01*
X167280451Y-95463181D01*
X167219128Y-95496666D01*
X167192770Y-95499500D01*
X165770038Y-95499500D01*
X165702999Y-95479815D01*
X165657244Y-95427011D01*
X165647300Y-95357853D01*
X165650961Y-95340906D01*
X165667167Y-95285122D01*
X165669931Y-95250000D01*
X164774500Y-95250000D01*
X164707461Y-95230315D01*
X164661706Y-95177511D01*
X164650500Y-95126000D01*
X164650499Y-94750831D01*
X164650498Y-94750806D01*
X164650382Y-94749332D01*
X164650000Y-94739607D01*
X164650000Y-94187154D01*
X165150000Y-94187154D01*
X165150000Y-94750000D01*
X165669931Y-94750000D01*
X165667167Y-94714877D01*
X165667166Y-94714871D01*
X165622407Y-94560811D01*
X165622406Y-94560808D01*
X165540738Y-94422714D01*
X165540731Y-94422705D01*
X165427294Y-94309268D01*
X165427285Y-94309261D01*
X165289191Y-94227593D01*
X165289188Y-94227591D01*
X165150001Y-94187153D01*
X165150000Y-94187154D01*
X164650000Y-94187154D01*
X164649998Y-94187153D01*
X164510811Y-94227591D01*
X164510810Y-94227592D01*
X164453611Y-94261419D01*
X164385886Y-94278600D01*
X164327371Y-94261419D01*
X164270174Y-94227593D01*
X164269393Y-94227131D01*
X164269392Y-94227130D01*
X164269391Y-94227130D01*
X164269388Y-94227129D01*
X164140087Y-94189564D01*
X164105792Y-94173591D01*
X164046117Y-94133718D01*
X164010495Y-94109916D01*
X164010488Y-94109912D01*
X163873917Y-94053343D01*
X163873907Y-94053340D01*
X163728920Y-94024500D01*
X163728918Y-94024500D01*
X162220033Y-94024500D01*
X162152994Y-94004815D01*
X162107239Y-93952011D01*
X162097295Y-93882853D01*
X162105472Y-93853047D01*
X162125017Y-93805861D01*
X162136091Y-93779127D01*
X162175500Y-93581003D01*
X162175500Y-93378997D01*
X162136091Y-93180873D01*
X162058786Y-92994244D01*
X162058784Y-92994241D01*
X162058782Y-92994237D01*
X161946558Y-92826281D01*
X161803721Y-92683444D01*
X161803717Y-92683441D01*
X161730609Y-92634591D01*
X161685804Y-92580978D01*
X161675500Y-92531489D01*
X161675500Y-90949499D01*
X161695185Y-90882460D01*
X161747989Y-90836705D01*
X161799500Y-90825499D01*
X162201097Y-90825499D01*
X162267882Y-90819431D01*
X162267885Y-90819430D01*
X162267887Y-90819430D01*
X162356752Y-90791739D01*
X162428763Y-90769300D01*
X162429771Y-90772537D01*
X162483769Y-90764891D01*
X162547263Y-90794052D01*
X162553541Y-90799909D01*
X162628181Y-90874548D01*
X162661666Y-90935871D01*
X162664500Y-90962230D01*
X162664500Y-91081613D01*
X162670913Y-91152192D01*
X162670913Y-91152194D01*
X162670914Y-91152196D01*
X162721522Y-91314606D01*
X162804741Y-91452267D01*
X162809530Y-91460188D01*
X162929811Y-91580469D01*
X162929813Y-91580470D01*
X162929815Y-91580472D01*
X163075394Y-91668478D01*
X163237804Y-91719086D01*
X163308384Y-91725500D01*
X163308387Y-91725500D01*
X163971613Y-91725500D01*
X163971616Y-91725500D01*
X164042196Y-91719086D01*
X164204606Y-91668478D01*
X164350185Y-91580472D01*
X164470472Y-91460185D01*
X164558478Y-91314606D01*
X164609086Y-91152196D01*
X164615500Y-91081616D01*
X164615500Y-90661229D01*
X164635185Y-90594190D01*
X164687989Y-90548435D01*
X164757147Y-90538491D01*
X164820703Y-90567516D01*
X164827173Y-90573541D01*
X164847823Y-90594190D01*
X165128181Y-90874548D01*
X165161666Y-90935871D01*
X165164500Y-90962229D01*
X165164500Y-91081613D01*
X165170913Y-91152192D01*
X165170913Y-91152194D01*
X165170914Y-91152196D01*
X165221522Y-91314606D01*
X165304741Y-91452267D01*
X165309530Y-91460188D01*
X165429811Y-91580469D01*
X165429813Y-91580470D01*
X165429815Y-91580472D01*
X165575394Y-91668478D01*
X165737804Y-91719086D01*
X165808384Y-91725500D01*
X165808387Y-91725500D01*
X166471613Y-91725500D01*
X166471616Y-91725500D01*
X166542196Y-91719086D01*
X166704606Y-91668478D01*
X166828828Y-91593382D01*
X166892977Y-91575500D01*
X167973920Y-91575500D01*
X168071462Y-91556096D01*
X168118913Y-91546658D01*
X168255495Y-91490084D01*
X168312094Y-91452266D01*
X168312094Y-91452265D01*
X168312096Y-91452265D01*
X168345255Y-91430109D01*
X168378416Y-91407952D01*
X170192568Y-89593798D01*
X170253891Y-89560314D01*
X170323582Y-89565298D01*
G37*
G04 #@! TD.AperFunction*
G04 #@! TA.AperFunction,Conductor*
G36*
X187087443Y-90070185D02*
G01*
X187108085Y-90086819D01*
X187212396Y-90191130D01*
X187212400Y-90191133D01*
X187212402Y-90191135D01*
X187350607Y-90272869D01*
X187386015Y-90283156D01*
X187504791Y-90317664D01*
X187504794Y-90317664D01*
X187504796Y-90317665D01*
X187540819Y-90320500D01*
X187939180Y-90320499D01*
X187975204Y-90317665D01*
X188129393Y-90272869D01*
X188144210Y-90264105D01*
X188211929Y-90246922D01*
X188278193Y-90269079D01*
X188295012Y-90283156D01*
X188874675Y-90862819D01*
X188908160Y-90924142D01*
X188903176Y-90993834D01*
X188861304Y-91049767D01*
X188795840Y-91074184D01*
X188786994Y-91074500D01*
X184607975Y-91074500D01*
X184568971Y-91068206D01*
X184467709Y-91034651D01*
X184368346Y-91024500D01*
X183771662Y-91024500D01*
X183771644Y-91024501D01*
X183672292Y-91034650D01*
X183672289Y-91034651D01*
X183511305Y-91087996D01*
X183511294Y-91088001D01*
X183366959Y-91177029D01*
X183366955Y-91177032D01*
X183247032Y-91296955D01*
X183247029Y-91296959D01*
X183158001Y-91441294D01*
X183157996Y-91441305D01*
X183104651Y-91602290D01*
X183094500Y-91701647D01*
X183094500Y-92248337D01*
X183094501Y-92248355D01*
X183104650Y-92347707D01*
X183104651Y-92347710D01*
X183157996Y-92508694D01*
X183158001Y-92508705D01*
X183247029Y-92653040D01*
X183247032Y-92653044D01*
X183256660Y-92662672D01*
X183290145Y-92723995D01*
X183285161Y-92793687D01*
X183256663Y-92838031D01*
X183247428Y-92847265D01*
X183247424Y-92847271D01*
X183158457Y-92991507D01*
X183158452Y-92991518D01*
X183105144Y-93152393D01*
X183095000Y-93251677D01*
X183095000Y-93275000D01*
X185044999Y-93275000D01*
X185044999Y-93251692D01*
X185044998Y-93251677D01*
X185034855Y-93152392D01*
X184980548Y-92988504D01*
X184978146Y-92918676D01*
X185013878Y-92858634D01*
X185076398Y-92827441D01*
X185098254Y-92825500D01*
X189626231Y-92825500D01*
X189626232Y-92825499D01*
X189795374Y-92791855D01*
X189954705Y-92725858D01*
X189986990Y-92704286D01*
X190053667Y-92683407D01*
X190121047Y-92701891D01*
X190167738Y-92753869D01*
X190178916Y-92822839D01*
X190151031Y-92886903D01*
X190143563Y-92895068D01*
X188650451Y-94388181D01*
X188589128Y-94421666D01*
X188562770Y-94424500D01*
X184970167Y-94424500D01*
X184903128Y-94404815D01*
X184857373Y-94352011D01*
X184847429Y-94282853D01*
X184876454Y-94219297D01*
X184882486Y-94212819D01*
X184892572Y-94202732D01*
X184892575Y-94202728D01*
X184981542Y-94058492D01*
X184981547Y-94058481D01*
X185034855Y-93897606D01*
X185044999Y-93798322D01*
X185045000Y-93798309D01*
X185045000Y-93775000D01*
X183095001Y-93775000D01*
X183095001Y-93798322D01*
X183105144Y-93897607D01*
X183158452Y-94058481D01*
X183158457Y-94058492D01*
X183247424Y-94202728D01*
X183247427Y-94202732D01*
X183257514Y-94212819D01*
X183290999Y-94274142D01*
X183286015Y-94343834D01*
X183244143Y-94399767D01*
X183178679Y-94424184D01*
X183169833Y-94424500D01*
X182752229Y-94424500D01*
X182685190Y-94404815D01*
X182664548Y-94388181D01*
X180646716Y-92370348D01*
X180613231Y-92309025D01*
X180610869Y-92271861D01*
X180625468Y-92105000D01*
X180605635Y-91878308D01*
X180546739Y-91658504D01*
X180450568Y-91452266D01*
X180320047Y-91265861D01*
X180320045Y-91265858D01*
X180159141Y-91104954D01*
X179972734Y-90974432D01*
X179972728Y-90974429D01*
X179914725Y-90947382D01*
X179862285Y-90901210D01*
X179843133Y-90834017D01*
X179863348Y-90767135D01*
X179914725Y-90722618D01*
X179931064Y-90714999D01*
X179972734Y-90695568D01*
X180147888Y-90572925D01*
X180214094Y-90550598D01*
X180219011Y-90550500D01*
X184464071Y-90550500D01*
X184548615Y-90533682D01*
X184589744Y-90525501D01*
X184708127Y-90476465D01*
X184711584Y-90474155D01*
X184718543Y-90469506D01*
X184790605Y-90421356D01*
X184814669Y-90405277D01*
X185133127Y-90086819D01*
X185194450Y-90053334D01*
X185220808Y-90050500D01*
X187020404Y-90050500D01*
X187087443Y-90070185D01*
G37*
G04 #@! TD.AperFunction*
G04 #@! TA.AperFunction,Conductor*
G36*
X158780500Y-75120185D02*
G01*
X158826255Y-75172989D01*
X158836199Y-75242147D01*
X158831167Y-75263504D01*
X158785144Y-75402392D01*
X158775000Y-75501677D01*
X158775000Y-75525000D01*
X162724999Y-75525000D01*
X162724999Y-75505000D01*
X168595496Y-75505000D01*
X168637968Y-75651195D01*
X168720278Y-75790374D01*
X168720285Y-75790383D01*
X168834616Y-75904714D01*
X168834625Y-75904721D01*
X168973804Y-75987031D01*
X169129089Y-76032145D01*
X169150000Y-76033789D01*
X169150000Y-75505000D01*
X168595496Y-75505000D01*
X162724999Y-75505000D01*
X162724999Y-75501692D01*
X162724998Y-75501677D01*
X162714855Y-75402392D01*
X162668833Y-75263504D01*
X162666431Y-75193675D01*
X162702163Y-75133634D01*
X162764684Y-75102441D01*
X162786539Y-75100500D01*
X164364868Y-75100500D01*
X164429963Y-75118960D01*
X164455666Y-75134814D01*
X164622203Y-75189999D01*
X164724991Y-75200500D01*
X165775008Y-75200499D01*
X165775016Y-75200498D01*
X165775019Y-75200498D01*
X165841811Y-75193675D01*
X165877797Y-75189999D01*
X166044334Y-75134814D01*
X166070036Y-75118960D01*
X166135132Y-75100500D01*
X167056426Y-75100500D01*
X167121522Y-75118961D01*
X167191303Y-75162003D01*
X167352292Y-75215349D01*
X167451655Y-75225500D01*
X168048344Y-75225499D01*
X168048352Y-75225498D01*
X168048355Y-75225498D01*
X168102760Y-75219940D01*
X168147708Y-75215349D01*
X168308697Y-75162003D01*
X168378477Y-75118961D01*
X168443574Y-75100500D01*
X169526000Y-75100500D01*
X169593039Y-75120185D01*
X169638794Y-75172989D01*
X169650000Y-75224500D01*
X169650000Y-76033789D01*
X169670910Y-76032145D01*
X169826195Y-75987031D01*
X169965374Y-75904721D01*
X169965383Y-75904714D01*
X170079714Y-75790383D01*
X170079721Y-75790374D01*
X170162030Y-75651196D01*
X170207145Y-75495910D01*
X170207145Y-75495907D01*
X170209999Y-75459644D01*
X170209999Y-75394520D01*
X170229683Y-75327480D01*
X170282486Y-75281724D01*
X170351644Y-75271780D01*
X170415200Y-75300804D01*
X170450180Y-75351183D01*
X170456201Y-75367325D01*
X170456206Y-75367335D01*
X170542452Y-75482544D01*
X170542455Y-75482547D01*
X170657664Y-75568793D01*
X170657671Y-75568797D01*
X170686006Y-75579365D01*
X170792517Y-75619091D01*
X170827596Y-75622862D01*
X170892144Y-75649599D01*
X170931993Y-75706991D01*
X170934488Y-75776816D01*
X170898836Y-75836905D01*
X170885464Y-75847725D01*
X170860858Y-75864954D01*
X170699954Y-76025858D01*
X170569432Y-76212265D01*
X170569431Y-76212267D01*
X170473261Y-76418502D01*
X170473258Y-76418511D01*
X170414366Y-76638302D01*
X170414364Y-76638313D01*
X170394532Y-76864998D01*
X170394532Y-76865001D01*
X170414364Y-77091686D01*
X170414366Y-77091697D01*
X170473258Y-77311488D01*
X170473261Y-77311497D01*
X170569431Y-77517732D01*
X170569432Y-77517734D01*
X170699954Y-77704141D01*
X170860858Y-77865045D01*
X170879848Y-77878342D01*
X171047266Y-77995568D01*
X171097014Y-78018766D01*
X171105275Y-78022618D01*
X171157714Y-78068791D01*
X171176866Y-78135984D01*
X171156650Y-78202865D01*
X171105275Y-78247381D01*
X171088272Y-78255310D01*
X171047267Y-78274431D01*
X171047265Y-78274432D01*
X170860858Y-78404954D01*
X170699954Y-78565858D01*
X170569432Y-78752265D01*
X170569431Y-78752267D01*
X170473261Y-78958502D01*
X170473258Y-78958511D01*
X170414366Y-79178302D01*
X170414364Y-79178313D01*
X170394532Y-79404998D01*
X170394532Y-79405001D01*
X170414364Y-79631686D01*
X170414366Y-79631697D01*
X170473258Y-79851488D01*
X170473261Y-79851497D01*
X170569431Y-80057732D01*
X170569432Y-80057734D01*
X170699954Y-80244141D01*
X170860858Y-80405045D01*
X170860861Y-80405047D01*
X171047266Y-80535568D01*
X171105275Y-80562618D01*
X171157714Y-80608791D01*
X171176866Y-80675984D01*
X171156650Y-80742865D01*
X171105275Y-80787382D01*
X171047267Y-80814431D01*
X171047265Y-80814432D01*
X170860858Y-80944954D01*
X170699954Y-81105858D01*
X170569432Y-81292265D01*
X170569431Y-81292267D01*
X170473261Y-81498502D01*
X170473258Y-81498511D01*
X170414366Y-81718302D01*
X170414364Y-81718313D01*
X170394532Y-81944998D01*
X170394532Y-81945001D01*
X170414364Y-82171686D01*
X170414366Y-82171697D01*
X170473258Y-82391488D01*
X170473261Y-82391497D01*
X170569431Y-82597732D01*
X170569432Y-82597734D01*
X170699954Y-82784141D01*
X170860858Y-82945045D01*
X170860861Y-82945047D01*
X171047266Y-83075568D01*
X171105275Y-83102618D01*
X171157714Y-83148791D01*
X171176866Y-83215984D01*
X171156650Y-83282865D01*
X171105275Y-83327382D01*
X171047267Y-83354431D01*
X171047265Y-83354432D01*
X170860858Y-83484954D01*
X170699954Y-83645858D01*
X170569432Y-83832265D01*
X170569431Y-83832267D01*
X170473261Y-84038502D01*
X170473258Y-84038511D01*
X170414366Y-84258302D01*
X170414364Y-84258312D01*
X170409728Y-84311308D01*
X170384275Y-84376377D01*
X170327684Y-84417355D01*
X170286200Y-84424500D01*
X169273143Y-84424500D01*
X169206104Y-84404815D01*
X169160349Y-84352011D01*
X169154067Y-84335096D01*
X169151745Y-84327105D01*
X169151744Y-84327103D01*
X169151744Y-84327102D01*
X169068081Y-84185635D01*
X169068079Y-84185633D01*
X169068076Y-84185629D01*
X168951870Y-84069423D01*
X168951862Y-84069417D01*
X168810396Y-83985755D01*
X168810393Y-83985754D01*
X168652573Y-83939902D01*
X168652567Y-83939901D01*
X168615701Y-83937000D01*
X168615694Y-83937000D01*
X168374000Y-83937000D01*
X168306961Y-83917315D01*
X168261206Y-83864511D01*
X168250000Y-83813000D01*
X168250000Y-83550000D01*
X167700000Y-83550000D01*
X167700000Y-84205684D01*
X167682733Y-84268804D01*
X167648254Y-84327105D01*
X167648254Y-84327106D01*
X167602402Y-84484926D01*
X167602401Y-84484932D01*
X167599500Y-84521798D01*
X167599500Y-84955901D01*
X167579815Y-85022940D01*
X167527011Y-85068695D01*
X167457853Y-85078639D01*
X167394297Y-85049614D01*
X167356523Y-84990836D01*
X167353883Y-84980092D01*
X167342924Y-84925000D01*
X167341855Y-84919626D01*
X167341853Y-84919621D01*
X167309939Y-84842572D01*
X167300500Y-84795120D01*
X167300500Y-84521813D01*
X167300499Y-84521798D01*
X167300412Y-84520698D01*
X167297598Y-84484931D01*
X167251744Y-84327102D01*
X167217267Y-84268804D01*
X167200000Y-84205684D01*
X167200000Y-83550000D01*
X166650000Y-83550000D01*
X166650000Y-83813000D01*
X166630315Y-83880039D01*
X166577511Y-83925794D01*
X166526000Y-83937000D01*
X166284298Y-83937000D01*
X166247432Y-83939901D01*
X166247426Y-83939902D01*
X166089606Y-83985754D01*
X166089603Y-83985755D01*
X165948137Y-84069417D01*
X165948129Y-84069423D01*
X165831923Y-84185629D01*
X165831916Y-84185638D01*
X165800583Y-84238621D01*
X165749514Y-84286305D01*
X165693851Y-84299500D01*
X165399500Y-84299500D01*
X165332461Y-84279815D01*
X165286706Y-84227011D01*
X165275500Y-84175500D01*
X165275500Y-83415530D01*
X165290142Y-83357076D01*
X165291556Y-83354432D01*
X165328814Y-83284727D01*
X165386024Y-83096132D01*
X165405341Y-82900000D01*
X165386024Y-82703868D01*
X165368728Y-82646850D01*
X166650000Y-82646850D01*
X166650000Y-83050000D01*
X167200000Y-83050000D01*
X167700000Y-83050000D01*
X168250000Y-83050000D01*
X168250000Y-82646865D01*
X168249999Y-82646850D01*
X168247100Y-82610010D01*
X168247099Y-82610004D01*
X168201283Y-82452306D01*
X168201282Y-82452303D01*
X168117685Y-82310947D01*
X168117678Y-82310938D01*
X168001561Y-82194821D01*
X168001552Y-82194814D01*
X167860196Y-82111217D01*
X167860193Y-82111216D01*
X167702494Y-82065400D01*
X167702497Y-82065400D01*
X167700000Y-82065203D01*
X167700000Y-83050000D01*
X167200000Y-83050000D01*
X167200000Y-82065203D01*
X167197503Y-82065400D01*
X167039806Y-82111216D01*
X167039803Y-82111217D01*
X166898447Y-82194814D01*
X166898438Y-82194821D01*
X166782321Y-82310938D01*
X166782314Y-82310947D01*
X166698717Y-82452303D01*
X166698716Y-82452306D01*
X166652900Y-82610004D01*
X166652899Y-82610010D01*
X166650000Y-82646850D01*
X165368728Y-82646850D01*
X165328814Y-82515273D01*
X165328811Y-82515269D01*
X165328811Y-82515266D01*
X165235913Y-82341467D01*
X165235909Y-82341460D01*
X165110883Y-82189116D01*
X164958539Y-82064090D01*
X164958532Y-82064086D01*
X164784733Y-81971188D01*
X164784727Y-81971186D01*
X164596132Y-81913976D01*
X164596129Y-81913975D01*
X164400000Y-81894659D01*
X164203870Y-81913975D01*
X164015266Y-81971188D01*
X163841467Y-82064086D01*
X163841460Y-82064090D01*
X163689116Y-82189116D01*
X163564090Y-82341460D01*
X163564086Y-82341467D01*
X163471188Y-82515266D01*
X163413975Y-82703870D01*
X163394659Y-82900000D01*
X163413975Y-83096129D01*
X163471187Y-83284730D01*
X163492712Y-83325000D01*
X163508444Y-83354432D01*
X163509858Y-83357076D01*
X163524500Y-83415530D01*
X163524500Y-84138461D01*
X163504815Y-84205500D01*
X163452011Y-84251255D01*
X163382853Y-84261199D01*
X163361496Y-84256167D01*
X163222607Y-84210144D01*
X163123322Y-84200000D01*
X163100000Y-84200000D01*
X163100000Y-86149999D01*
X163123308Y-86149999D01*
X163123322Y-86149998D01*
X163222607Y-86139855D01*
X163383481Y-86086547D01*
X163383492Y-86086542D01*
X163527731Y-85997573D01*
X163536959Y-85988345D01*
X163598279Y-85954856D01*
X163667971Y-85959835D01*
X163712327Y-85988339D01*
X163721955Y-85997967D01*
X163721959Y-85997970D01*
X163866294Y-86086998D01*
X163866297Y-86086999D01*
X163866303Y-86087003D01*
X164027292Y-86140349D01*
X164126655Y-86150500D01*
X164673344Y-86150499D01*
X164673352Y-86150498D01*
X164673355Y-86150498D01*
X164727760Y-86144940D01*
X164772708Y-86140349D01*
X164933697Y-86087003D01*
X164962946Y-86068961D01*
X165028043Y-86050500D01*
X165693851Y-86050500D01*
X165760890Y-86070185D01*
X165800583Y-86111379D01*
X165831916Y-86164361D01*
X165831923Y-86164370D01*
X165948129Y-86280576D01*
X165948133Y-86280579D01*
X165948135Y-86280581D01*
X166089602Y-86364244D01*
X166117210Y-86372265D01*
X166247426Y-86410097D01*
X166247429Y-86410097D01*
X166247431Y-86410098D01*
X166284306Y-86413000D01*
X166284314Y-86413000D01*
X166715686Y-86413000D01*
X166715694Y-86413000D01*
X166752569Y-86410098D01*
X166752571Y-86410097D01*
X166752573Y-86410097D01*
X166794191Y-86398005D01*
X166910398Y-86364244D01*
X167051865Y-86280581D01*
X167168081Y-86164365D01*
X167251744Y-86022898D01*
X167289067Y-85894432D01*
X167297597Y-85865073D01*
X167297598Y-85865067D01*
X167300500Y-85828194D01*
X167300500Y-85554878D01*
X167309939Y-85507425D01*
X167341855Y-85430374D01*
X167353883Y-85369907D01*
X167386268Y-85307996D01*
X167446983Y-85273422D01*
X167516753Y-85277161D01*
X167573425Y-85318027D01*
X167599006Y-85383045D01*
X167599500Y-85394098D01*
X167599500Y-85828201D01*
X167602401Y-85865067D01*
X167602402Y-85865073D01*
X167648254Y-86022893D01*
X167648255Y-86022896D01*
X167731917Y-86164362D01*
X167731923Y-86164370D01*
X167848129Y-86280576D01*
X167848133Y-86280579D01*
X167848135Y-86280581D01*
X167989602Y-86364244D01*
X168017210Y-86372265D01*
X168147426Y-86410097D01*
X168147429Y-86410097D01*
X168147431Y-86410098D01*
X168184306Y-86413000D01*
X168184314Y-86413000D01*
X168615686Y-86413000D01*
X168615694Y-86413000D01*
X168652569Y-86410098D01*
X168652571Y-86410097D01*
X168652573Y-86410097D01*
X168694191Y-86398005D01*
X168810398Y-86364244D01*
X168951865Y-86280581D01*
X169068081Y-86164365D01*
X169151744Y-86022898D01*
X169152307Y-86020956D01*
X169154067Y-86014904D01*
X169191674Y-85956018D01*
X169255147Y-85926813D01*
X169273143Y-85925500D01*
X170660951Y-85925500D01*
X170727990Y-85945185D01*
X170773745Y-85997989D01*
X170783689Y-86067147D01*
X170754664Y-86130703D01*
X170748632Y-86137181D01*
X170699954Y-86185858D01*
X170569432Y-86372265D01*
X170569431Y-86372267D01*
X170473261Y-86578502D01*
X170473258Y-86578511D01*
X170414366Y-86798302D01*
X170414364Y-86798313D01*
X170394532Y-87024998D01*
X170394532Y-87025003D01*
X170409129Y-87191861D01*
X170395362Y-87260360D01*
X170373282Y-87290348D01*
X167625451Y-90038181D01*
X167564128Y-90071666D01*
X167537770Y-90074500D01*
X167004812Y-90074500D01*
X166937773Y-90054815D01*
X166892018Y-90002011D01*
X166882074Y-89932853D01*
X166911099Y-89869297D01*
X166917131Y-89862819D01*
X166970071Y-89809878D01*
X166970072Y-89809877D01*
X167058019Y-89664395D01*
X167108590Y-89502106D01*
X167115000Y-89431572D01*
X167115000Y-89425000D01*
X166014000Y-89425000D01*
X165946961Y-89405315D01*
X165901206Y-89352511D01*
X165890000Y-89301000D01*
X165890000Y-88925000D01*
X166390000Y-88925000D01*
X167114999Y-88925000D01*
X167114999Y-88918417D01*
X167108591Y-88847897D01*
X167108590Y-88847892D01*
X167058018Y-88685603D01*
X166970072Y-88540122D01*
X166849877Y-88419927D01*
X166704395Y-88331980D01*
X166704396Y-88331980D01*
X166542105Y-88281409D01*
X166542106Y-88281409D01*
X166471572Y-88275000D01*
X166390000Y-88275000D01*
X166390000Y-88925000D01*
X165890000Y-88925000D01*
X165890000Y-88275000D01*
X165889999Y-88274999D01*
X165808417Y-88275000D01*
X165737897Y-88281408D01*
X165737892Y-88281409D01*
X165575603Y-88331981D01*
X165430122Y-88419927D01*
X165309927Y-88540122D01*
X165243577Y-88649879D01*
X165192049Y-88697067D01*
X165123189Y-88708905D01*
X165058861Y-88681636D01*
X165049779Y-88673410D01*
X164968420Y-88592051D01*
X164958542Y-88585451D01*
X164890242Y-88539815D01*
X164890241Y-88539814D01*
X164845501Y-88509919D01*
X164845488Y-88509912D01*
X164708917Y-88453343D01*
X164708907Y-88453340D01*
X164563920Y-88424500D01*
X164563918Y-88424500D01*
X164392977Y-88424500D01*
X164328828Y-88406617D01*
X164204606Y-88331522D01*
X164042196Y-88280914D01*
X164042194Y-88280913D01*
X164042192Y-88280913D01*
X163992778Y-88276423D01*
X163971616Y-88274500D01*
X163308384Y-88274500D01*
X163289145Y-88276248D01*
X163237807Y-88280913D01*
X163075393Y-88331522D01*
X162929811Y-88419530D01*
X162809530Y-88539811D01*
X162721522Y-88685393D01*
X162670913Y-88847807D01*
X162664500Y-88918386D01*
X162664500Y-89125500D01*
X162644815Y-89192539D01*
X162592011Y-89238294D01*
X162540500Y-89249500D01*
X162490959Y-89249500D01*
X162426811Y-89231618D01*
X162421602Y-89228469D01*
X162267887Y-89180570D01*
X162267885Y-89180569D01*
X162267883Y-89180569D01*
X162221117Y-89176319D01*
X162201091Y-89174500D01*
X162201088Y-89174500D01*
X161198901Y-89174500D01*
X161132117Y-89180568D01*
X161132106Y-89180571D01*
X160978401Y-89228467D01*
X160840608Y-89311766D01*
X160726767Y-89425607D01*
X160722142Y-89431512D01*
X160719926Y-89429776D01*
X160678077Y-89468098D01*
X160609218Y-89479936D01*
X160544890Y-89452666D01*
X160535809Y-89444441D01*
X160226818Y-89135450D01*
X160193333Y-89074127D01*
X160190499Y-89047769D01*
X160190499Y-88833901D01*
X160184431Y-88767117D01*
X160184428Y-88767106D01*
X160136532Y-88613401D01*
X160136531Y-88613400D01*
X160136531Y-88613398D01*
X160053236Y-88475612D01*
X160053234Y-88475610D01*
X160053233Y-88475608D01*
X159939391Y-88361766D01*
X159938471Y-88361210D01*
X159801602Y-88278469D01*
X159647887Y-88230570D01*
X159647885Y-88230569D01*
X159647883Y-88230569D01*
X159601117Y-88226319D01*
X159581091Y-88224500D01*
X159581088Y-88224500D01*
X158578901Y-88224500D01*
X158512117Y-88230568D01*
X158503725Y-88233183D01*
X158501470Y-88233886D01*
X158464582Y-88239500D01*
X157501933Y-88239500D01*
X157467338Y-88234576D01*
X157441726Y-88227135D01*
X157425205Y-88222335D01*
X157425202Y-88222334D01*
X157389181Y-88219500D01*
X156890830Y-88219500D01*
X156890808Y-88219501D01*
X156854794Y-88222335D01*
X156700611Y-88267129D01*
X156700606Y-88267131D01*
X156562404Y-88348863D01*
X156562396Y-88348869D01*
X156448869Y-88462396D01*
X156448863Y-88462404D01*
X156367131Y-88600606D01*
X156367129Y-88600611D01*
X156322335Y-88754791D01*
X156322334Y-88754797D01*
X156319500Y-88790811D01*
X156319500Y-89189169D01*
X156319501Y-89189191D01*
X156322335Y-89225205D01*
X156367130Y-89379391D01*
X156367131Y-89379394D01*
X156379610Y-89400495D01*
X156396792Y-89468219D01*
X156374631Y-89534481D01*
X156360558Y-89551296D01*
X155702181Y-90209674D01*
X155640858Y-90243159D01*
X155571167Y-90238175D01*
X155515233Y-90196304D01*
X155490816Y-90130839D01*
X155490500Y-90121993D01*
X155490500Y-85906079D01*
X155461659Y-85761092D01*
X155461658Y-85761091D01*
X155461658Y-85761087D01*
X155405084Y-85624505D01*
X155359464Y-85556229D01*
X155359464Y-85556228D01*
X155322950Y-85501581D01*
X155322947Y-85501578D01*
X155294691Y-85473322D01*
X161900001Y-85473322D01*
X161910144Y-85572607D01*
X161963452Y-85733481D01*
X161963457Y-85733492D01*
X162052424Y-85877728D01*
X162052427Y-85877732D01*
X162172267Y-85997572D01*
X162172271Y-85997575D01*
X162316507Y-86086542D01*
X162316518Y-86086547D01*
X162477393Y-86139855D01*
X162576683Y-86149999D01*
X162600000Y-86149998D01*
X162600000Y-85425000D01*
X161900001Y-85425000D01*
X161900001Y-85473322D01*
X155294691Y-85473322D01*
X154796697Y-84975329D01*
X154765302Y-84922243D01*
X154752064Y-84876677D01*
X161900000Y-84876677D01*
X161900000Y-84925000D01*
X162600000Y-84925000D01*
X162600000Y-84199999D01*
X162576693Y-84200000D01*
X162576674Y-84200001D01*
X162477392Y-84210144D01*
X162316518Y-84263452D01*
X162316507Y-84263457D01*
X162172271Y-84352424D01*
X162172267Y-84352427D01*
X162052427Y-84472267D01*
X162052424Y-84472271D01*
X161963457Y-84616507D01*
X161963452Y-84616518D01*
X161910144Y-84777393D01*
X161900000Y-84876677D01*
X154752064Y-84876677D01*
X154732869Y-84810607D01*
X154723710Y-84795120D01*
X154666050Y-84697620D01*
X154648867Y-84629896D01*
X154671027Y-84563634D01*
X154725494Y-84519871D01*
X154772782Y-84510500D01*
X154846345Y-84510500D01*
X154895591Y-84520698D01*
X154900599Y-84522864D01*
X154900607Y-84522869D01*
X154977701Y-84545267D01*
X155054791Y-84567664D01*
X155054794Y-84567664D01*
X155054796Y-84567665D01*
X155090819Y-84570500D01*
X155489180Y-84570499D01*
X155525204Y-84567665D01*
X155679393Y-84522869D01*
X155724403Y-84496249D01*
X155792126Y-84479066D01*
X155856413Y-84499877D01*
X155895295Y-84525858D01*
X155895298Y-84525859D01*
X155895301Y-84525861D01*
X156003070Y-84570500D01*
X156054626Y-84591855D01*
X156223766Y-84625499D01*
X156223769Y-84625500D01*
X156223771Y-84625500D01*
X156396231Y-84625500D01*
X156396232Y-84625499D01*
X156565374Y-84591855D01*
X156724705Y-84525858D01*
X156868099Y-84430045D01*
X156990045Y-84308099D01*
X157085858Y-84164705D01*
X157151855Y-84005374D01*
X157185500Y-83836229D01*
X157185500Y-77506303D01*
X157205185Y-77439264D01*
X157257989Y-77393509D01*
X157270498Y-77388597D01*
X157271215Y-77388359D01*
X157277952Y-77386127D01*
X157424289Y-77295865D01*
X157545865Y-77174289D01*
X157636127Y-77027952D01*
X157690209Y-76864744D01*
X157700500Y-76764011D01*
X157700500Y-76048322D01*
X158775001Y-76048322D01*
X158785144Y-76147607D01*
X158838452Y-76308481D01*
X158838457Y-76308492D01*
X158927424Y-76452728D01*
X158927427Y-76452732D01*
X159047267Y-76572572D01*
X159047271Y-76572575D01*
X159191507Y-76661542D01*
X159191518Y-76661547D01*
X159352393Y-76714855D01*
X159451683Y-76724999D01*
X160000000Y-76724999D01*
X160048308Y-76724999D01*
X160048322Y-76724998D01*
X160147607Y-76714855D01*
X160308481Y-76661547D01*
X160308492Y-76661542D01*
X160452728Y-76572575D01*
X160452732Y-76572572D01*
X160572572Y-76452732D01*
X160572575Y-76452728D01*
X160644462Y-76336183D01*
X160696410Y-76289458D01*
X160765372Y-76278237D01*
X160829454Y-76306080D01*
X160855538Y-76336183D01*
X160927424Y-76452728D01*
X160927427Y-76452732D01*
X161047267Y-76572572D01*
X161047271Y-76572575D01*
X161191507Y-76661542D01*
X161191518Y-76661547D01*
X161352393Y-76714855D01*
X161451683Y-76724999D01*
X162000000Y-76724999D01*
X162048308Y-76724999D01*
X162048322Y-76724998D01*
X162147607Y-76714855D01*
X162308481Y-76661547D01*
X162308492Y-76661542D01*
X162452728Y-76572575D01*
X162452732Y-76572572D01*
X162572572Y-76452732D01*
X162572575Y-76452728D01*
X162661542Y-76308492D01*
X162661547Y-76308481D01*
X162714855Y-76147606D01*
X162724999Y-76048322D01*
X162725000Y-76048309D01*
X162725000Y-76025000D01*
X162000000Y-76025000D01*
X162000000Y-76724999D01*
X161451683Y-76724999D01*
X161499999Y-76724998D01*
X161500000Y-76724998D01*
X161500000Y-76025000D01*
X160000000Y-76025000D01*
X160000000Y-76724999D01*
X159451683Y-76724999D01*
X159499999Y-76724998D01*
X159500000Y-76724998D01*
X159500000Y-76025000D01*
X158775001Y-76025000D01*
X158775001Y-76048322D01*
X157700500Y-76048322D01*
X157700499Y-75224499D01*
X157720184Y-75157461D01*
X157772987Y-75111706D01*
X157824499Y-75100500D01*
X158713461Y-75100500D01*
X158780500Y-75120185D01*
G37*
G04 #@! TD.AperFunction*
G04 #@! TA.AperFunction,Conductor*
G36*
X195693039Y-76410185D02*
G01*
X195738794Y-76462989D01*
X195750000Y-76514500D01*
X195750000Y-77171388D01*
X195730315Y-77238427D01*
X195677511Y-77284182D01*
X195608353Y-77294126D01*
X195554876Y-77272963D01*
X195383409Y-77152900D01*
X195383407Y-77152899D01*
X195183284Y-77059580D01*
X195183270Y-77059575D01*
X194969986Y-77002426D01*
X194969976Y-77002424D01*
X194750001Y-76983179D01*
X194749999Y-76983179D01*
X194530023Y-77002424D01*
X194530013Y-77002426D01*
X194316729Y-77059575D01*
X194316720Y-77059579D01*
X194116590Y-77152901D01*
X194051811Y-77198258D01*
X194722553Y-77869000D01*
X194699840Y-77869000D01*
X194602939Y-77894964D01*
X194516060Y-77945124D01*
X194445124Y-78016060D01*
X194394964Y-78102939D01*
X194369000Y-78199840D01*
X194369000Y-78222553D01*
X193698258Y-77551811D01*
X193652901Y-77616590D01*
X193559579Y-77816720D01*
X193559575Y-77816729D01*
X193502426Y-78030013D01*
X193502424Y-78030023D01*
X193483179Y-78249999D01*
X193483179Y-78250000D01*
X193502424Y-78469976D01*
X193502426Y-78469986D01*
X193559575Y-78683270D01*
X193559580Y-78683284D01*
X193652898Y-78883405D01*
X193652901Y-78883411D01*
X193698258Y-78948187D01*
X193698259Y-78948188D01*
X194369000Y-78277447D01*
X194369000Y-78300160D01*
X194394964Y-78397061D01*
X194445124Y-78483940D01*
X194516060Y-78554876D01*
X194602939Y-78605036D01*
X194699840Y-78631000D01*
X194722551Y-78631000D01*
X194051810Y-79301740D01*
X194116590Y-79347099D01*
X194116592Y-79347100D01*
X194316715Y-79440419D01*
X194316729Y-79440424D01*
X194530013Y-79497573D01*
X194530023Y-79497575D01*
X194749999Y-79516821D01*
X194750001Y-79516821D01*
X194969976Y-79497575D01*
X194969986Y-79497573D01*
X195183270Y-79440424D01*
X195183284Y-79440419D01*
X195383407Y-79347100D01*
X195383417Y-79347094D01*
X195554876Y-79227037D01*
X195621082Y-79204709D01*
X195688849Y-79221719D01*
X195736663Y-79272666D01*
X195750000Y-79328611D01*
X195750000Y-84737270D01*
X195730315Y-84804309D01*
X195713681Y-84824951D01*
X190601069Y-89937563D01*
X190539746Y-89971048D01*
X190470054Y-89966064D01*
X190425707Y-89937563D01*
X189671819Y-89183675D01*
X189638334Y-89122352D01*
X189635500Y-89095994D01*
X189635500Y-82904006D01*
X189655185Y-82836967D01*
X189671814Y-82816329D01*
X189755045Y-82733099D01*
X189850858Y-82589705D01*
X189854683Y-82580472D01*
X189892536Y-82489086D01*
X189916855Y-82430374D01*
X189950500Y-82261229D01*
X189950500Y-82230711D01*
X189956114Y-82193823D01*
X189969086Y-82152196D01*
X189975500Y-82081616D01*
X189975500Y-81418384D01*
X189969086Y-81347804D01*
X189959954Y-81318498D01*
X189956114Y-81306173D01*
X189950500Y-81269285D01*
X189950500Y-78748768D01*
X189950499Y-78748766D01*
X189916856Y-78579633D01*
X189916855Y-78579626D01*
X189871437Y-78469976D01*
X189850861Y-78420301D01*
X189850854Y-78420288D01*
X189755046Y-78276902D01*
X189701785Y-78223641D01*
X189633099Y-78154955D01*
X188880325Y-77402181D01*
X188846840Y-77340858D01*
X188851824Y-77271166D01*
X188893696Y-77215233D01*
X188959160Y-77190816D01*
X188968006Y-77190500D01*
X189358920Y-77190500D01*
X189456462Y-77171096D01*
X189503913Y-77161658D01*
X189640495Y-77105084D01*
X189709306Y-77059106D01*
X189763416Y-77022952D01*
X190359549Y-76426819D01*
X190420872Y-76393334D01*
X190447230Y-76390500D01*
X195626000Y-76390500D01*
X195693039Y-76410185D01*
G37*
G04 #@! TD.AperFunction*
G04 #@! TA.AperFunction,Conductor*
G36*
X186725520Y-82520185D02*
G01*
X186746163Y-82536820D01*
X186789811Y-82580468D01*
X186789811Y-82580469D01*
X186789813Y-82580470D01*
X186789815Y-82580472D01*
X186935394Y-82668478D01*
X187097804Y-82719086D01*
X187168384Y-82725500D01*
X187168387Y-82725500D01*
X187681611Y-82725500D01*
X187681616Y-82725500D01*
X187749280Y-82719350D01*
X187817822Y-82732886D01*
X187868169Y-82781331D01*
X187884500Y-82842841D01*
X187884500Y-87055500D01*
X187864815Y-87122539D01*
X187812011Y-87168294D01*
X187760501Y-87179500D01*
X187540830Y-87179500D01*
X187540808Y-87179501D01*
X187504794Y-87182335D01*
X187350611Y-87227129D01*
X187350606Y-87227131D01*
X187212404Y-87308863D01*
X187212396Y-87308869D01*
X187108085Y-87413181D01*
X187046762Y-87446666D01*
X187020404Y-87449500D01*
X185220808Y-87449500D01*
X185153769Y-87429815D01*
X185133127Y-87413181D01*
X184239674Y-86519727D01*
X184239673Y-86519726D01*
X184239669Y-86519723D01*
X184133127Y-86448535D01*
X184014744Y-86399499D01*
X184014738Y-86399497D01*
X183889071Y-86374500D01*
X183889069Y-86374500D01*
X180516683Y-86374500D01*
X180449644Y-86354815D01*
X180415108Y-86321623D01*
X180320045Y-86185858D01*
X180159141Y-86024954D01*
X179972734Y-85894432D01*
X179972728Y-85894429D01*
X179914725Y-85867382D01*
X179862285Y-85821210D01*
X179843133Y-85754017D01*
X179863348Y-85687135D01*
X179914725Y-85642618D01*
X179972734Y-85615568D01*
X180159139Y-85485047D01*
X180320047Y-85324139D01*
X180328308Y-85312340D01*
X180334585Y-85303377D01*
X180389162Y-85259752D01*
X180436160Y-85250500D01*
X182673126Y-85250500D01*
X182740165Y-85270185D01*
X182760807Y-85286819D01*
X182796955Y-85322967D01*
X182796959Y-85322970D01*
X182941294Y-85411998D01*
X182941297Y-85411999D01*
X182941303Y-85412003D01*
X183102292Y-85465349D01*
X183201655Y-85475500D01*
X183748344Y-85475499D01*
X183748352Y-85475498D01*
X183748355Y-85475498D01*
X183802760Y-85469940D01*
X183847708Y-85465349D01*
X184008697Y-85412003D01*
X184153044Y-85322968D01*
X184162668Y-85313343D01*
X184223987Y-85279856D01*
X184293679Y-85284835D01*
X184338034Y-85313339D01*
X184347267Y-85322572D01*
X184347271Y-85322575D01*
X184491507Y-85411542D01*
X184491518Y-85411547D01*
X184652393Y-85464855D01*
X184751683Y-85474999D01*
X185275000Y-85474999D01*
X185298308Y-85474999D01*
X185298322Y-85474998D01*
X185397607Y-85464855D01*
X185558481Y-85411547D01*
X185558492Y-85411542D01*
X185702728Y-85322575D01*
X185702732Y-85322572D01*
X185822572Y-85202732D01*
X185822575Y-85202728D01*
X185911542Y-85058492D01*
X185911547Y-85058481D01*
X185964855Y-84897606D01*
X185974999Y-84798322D01*
X185975000Y-84798309D01*
X185975000Y-84750000D01*
X185275000Y-84750000D01*
X185275000Y-85474999D01*
X184751683Y-85474999D01*
X184775000Y-85474998D01*
X184775000Y-84374000D01*
X184794685Y-84306961D01*
X184847489Y-84261206D01*
X184899000Y-84250000D01*
X185974999Y-84250000D01*
X185974999Y-84201692D01*
X185974998Y-84201677D01*
X185964855Y-84102392D01*
X185911547Y-83941518D01*
X185911542Y-83941507D01*
X185822575Y-83797271D01*
X185822572Y-83797267D01*
X185702731Y-83677426D01*
X185623569Y-83628598D01*
X185576845Y-83576650D01*
X185565624Y-83507687D01*
X185593467Y-83443605D01*
X185600964Y-83435402D01*
X186499548Y-82536819D01*
X186560871Y-82503334D01*
X186587229Y-82500500D01*
X186658481Y-82500500D01*
X186725520Y-82520185D01*
G37*
G04 #@! TD.AperFunction*
G04 #@! TA.AperFunction,Conductor*
G36*
X150454809Y-79370185D02*
G01*
X150475451Y-79386819D01*
X151213181Y-80124549D01*
X151246666Y-80185872D01*
X151249500Y-80212230D01*
X151249500Y-81006863D01*
X151229815Y-81073902D01*
X151177011Y-81119657D01*
X151172958Y-81121422D01*
X151159150Y-81127141D01*
X151159146Y-81127144D01*
X151039191Y-81219188D01*
X150947142Y-81339149D01*
X150889282Y-81478837D01*
X150889281Y-81478841D01*
X150874500Y-81591105D01*
X150874500Y-82108887D01*
X150881671Y-82163353D01*
X150870905Y-82232388D01*
X150846413Y-82267218D01*
X150814204Y-82299427D01*
X150752881Y-82332912D01*
X150683189Y-82327928D01*
X150627256Y-82286056D01*
X150602839Y-82220592D01*
X150603584Y-82195559D01*
X150614999Y-82108861D01*
X150615000Y-82108849D01*
X150615000Y-82100000D01*
X150402732Y-82100000D01*
X150338014Y-82080996D01*
X150337893Y-82081208D01*
X150337022Y-82080705D01*
X150335693Y-82080315D01*
X150332695Y-82078207D01*
X150330853Y-82077143D01*
X150191162Y-82019282D01*
X150191160Y-82019281D01*
X150191159Y-82019281D01*
X150177125Y-82017433D01*
X150078894Y-82004500D01*
X150078887Y-82004500D01*
X149881950Y-82004500D01*
X149834497Y-81995061D01*
X149745374Y-81958145D01*
X149745366Y-81958143D01*
X149576232Y-81924500D01*
X149576229Y-81924500D01*
X149364000Y-81924500D01*
X149296961Y-81904815D01*
X149251206Y-81852011D01*
X149240000Y-81800500D01*
X149240000Y-81600000D01*
X149740000Y-81600000D01*
X150615000Y-81600000D01*
X150615000Y-81591150D01*
X150614999Y-81591136D01*
X150600231Y-81478971D01*
X150600230Y-81478967D01*
X150542421Y-81339401D01*
X150450452Y-81219547D01*
X150330598Y-81127578D01*
X150191032Y-81069769D01*
X150191028Y-81069768D01*
X150078863Y-81055000D01*
X149740000Y-81055000D01*
X149740000Y-81600000D01*
X149240000Y-81600000D01*
X149240000Y-81055000D01*
X148901136Y-81055000D01*
X148788971Y-81069768D01*
X148788967Y-81069769D01*
X148649401Y-81127578D01*
X148529547Y-81219547D01*
X148437578Y-81339401D01*
X148379769Y-81478967D01*
X148379768Y-81478971D01*
X148365000Y-81591136D01*
X148365000Y-81602494D01*
X148345315Y-81669533D01*
X148292511Y-81715288D01*
X148223353Y-81725232D01*
X148159797Y-81696207D01*
X148153319Y-81690175D01*
X148031819Y-81568675D01*
X147998334Y-81507352D01*
X147995500Y-81480994D01*
X147995500Y-79534500D01*
X148015185Y-79467461D01*
X148067989Y-79421706D01*
X148119500Y-79410500D01*
X148284682Y-79410500D01*
X148284690Y-79410500D01*
X148320993Y-79407643D01*
X148320995Y-79407642D01*
X148320997Y-79407642D01*
X148354895Y-79397793D01*
X148476395Y-79362494D01*
X148476400Y-79362490D01*
X148480539Y-79360701D01*
X148529790Y-79350500D01*
X150387770Y-79350500D01*
X150454809Y-79370185D01*
G37*
G04 #@! TD.AperFunction*
G04 #@! TA.AperFunction,Conductor*
G36*
X178013420Y-73845185D02*
G01*
X178059175Y-73897989D01*
X178069119Y-73967147D01*
X178066156Y-73981594D01*
X178041128Y-74074999D01*
X178041128Y-74075000D01*
X179004314Y-74075000D01*
X178999920Y-74079394D01*
X178947259Y-74170606D01*
X178920000Y-74272339D01*
X178920000Y-74377661D01*
X178947259Y-74479394D01*
X178999920Y-74570606D01*
X179004314Y-74575000D01*
X178041128Y-74575000D01*
X178093730Y-74771317D01*
X178093734Y-74771326D01*
X178189865Y-74977482D01*
X178320342Y-75163820D01*
X178481179Y-75324657D01*
X178667518Y-75455134D01*
X178667520Y-75455135D01*
X178725865Y-75482342D01*
X178778305Y-75528514D01*
X178797457Y-75595707D01*
X178777242Y-75662589D01*
X178725867Y-75707105D01*
X178667268Y-75734431D01*
X178667264Y-75734433D01*
X178480858Y-75864954D01*
X178319954Y-76025858D01*
X178189432Y-76212265D01*
X178189431Y-76212267D01*
X178093261Y-76418502D01*
X178093258Y-76418511D01*
X178034366Y-76638302D01*
X178034364Y-76638313D01*
X178014532Y-76864998D01*
X178014532Y-76865001D01*
X178034364Y-77091686D01*
X178034366Y-77091697D01*
X178068318Y-77218407D01*
X178066655Y-77288257D01*
X178027492Y-77346119D01*
X177963264Y-77373623D01*
X177948543Y-77374500D01*
X173071457Y-77374500D01*
X173004418Y-77354815D01*
X172958663Y-77302011D01*
X172948719Y-77232853D01*
X172951682Y-77218407D01*
X172959075Y-77190816D01*
X172985635Y-77091692D01*
X173005468Y-76865000D01*
X173005445Y-76864742D01*
X172996633Y-76764011D01*
X172985635Y-76638308D01*
X172926739Y-76418504D01*
X172830568Y-76212266D01*
X172700047Y-76025861D01*
X172700045Y-76025858D01*
X172539143Y-75864956D01*
X172514536Y-75847726D01*
X172470912Y-75793149D01*
X172463719Y-75723650D01*
X172495241Y-75661296D01*
X172555471Y-75625882D01*
X172572404Y-75622861D01*
X172607483Y-75619091D01*
X172742331Y-75568796D01*
X172857546Y-75482546D01*
X172943796Y-75367331D01*
X172994091Y-75232483D01*
X173000500Y-75172873D01*
X173000499Y-74314005D01*
X173020183Y-74246967D01*
X173036818Y-74226325D01*
X173401325Y-73861819D01*
X173462648Y-73828334D01*
X173489006Y-73825500D01*
X177946381Y-73825500D01*
X178013420Y-73845185D01*
G37*
G04 #@! TD.AperFunction*
G04 #@! TA.AperFunction,Conductor*
G36*
X182113033Y-73845185D02*
G01*
X182133675Y-73861819D01*
X182494955Y-74223099D01*
X182585862Y-74314006D01*
X182616902Y-74345046D01*
X182760288Y-74440854D01*
X182760297Y-74440859D01*
X182922936Y-74508226D01*
X182977339Y-74552067D01*
X182999404Y-74618361D01*
X182982125Y-74686060D01*
X182963164Y-74710468D01*
X180828236Y-76845394D01*
X180766913Y-76878879D01*
X180697221Y-76873895D01*
X180641288Y-76832023D01*
X180617027Y-76768520D01*
X180616633Y-76764011D01*
X180605635Y-76638308D01*
X180546739Y-76418504D01*
X180450568Y-76212266D01*
X180320047Y-76025861D01*
X180320045Y-76025858D01*
X180159141Y-75864954D01*
X179972734Y-75734432D01*
X179972732Y-75734431D01*
X179958036Y-75727578D01*
X179914132Y-75707105D01*
X179861694Y-75660934D01*
X179842542Y-75593740D01*
X179862758Y-75526859D01*
X179914134Y-75482341D01*
X179972484Y-75455132D01*
X180158820Y-75324657D01*
X180319657Y-75163820D01*
X180450134Y-74977482D01*
X180546265Y-74771326D01*
X180546269Y-74771317D01*
X180598872Y-74575000D01*
X179635686Y-74575000D01*
X179640080Y-74570606D01*
X179692741Y-74479394D01*
X179720000Y-74377661D01*
X179720000Y-74272339D01*
X179692741Y-74170606D01*
X179640080Y-74079394D01*
X179635686Y-74075000D01*
X180598872Y-74075000D01*
X180598871Y-74074999D01*
X180573844Y-73981594D01*
X180575507Y-73911744D01*
X180614669Y-73853881D01*
X180678898Y-73826377D01*
X180693619Y-73825500D01*
X182045994Y-73825500D01*
X182113033Y-73845185D01*
G37*
G04 #@! TD.AperFunction*
M02*
